<?xml version="1.0" standalone="no"?>
<!DOCTYPE svg PUBLIC "-//W3C//DTD SVG 1.1//EN" "http://www.w3.org/Graphics/SVG/1.1/DTD/svg11.dtd" >
<svg xmlns="http://www.w3.org/2000/svg">
<metadata>
This is a custom SVG webfont generated by Font Squirrel.
Copyright   : Copyright c 2003 by Bitstream Inc All Rights ReservedCopyright c 2006 by Tavmjong Bah All Rights ReservedDejaVu changes are in public domain
Foundry     : DejaVu fonts team
Foundry URL : httpdejavusourceforgenet
</metadata>
<defs>
<font id="DejaVuSansCondensed" horiz-adv-x="1544" >
<font-face units-per-em="2048" ascent="1556" descent="-492" />
<missing-glyph horiz-adv-x="585" />
<glyph unicode="&#xfb00;" horiz-adv-x="1269" d="M42 977v143h159v78q0 187 78 272.5t248 85.5h157v-153h-158q-90 0 -124 -40q-35 -40 -35 -144v-99h455v78q0 187 78 272.5t248 85.5h157v-153h-158q-89 0 -124 -40t-35 -144v-99h273v-143h-273v-977h-166v977h-455v-977h-166v977h-159z" />
<glyph unicode="&#xfb01;" horiz-adv-x="1161" d="M42 977v143h159v78q0 183 77.5 270.5t239.5 87.5h166v-153h-158q-90 0 -124.5 -40t-34.5 -144v-99h621v-1120h-166v977h-455v-977h-166v977h-159zM822 1321v233h166v-233h-166z" />
<glyph unicode="&#xfb02;" horiz-adv-x="1161" d="M42 977v143h159v78q0 187 78 272.5t248 85.5h461v-1556h-166v1403h-296q-90 0 -124.5 -40t-34.5 -144v-99h273v-143h-273v-977h-166v977h-159z" />
<glyph unicode="&#xfb03;" horiz-adv-x="1782" d="M42 977v143h159v78q0 187 78 272.5t248 85.5h157v-153h-158q-90 0 -124 -40q-35 -40 -35 -144v-99h455v78q0 187 78 272q25 28 60 47q71 39 188 39h157v-153h-158q-89 0 -124 -40t-35 -144v-99h621v-1120h-166v977h-455v-977h-166v977h-455v-977h-166v977h-159z M1443 1321v233h166v-233h-166z" />
<glyph unicode="&#xfb04;" horiz-adv-x="1782" d="M42 977v143h159v78q0 187 78 272.5t248 85.5h157v-153h-158q-90 0 -124 -40q-35 -40 -35 -144v-99h455v78q0 187 78 272.5t248 85.5h461v-1556h-166v1403h-296q-89 0 -124 -40t-35 -144v-99h273v-143h-273v-977h-166v977h-455v-977h-166v977h-159z" />
<glyph unicode="&#xfedf;&#xfe82;" horiz-adv-x="1051" arabic-form="isolated" d="M76 1410h161l383 -959q26 43 44 98q34 137 34 321v686h165v-722q0 -300 -125 -518q-50 -85 -119 -156q-184 -180 -327 -180q-95 0 -162 32v184q86 -32 162 -32q102 0 225 152zM-189 1509v125l144 123q92 -83 153 -104q38 -13 86 -13q52 0 89 16q97 41 176 117v-125 q-82 -64 -162 -93q-61 -22 -108 -22q-31 0 -99 17q-69 17 -131 87z" />
<glyph unicode="&#xfee0;&#xfe82;" horiz-adv-x="1099" arabic-form="final" d="M76 1410h161l383 -959q26 43 44 98q34 137 34 321v686h165v-956q0 -174 31 -258q57 -158 129 -158h95v-184h-116q-158 0 -250 243q-15 41 -14 73q-53 -91 -119 -156q-182 -180 -327 -180q-95 0 -162 32v184q86 -32 162 -32q102 0 225 152zM-189 1509v125l144 123 q92 -83 153 -104q38 -13 86 -13q52 0 89 16q97 41 176 117v-125q-82 -64 -162 -93q-61 -22 -108 -22q-31 0 -99 17q-69 17 -131 87z" />
<glyph unicode="&#xfedf;&#xfe84;" horiz-adv-x="1051" arabic-form="isolated" d="M76 1410h161l383 -959q26 43 44 98q34 137 34 321v686h165v-722q0 -300 -125 -518q-50 -85 -119 -156q-184 -180 -327 -180q-95 0 -162 32v184q86 -32 162 -32q102 0 225 152zM-24 1515v100l70 18q-40 20 -54 56q-14 37 -14 82q0 96 50 139q52 45 135 45q56 0 103 -33 v-100q-45 33 -103 33q-59 0 -75 -18q-26 -32 -26 -58q0 -77 85 -104q29 -10 137 19v-102z" />
<glyph unicode="&#xfee0;&#xfe84;" horiz-adv-x="1099" arabic-form="final" d="M76 1410h161l383 -959q26 43 44 98q34 137 34 321v686h165v-956q0 -174 31 -258q57 -158 129 -158h95v-184h-116q-158 0 -250 243q-15 41 -14 73q-53 -91 -119 -156q-182 -180 -327 -180q-95 0 -162 32v184q86 -32 162 -32q102 0 225 152zM-24 1515v100l70 18 q-40 20 -54 56q-14 37 -14 82q0 96 50 139q52 45 135 45q56 0 103 -33v-100q-45 33 -103 33q-59 0 -75 -18q-26 -32 -26 -58q0 -77 85 -104q29 -10 137 19v-102z" />
<glyph unicode="&#xfedf;&#xfe88;" horiz-adv-x="1051" arabic-form="isolated" d="M76 1410h161l383 -959q26 43 44 98q34 137 34 321v686h165v-722q0 -300 -125 -518q-50 -85 -119 -156q-184 -180 -327 -180q-95 0 -162 32v184q86 -32 162 -32q102 0 225 152zM21 -500v100l70 18q-40 20 -54 56q-14 37 -14 82q0 96 50 139q52 45 135 45q56 0 103 -33 v-100q-45 33 -103 33q-59 0 -75 -18q-26 -32 -26 -58q0 -77 85 -104q29 -10 137 19v-102z" />
<glyph unicode="&#xfee0;&#xfe88;" horiz-adv-x="1099" arabic-form="final" d="M76 1410h161l383 -959q26 43 44 98q34 137 34 321v686h165v-956q0 -174 31 -258q57 -158 129 -158h95v-184h-116q-158 0 -250 243q-15 41 -14 73q-53 -91 -119 -156q-182 -180 -327 -180q-95 0 -162 32v184q86 -32 162 -32q102 0 225 152zM21 -500v100l70 18 q-40 20 -54 56q-14 37 -14 82q0 96 50 139q52 45 135 45q56 0 103 -33v-100q-45 33 -103 33q-59 0 -75 -18q-26 -32 -26 -58q0 -77 85 -104q29 -10 137 19v-102z" />
<glyph unicode="&#xfedf;&#xfe8e;" horiz-adv-x="1051" arabic-form="isolated" d="M76 1410h161l383 -959q26 43 44 98q34 137 34 321v686h165v-722q0 -300 -125 -518q-50 -85 -119 -156q-184 -180 -327 -180q-95 0 -162 32v184q86 -32 162 -32q102 0 225 152z" />
<glyph unicode="&#xfee0;&#xfe8e;" horiz-adv-x="1099" arabic-form="final" d="M76 1410h161l383 -959q26 43 44 98q34 137 34 321v686h165v-956q0 -174 31 -258q57 -158 129 -158h95v-184h-116q-158 0 -250 243q-15 41 -14 73q-53 -91 -119 -156q-182 -180 -327 -180q-95 0 -162 32v184q86 -32 162 -32q102 0 225 152z" />
<glyph unicode="&#x66e;" horiz-adv-x="513" d="M-18 0v184h32q89 0 128 44q44 49 44 155v217h166v-217q0 -187 -83 -297q-65 -86 -206 -86h-81z" />
<glyph unicode="&#x66e;" horiz-adv-x="556" d="M-18 0v184h32q89 0 128 44q44 49 44 155v217h166v-217q0 -106 44 -155q40 -44 129 -44h49v-184h-99q-135 0 -206 86q-69 -86 -206 -86h-81z" />
<glyph unicode="&#x66e;" horiz-adv-x="1809" d="M117 383q-1 138 57 230h165q-58 -94 -58 -230q0 -125 183 -192q93 -34 229 -34q234 2 405 57q179 58 290 167q53 52 53 171q0 62 -26 117h165q18 -75 18 -165q0 -208 62 -267q57 -53 114 -53h54v-184h-92q-104 0 -168 73q-72 83 -94 149q-139 -131 -349 -184 q-233 -58 -423 -58q-176 0 -288 38q-296 101 -297 365z" />
<glyph unicode="&#x66f;" horiz-adv-x="881" d="M-18 0v184h217q75 0 211 23q72 12 126 105q27 48 41 98q-57 -55 -144 -57q-117 -2 -187 67q-88 87 -88 216q0 52 7 96q20 148 155 217q71 36 139 36q81 0 140 -50q87 -72 128 -174q21 -51 21 -191q0 -208 -70 -351q-67 -136 -178 -180q-99 -39 -229 -39h-289zM328 656 q0 -80 50 -118q36 -25 74 -25q65 0 86 24q37 43 37 120q0 59 -59 110q-28 25 -68 24q-47 -1 -83 -43q-36 -41 -37 -92z" />
<glyph unicode="&#x66f;" horiz-adv-x="932" d="M-18 0v184h114q133 0 168 17q-26 40 -59 117q-19 46 -19 122q0 44 8 92q20 143 187 230q27 14 85 14q57 0 87 -14q164 -80 186 -230q7 -50 7 -92q0 -73 -19 -122q-26 -67 -58 -117q35 -17 167 -17h114v-184h-195q-122 0 -289 57q-166 -57 -289 -57h-195zM356 447 q0 -43 21 -96q28 -68 89 -90q57 21 89 90q23 50 23 96q0 24 -10 50q-21 52 -72 85q-17 10 -30 10t-30 -10q-50 -32 -72 -85q-8 -21 -8 -50z" />
<glyph unicode="&#x66f;" horiz-adv-x="1537" d="M96 -45q0 166 56 262h166q-56 -107 -56 -262q0 -76 24 -134q54 -130 290 -130q126 0 261 68q192 98 250 251q-59 5 -101 18q-108 35 -160 78q-132 109 -132 294q0 61 5 87q36 165 169 234q36 19 115 19q101 0 151 -50q89 -88 134 -233q18 -58 24 -272q23 -1 26 -1h237 v-184h-241h-43q-40 -122 -96 -192q-114 -145 -257 -223q-158 -86 -342 -85q-333 2 -418 192q-62 138 -62 263zM861 397q0 -60 52 -104q68 -59 158 -79q42 -9 55 -11q4 122 -16 209q-17 75 -60 110q-30 25 -65 25q-31 0 -50 -10q-46 -27 -65 -85q-9 -30 -9 -55z" />
<glyph unicode="&#x67c;" horiz-adv-x="513" d="M-18 0v184h32q89 0 128 44q44 49 44 155v217h166v-217q0 -187 -83 -297q-65 -86 -206 -86h-81zM89 850v150h135v-150h-135zM314 850v150h135v-150h-135zM72 -48q0 92 58 156q56 63 139 63t141 -63q56 -64 56 -156t-56 -156q-58 -64 -141 -64t-139 64q-58 64 -58 156z M182 -48q0 -42 25 -70q25 -27 62 -27t62 28t25 69q0 40 -25 68q-25 29 -62 29t-62 -28t-25 -69z" />
<glyph unicode="&#x67c;" horiz-adv-x="556" d="M-18 0v184h32q89 0 128 44q44 49 44 155v217h166v-217q0 -106 44 -155q40 -44 129 -44h49v-184h-99q-135 0 -206 86q-69 -86 -206 -86h-81zM89 850v150h135v-150h-135zM314 850v150h135v-150h-135zM72 -48q0 92 58 156q56 63 139 63t141 -63q56 -64 56 -156t-56 -156 q-58 -64 -141 -64t-139 64q-58 64 -58 156zM182 -48q0 -42 25 -70q25 -27 62 -27t62 28t25 69q0 40 -25 68q-25 29 -62 29t-62 -28t-25 -69z" />
<glyph unicode="&#x67c;" horiz-adv-x="1809" d="M630 650v150h135v-150h-135zM855 650v150h135v-150h-135zM613 -148q0 92 58 156q56 63 139 63t141 -63q56 -64 56 -156t-56 -156q-58 -64 -141 -64t-139 64q-58 64 -58 156zM723 -148q0 -42 25 -70q25 -27 62 -27t62 28t25 69q0 40 -25 68q-25 29 -62 29t-62 -28t-25 -69 zM117 383q-1 138 57 230h165q-58 -94 -58 -230q0 -125 183 -192q93 -34 229 -34q234 2 405 57q179 58 290 167q53 52 53 171q0 62 -26 117h165q18 -75 18 -165q0 -208 62 -267q57 -53 114 -53h54v-184h-92q-104 0 -168 73q-72 83 -94 149q-139 -131 -349 -184 q-233 -58 -423 -58q-176 0 -288 38q-296 101 -297 365z" />
<glyph unicode="&#x67d;" horiz-adv-x="513" d="M-18 0v184h32q89 0 128 44q44 49 44 155v217h166v-217q0 -187 -83 -297q-65 -86 -206 -86h-81zM89 1100v150h135v-150h-135zM201 1000h136v-150h-136v150zM314 1100v150h135v-150h-135z" />
<glyph unicode="&#x67d;" horiz-adv-x="556" d="M-18 0v184h32q89 0 128 44q44 49 44 155v217h166v-217q0 -106 44 -155q40 -44 129 -44h49v-184h-99q-135 0 -206 86q-69 -86 -206 -86h-81zM89 1100v150h135v-150h-135zM201 1000h136v-150h-136v150zM314 1100v150h135v-150h-135z" />
<glyph unicode="&#x67d;" horiz-adv-x="1809" d="M630 800v150h135v-150h-135zM742 700h136v-150h-136v150zM855 800v150h135v-150h-135zM117 383q-1 138 57 230h165q-58 -94 -58 -230q0 -125 183 -192q93 -34 229 -34q234 2 405 57q179 58 290 167q53 52 53 171q0 62 -26 117h165q18 -75 18 -165q0 -208 62 -267 q57 -53 114 -53h54v-184h-92q-104 0 -168 73q-72 83 -94 149q-139 -131 -349 -184q-233 -58 -423 -58q-176 0 -288 38q-296 101 -297 365z" />
<glyph unicode="&#x681;" horiz-adv-x="1139" d="M-18 0v184h90q204 0 320 72q94 58 198 164q85 86 176 121q-75 23 -168 46q-76 19 -238 35q-74 7 -219 1v184q65 7 133 8q145 0 300 -35q232 -52 430 -150v-154q-68 -24 -147 -76q-150 -98 -216 -164q-131 -129 -198 -156q-199 -80 -346 -80h-115zM381 915v100l70 18 q-40 20 -54 56q-14 37 -14 82q0 96 50 139q52 45 135 45q56 0 103 -33v-100q-45 33 -103 33q-59 0 -75 -18q-26 -32 -26 -58q0 -77 85 -104q29 -10 137 19v-102z" />
<glyph unicode="&#x681;" horiz-adv-x="1189" d="M-18 0v184h90q204 0 320 72q94 58 198 164q85 86 176 121q-75 23 -168 46q-76 19 -238 35q-74 7 -219 1v184q65 7 133 8q145 0 300 -35q232 -52 430 -150v-154q-58 -20 -124 -61q45 -78 72 -112q94 -119 196 -119h60v-184h-78q-188 0 -301 168q-36 54 -89 151 q-62 -46 -99 -83q-131 -129 -198 -156q-199 -80 -346 -80h-115zM381 915v100l70 18q-40 20 -54 56q-14 37 -14 82q0 96 50 139q52 45 135 45q56 0 103 -33v-100q-45 33 -103 33q-59 0 -75 -18q-26 -32 -26 -58q0 -77 85 -104q29 -10 137 19v-102z" />
<glyph unicode="&#x681;" horiz-adv-x="1189" d="M141 623v184q245 63 419 63q264 0 444 -54v-154q-98 0 -126 -13l26 -91q46 -160 111 -255q81 -119 157 -119h36v-184h-44q-116 0 -227 150q-74 100 -129 256q-5 15 -71 193q-103 -24 -191 -104q-201 -183 -201 -435q0 -137 66 -231q116 -164 413 -164q173 0 364 118v-184 q-135 -99 -360 -99q-376 0 -528 194q-118 150 -118 374q0 258 191 481q86 101 209 153h-22q-86 0 -212 -19q-121 -19 -207 -60zM426 1015v100l70 18q-40 20 -54 56q-14 37 -14 82q0 96 50 139q52 45 135 45q56 0 103 -33v-100q-45 33 -103 33q-59 0 -75 -18q-26 -32 -26 -58 q0 -77 85 -104q29 -10 137 19v-102z" />
<glyph unicode="&#x682;" horiz-adv-x="1139" d="M-18 0v184h90q204 0 320 72q94 58 198 164q85 86 176 121q-75 23 -168 46q-76 19 -238 35q-74 7 -219 1v184q65 7 133 8q145 0 300 -35q232 -52 430 -150v-154q-68 -24 -147 -76q-150 -98 -216 -164q-131 -129 -198 -156q-199 -80 -346 -80h-115zM472 1200v150h135v-150 h-135zM472 1100h135v-150h-135v150z" />
<glyph unicode="&#x682;" horiz-adv-x="1189" d="M-18 0v184h90q204 0 320 72q94 58 198 164q85 86 176 121q-75 23 -168 46q-76 19 -238 35q-74 7 -219 1v184q65 7 133 8q145 0 300 -35q232 -52 430 -150v-154q-58 -20 -124 -61q45 -78 72 -112q94 -119 196 -119h60v-184h-78q-188 0 -301 168q-36 54 -89 151 q-62 -46 -99 -83q-131 -129 -198 -156q-199 -80 -346 -80h-115zM472 1200v150h135v-150h-135zM472 1100h135v-150h-135v150z" />
<glyph unicode="&#x682;" horiz-adv-x="1189" d="M141 623v184q245 63 419 63q264 0 444 -54v-154q-98 0 -126 -13l26 -91q46 -160 111 -255q81 -119 157 -119h36v-184h-44q-116 0 -227 150q-74 100 -129 256q-5 15 -71 193q-103 -24 -191 -104q-201 -183 -201 -435q0 -137 66 -231q116 -164 413 -164q173 0 364 118v-184 q-135 -99 -360 -99q-376 0 -528 194q-118 150 -118 374q0 258 191 481q86 101 209 153h-22q-86 0 -212 -19q-121 -19 -207 -60zM518 1300v150h135v-150h-135zM518 1200h135v-150h-135v150z" />
<glyph unicode="&#x685;" horiz-adv-x="1139" d="M-18 0v184h90q204 0 320 72q94 58 198 164q85 86 176 121q-75 23 -168 46q-76 19 -238 35q-74 7 -219 1v184q65 7 133 8q145 0 300 -35q232 -52 430 -150v-154q-68 -24 -147 -76q-150 -98 -216 -164q-131 -129 -198 -156q-199 -80 -346 -80h-115zM360 950v150h135v-150 h-135zM472 1200v150h136v-150h-136zM585 950v150h135v-150h-135z" />
<glyph unicode="&#x685;" horiz-adv-x="1189" d="M-18 0v184h90q204 0 320 72q94 58 198 164q85 86 176 121q-75 23 -168 46q-76 19 -238 35q-74 7 -219 1v184q65 7 133 8q145 0 300 -35q232 -52 430 -150v-154q-58 -20 -124 -61q45 -78 72 -112q94 -119 196 -119h60v-184h-78q-188 0 -301 168q-36 54 -89 151 q-62 -46 -99 -83q-131 -129 -198 -156q-199 -80 -346 -80h-115zM360 950v150h135v-150h-135zM472 1200v150h136v-150h-136zM585 950v150h135v-150h-135z" />
<glyph unicode="&#x685;" horiz-adv-x="1189" d="M141 623v184q245 63 419 63q264 0 444 -54v-154q-98 0 -126 -13l26 -91q46 -160 111 -255q81 -119 157 -119h36v-184h-44q-116 0 -227 150q-74 100 -129 256q-5 15 -71 193q-103 -24 -191 -104q-201 -183 -201 -435q0 -137 66 -231q116 -164 413 -164q173 0 364 118v-184 q-135 -99 -360 -99q-376 0 -528 194q-118 150 -118 374q0 258 191 481q86 101 209 153h-22q-86 0 -212 -19q-121 -19 -207 -60zM405 1050v150h135v-150h-135zM517 1300v150h136v-150h-136zM630 1050v150h135v-150h-135z" />
<glyph unicode="&#x692;" horiz-adv-x="1017" d="M388 1138h125l117 -195l117 195h125l-176 -326h-133zM-76 -316q273 0 456 128q196 138 228 346q8 58 8 130q0 126 -47 262h165q27 -112 30 -142q9 -103 75 -180q38 -44 129 -44h67v-184h-117q-117 0 -162 62q-61 -278 -287 -411q-256 -151 -545 -151v184z" />
<glyph unicode="&#x695;" horiz-adv-x="1125" d="M-76 -316q273 0 456 128q196 138 228 346q8 58 8 130q0 126 -47 262h165q27 -112 30 -142q9 -103 75 -180q38 -44 129 -44h175v-184h-225q-117 0 -162 62q-61 -278 -287 -411q-256 -151 -545 -151v184zM685 -174h125l117 -195l117 195h125l-176 -326h-133z" />
<glyph unicode="&#x6a1;" horiz-adv-x="881" d="M-18 0v184h217q75 0 211 23q72 12 126 105q27 48 41 98q-57 -55 -144 -57q-117 -2 -187 67q-88 87 -88 216q0 52 7 96q20 148 155 217q71 36 139 36q81 0 140 -50q87 -72 128 -174q21 -51 21 -191q0 -208 -70 -351q-67 -136 -178 -180q-99 -39 -229 -39h-289zM328 656 q0 -80 50 -118q36 -25 74 -25q65 0 86 24q37 43 37 120q0 59 -59 110q-28 25 -68 24q-47 -1 -83 -43q-36 -41 -37 -92z" />
<glyph unicode="&#x6a1;" horiz-adv-x="932" d="M-18 0v184h114q133 0 168 17q-26 40 -59 117q-19 46 -19 122q0 44 8 92q20 143 187 230q27 14 85 14q57 0 87 -14q164 -80 186 -230q7 -50 7 -92q0 -73 -19 -122q-26 -67 -58 -117q35 -17 167 -17h114v-184h-195q-122 0 -289 57q-166 -57 -289 -57h-195zM356 447 q0 -43 21 -96q28 -68 89 -90q57 21 89 90q23 50 23 96q0 24 -10 50q-21 52 -72 85q-17 10 -30 10t-30 -10q-50 -32 -72 -85q-8 -21 -8 -50z" />
<glyph unicode="&#x6a1;" horiz-adv-x="1908" d="M117 314q-1 138 57 230h165q-58 -94 -58 -230q0 -115 183 -192q72 -31 342 -31q208 0 465 54l25 4q-31 27 -57 71q-73 124 -73 245q0 31 3 67q20 155 189 230q52 23 99 23q74 0 147 -50q123 -83 139 -233q4 -37 4 -67q0 -144 -72 -250q8 -1 14 -1h237v-184h-241 q-95 0 -195 36q-93 -43 -192 -67q-252 -60 -497 -60q-275 1 -387 40q-296 103 -297 365zM1335 460q0 -56 37 -122q44 -78 118 -115q94 65 94 187q0 20 -4 47q-13 71 -60 110q-30 25 -66 25q-22 0 -42 -10q-55 -25 -72 -85q-5 -19 -5 -37z" />
<glyph unicode="&#x6b5;" horiz-adv-x="561" d="M63 1988h125l117 -195l117 195h125l-176 -326h-133zM-18 0v184h68q89 0 128 44q44 49 44 155v1173h166v-1185q0 -178 -78 -279q-72 -92 -211 -92h-117z" />
<glyph unicode="&#x6b5;" horiz-adv-x="610" d="M63 1988h125l117 -195l117 195h125l-176 -326h-133zM-18 0v184h68q89 0 128 44q44 49 44 155v1173h166v-1173q0 -106 44 -155q40 -44 129 -44h67v-184h-117q-135 0 -206 86q-69 -86 -206 -86h-117z" />
<glyph unicode="&#x6b5;" horiz-adv-x="1395" d="M849 1988h125l117 -195l117 195h125l-176 -326h-133zM130 75q-1 138 56 230h166q-59 -115 -59 -230q0 -126 150 -192q36 -16 101 -16q72 0 171 34q156 53 223 172q70 126 70 353v1130h166v-1173q0 -106 44 -155q39 -44 128 -44h68v-184h-117q-101 0 -171 51 q-16 -46 -41 -86q-109 -177 -343 -243q-121 -34 -198 -34q-89 0 -151 22q-263 91 -263 365z" />
<glyph unicode="&#x6ba;" horiz-adv-x="513" d="M-18 0v184h32q89 0 128 44q44 49 44 155v217h166v-217q0 -187 -83 -297q-65 -86 -206 -86h-81zM202 850v150h135v-150h-135z" />
<glyph unicode="&#x6ba;" horiz-adv-x="556" d="M-18 0v184h32q89 0 128 44q44 49 44 155v217h166v-217q0 -106 44 -155q40 -44 129 -44h49v-184h-99q-135 0 -206 86q-69 -86 -206 -86h-81zM202 850v150h135v-150h-135z" />
<glyph unicode="&#x6bf;" horiz-adv-x="1139" d="M-18 0v184h90q204 0 320 72q94 58 198 164q85 86 176 121q-75 23 -168 46q-76 19 -238 35q-74 7 -219 1v184q65 7 133 8q145 0 300 -35q232 -52 430 -150v-154q-68 -24 -147 -76q-150 -98 -216 -164q-131 -129 -198 -156q-199 -80 -346 -80h-115zM360 -200v150h135v-150 h-135zM472 -300h136v-150h-136v150zM585 -200v150h135v-150h-135zM472 950v150h135v-150h-135z" />
<glyph unicode="&#x6bf;" horiz-adv-x="1189" d="M-18 0v184h90q204 0 320 72q94 58 198 164q85 86 176 121q-75 23 -168 46q-76 19 -238 35q-74 7 -219 1v184q65 7 133 8q145 0 300 -35q232 -52 430 -150v-154q-58 -20 -124 -61q45 -78 72 -112q94 -119 196 -119h60v-184h-78q-188 0 -301 168q-36 54 -89 151 q-62 -46 -99 -83q-131 -129 -198 -156q-199 -80 -346 -80h-115zM371 -200v150h135v-150h-135zM483 -300h136v-150h-136v150zM596 -200v150h135v-150h-135zM472 950v150h135v-150h-135z" />
<glyph unicode="&#x6bf;" horiz-adv-x="1189" d="M141 623v184q245 63 419 63q264 0 444 -54v-154q-98 0 -126 -13l26 -91q46 -160 111 -255q81 -119 157 -119h36v-184h-44q-116 0 -227 150q-74 100 -129 256q-5 15 -71 193q-103 -24 -191 -104q-201 -183 -201 -435q0 -137 66 -231q116 -164 413 -164q173 0 364 118v-184 q-135 -99 -360 -99q-376 0 -528 194q-118 150 -118 374q0 258 191 481q86 101 209 153h-22q-86 0 -212 -19q-121 -19 -207 -60zM518 1050v150h135v-150h-135zM438 25v150h135v-150h-135zM550 -75h136v-150h-136v150zM663 25v150h135v-150h-135z" />
<glyph unicode="&#x6ce;" horiz-adv-x="513" d="M27 1088h125l117 -195l117 195h125l-176 -326h-133zM89 -300v150h135v-150h-135zM314 -300v150h135v-150h-135zM-18 0v184h32q89 0 128 44q44 49 44 155v217h166v-217q0 -187 -83 -297q-65 -86 -206 -86h-81z" />
<glyph unicode="&#x6ce;" horiz-adv-x="556" d="M27 1088h125l117 -195l117 195h125l-176 -326h-133zM89 -300v150h135v-150h-135zM314 -300v150h135v-150h-135zM-18 0v184h32q89 0 128 44q44 49 44 155v217h166v-217q0 -106 44 -155q40 -44 129 -44h49v-184h-99q-135 0 -206 86q-69 -86 -206 -86h-81z" />
<glyph unicode="&#x6ce;" horiz-adv-x="1536" d="M388 838h125l117 -195l117 195h125l-176 -326h-133zM117 134q0 153 57 243h165q-58 -90 -58 -243q0 -114 149 -192q60 -31 221 -31q82 0 151 8q134 15 188 48q82 51 82 84q-1 43 -43 56q-26 8 -53 48q-40 59 -40 120q0 65 47 125q72 94 147 108q27 6 65 6q105 0 184 -134 q115 -196 144 -196h31v-184h-31q-103 0 -204 172q-97 165 -120 165q-33 0 -46 -6q-41 -17 -41 -52q0 -48 59 -75q66 -30 68 -153q3 -98 -99 -184q-115 -96 -311 -127q-80 -12 -174 -12q-169 0 -274 41q-264 103 -264 365z" />
<glyph unicode="&#x6d5;" horiz-adv-x="988" d="M130 285q0 173 184 300q98 68 234 83q-4 39 -6 82h165q1 -168 34 -342q19 -101 69 -180q28 -44 129 -44h67v-184h-117q-81 0 -147 51q-40 31 -74 90q-124 -73 -265 -73q-50 0 -102 15q-171 48 -171 202zM281 294q1 -41 82 -66t245 54q-13 42 -25 91q-11 50 -22 151 q-108 -12 -182 -79q-100 -89 -98 -151z" />
<glyph unicode="&#x67b;" horiz-adv-x="1735" arabic-form="isolated" d="M742 -250v150h135v-150h-135zM742 -350h135v-150h-135v150zM117 383q0 138 57 230h165q-58 -94 -58 -230q0 -125 183 -192q93 -34 229 -34q167 0 405 57q230 54 290 167q49 93 49 168q0 59 -22 120h165q14 -90 14 -160q0 -135 -68 -236q-116 -171 -401 -235 q-257 -58 -423 -58q-172 0 -288 38q-297 97 -297 365z" />
<glyph unicode="&#x67b;" horiz-adv-x="1809" arabic-form="final" d="M742 -250v150h135v-150h-135zM742 -350h135v-150h-135v150zM117 383q-1 138 57 230h165q-58 -94 -58 -230q0 -125 183 -192q93 -34 229 -34q234 2 405 57q179 58 290 167q53 52 53 171q0 62 -26 117h165q18 -75 18 -165q0 -208 62 -267q57 -53 114 -53h54v-184h-92 q-104 0 -168 73q-72 83 -94 149q-139 -131 -349 -184q-233 -58 -423 -58q-176 0 -288 38q-296 101 -297 365z" />
<glyph unicode="&#x67b;" horiz-adv-x="513" arabic-form="initial" d="M-18 0v184h32q89 0 128 44q44 49 44 155v217h166v-217q0 -187 -83 -297q-65 -86 -206 -86h-81zM202 -250v150h135v-150h-135zM202 -350h135v-150h-135v150z" />
<glyph unicode="&#x67b;" horiz-adv-x="556" arabic-form="medial" d="M202 -250v150h135v-150h-135zM202 -350h135v-150h-135v150zM-18 0v184h32q89 0 128 44q44 49 44 155v217h166v-217q0 -106 44 -155q40 -44 129 -44h49v-184h-99q-135 0 -206 86q-69 -86 -206 -86h-81z" />
<glyph unicode="&#x67e;" horiz-adv-x="1735" arabic-form="isolated" d="M630 -250v150h135v-150h-135zM742 -350h136v-150h-136v150zM855 -250v150h135v-150h-135zM117 383q0 138 57 230h165q-58 -94 -58 -230q0 -125 183 -192q93 -34 229 -34q167 0 405 57q230 54 290 167q49 93 49 168q0 59 -22 120h165q14 -90 14 -160q0 -135 -68 -236 q-116 -171 -401 -235q-257 -58 -423 -58q-172 0 -288 38q-297 97 -297 365z" />
<glyph unicode="&#x67e;" horiz-adv-x="1809" arabic-form="final" d="M630 -250v150h135v-150h-135zM742 -350h136v-150h-136v150zM855 -250v150h135v-150h-135zM117 383q-1 138 57 230h165q-58 -94 -58 -230q0 -125 183 -192q93 -34 229 -34q234 2 405 57q179 58 290 167q53 52 53 171q0 62 -26 117h165q18 -75 18 -165q0 -208 62 -267 q57 -53 114 -53h54v-184h-92q-104 0 -168 73q-72 83 -94 149q-139 -131 -349 -184q-233 -58 -423 -58q-176 0 -288 38q-296 101 -297 365z" />
<glyph unicode="&#x67e;" horiz-adv-x="513" arabic-form="initial" d="M-18 0v184h32q89 0 128 44q44 49 44 155v217h166v-217q0 -187 -83 -297q-65 -86 -206 -86h-81zM89 -250v150h135v-150h-135zM201 -350h136v-150h-136v150zM314 -250v150h135v-150h-135z" />
<glyph unicode="&#x67e;" horiz-adv-x="556" arabic-form="medial" d="M-18 0v184h32q89 0 128 44q44 49 44 155v217h166v-217q0 -106 44 -155q40 -44 129 -44h49v-184h-99q-135 0 -206 86q-69 -86 -206 -86h-81zM89 -250v150h135v-150h-135zM201 -350h136v-150h-136v150zM314 -250v150h135v-150h-135z" />
<glyph unicode="&#x680;" horiz-adv-x="1735" arabic-form="isolated" d="M630 -250v150h135v-150h-135zM630 -350h135v-150h-135v150zM855 -250v150h135v-150h-135zM855 -350h135v-150h-135v150zM117 383q0 138 57 230h165q-58 -94 -58 -230q0 -125 183 -192q93 -34 229 -34q167 0 405 57q230 54 290 167q49 93 49 168q0 59 -22 120h165 q14 -90 14 -160q0 -135 -68 -236q-116 -171 -401 -235q-257 -58 -423 -58q-172 0 -288 38q-297 97 -297 365z" />
<glyph unicode="&#x680;" horiz-adv-x="1809" arabic-form="final" d="M630 -250v150h135v-150h-135zM630 -350h135v-150h-135v150zM855 -250v150h135v-150h-135zM855 -350h135v-150h-135v150zM117 383q-1 138 57 230h165q-58 -94 -58 -230q0 -125 183 -192q93 -34 229 -34q234 2 405 57q179 58 290 167q53 52 53 171q0 62 -26 117h165 q18 -75 18 -165q0 -208 62 -267q57 -53 114 -53h54v-184h-92q-104 0 -168 73q-72 83 -94 149q-139 -131 -349 -184q-233 -58 -423 -58q-176 0 -288 38q-296 101 -297 365z" />
<glyph unicode="&#x680;" horiz-adv-x="513" arabic-form="initial" d="M-18 0v184h32q89 0 128 44q44 49 44 155v217h166v-217q0 -187 -83 -297q-65 -86 -206 -86h-81zM89 -250v150h135v-150h-135zM89 -350h135v-150h-135v150zM314 -250v150h135v-150h-135zM314 -350h135v-150h-135v150z" />
<glyph unicode="&#x680;" horiz-adv-x="556" arabic-form="medial" d="M-18 0v184h32q89 0 128 44q44 49 44 155v217h166v-217q0 -106 44 -155q40 -44 129 -44h49v-184h-99q-135 0 -206 86q-69 -86 -206 -86h-81zM89 -250v150h135v-150h-135zM89 -350h135v-150h-135v150zM314 -250v150h135v-150h-135zM314 -350h135v-150h-135v150z" />
<glyph unicode="&#x67a;" horiz-adv-x="1735" arabic-form="isolated" d="M742 900v150h135v-150h-135zM742 800h135v-150h-135v150zM117 383q0 138 57 230h165q-58 -94 -58 -230q0 -125 183 -192q93 -34 229 -34q167 0 405 57q230 54 290 167q49 93 49 168q0 59 -22 120h165q14 -90 14 -160q0 -135 -68 -236q-116 -171 -401 -235 q-257 -58 -423 -58q-172 0 -288 38q-297 97 -297 365z" />
<glyph unicode="&#x67a;" horiz-adv-x="1809" arabic-form="final" d="M742 900v150h135v-150h-135zM742 800h135v-150h-135v150zM117 383q-1 138 57 230h165q-58 -94 -58 -230q0 -125 183 -192q93 -34 229 -34q234 2 405 57q179 58 290 167q53 52 53 171q0 62 -26 117h165q18 -75 18 -165q0 -208 62 -267q57 -53 114 -53h54v-184h-92 q-104 0 -168 73q-72 83 -94 149q-139 -131 -349 -184q-233 -58 -423 -58q-176 0 -288 38q-296 101 -297 365z" />
<glyph unicode="&#x67a;" horiz-adv-x="513" arabic-form="initial" d="M-18 0v184h32q89 0 128 44q44 49 44 155v217h166v-217q0 -187 -83 -297q-65 -86 -206 -86h-81zM202 1100v150h135v-150h-135zM202 1000h135v-150h-135v150z" />
<glyph unicode="&#x67a;" horiz-adv-x="556" arabic-form="medial" d="M-18 0v184h32q89 0 128 44q44 49 44 155v217h166v-217q0 -106 44 -155q40 -44 129 -44h49v-184h-99q-135 0 -206 86q-69 -86 -206 -86h-81zM202 1100v150h135v-150h-135zM202 1000h135v-150h-135v150z" />
<glyph unicode="&#x67f;" horiz-adv-x="1735" arabic-form="isolated" d="M630 900v150h135v-150h-135zM630 800h135v-150h-135v150zM855 900v150h135v-150h-135zM855 800h135v-150h-135v150zM117 383q0 138 57 230h165q-58 -94 -58 -230q0 -125 183 -192q93 -34 229 -34q167 0 405 57q230 54 290 167q49 93 49 168q0 59 -22 120h165 q14 -90 14 -160q0 -135 -68 -236q-116 -171 -401 -235q-257 -58 -423 -58q-172 0 -288 38q-297 97 -297 365z" />
<glyph unicode="&#x67f;" horiz-adv-x="1809" arabic-form="final" d="M117 383q-1 138 57 230h165q-58 -94 -58 -230q0 -125 183 -192q93 -34 229 -34q234 2 405 57q179 58 290 167q53 52 53 171q0 62 -26 117h165q18 -75 18 -165q0 -208 62 -267q57 -53 114 -53h54v-184h-92q-104 0 -168 73q-72 83 -94 149q-139 -131 -349 -184 q-233 -58 -423 -58q-176 0 -288 38q-296 101 -297 365zM630 900v150h135v-150h-135zM630 800h135v-150h-135v150zM855 900v150h135v-150h-135zM855 800h135v-150h-135v150z" />
<glyph unicode="&#x67f;" horiz-adv-x="513" arabic-form="initial" d="M-18 0v184h32q89 0 128 44q44 49 44 155v217h166v-217q0 -187 -83 -297q-65 -86 -206 -86h-81zM89 1100v150h135v-150h-135zM89 1000h135v-150h-135v150zM314 1100v150h135v-150h-135zM314 1000h135v-150h-135v150z" />
<glyph unicode="&#x67f;" horiz-adv-x="556" arabic-form="medial" d="M-18 0v184h32q89 0 128 44q44 49 44 155v217h166v-217q0 -106 44 -155q40 -44 129 -44h49v-184h-99q-135 0 -206 86q-69 -86 -206 -86h-81zM89 1100v150h135v-150h-135zM89 1000h135v-150h-135v150zM314 1100v150h135v-150h-135zM314 1000h135v-150h-135v150z" />
<glyph unicode="&#x679;" horiz-adv-x="1735" arabic-form="isolated" d="M576 677v101h73v399h92v-321q32 73 126 113q56 24 119 -2q59 -25 59 -107q0 -91 -58 -141q-48 -42 -153 -42h-157h-101zM764 778h49q71 0 90 13q48 33 48 54q0 32 -27 48q-1 1 -65 -27q-46 -21 -95 -88zM117 383q0 138 57 230h165q-58 -94 -58 -230q0 -125 183 -192 q93 -34 229 -34q167 0 405 57q230 54 290 167q49 93 49 168q0 59 -22 120h165q14 -90 14 -160q0 -135 -68 -236q-116 -171 -401 -235q-257 -58 -423 -58q-172 0 -288 38q-297 97 -297 365z" />
<glyph unicode="&#x679;" horiz-adv-x="1809" arabic-form="final" d="M117 383q-1 138 57 230h165q-58 -94 -58 -230q0 -125 183 -192q93 -34 229 -34q234 2 405 57q179 58 290 167q53 52 53 171q0 62 -26 117h165q18 -75 18 -165q0 -208 62 -267q57 -53 114 -53h54v-184h-92q-104 0 -168 73q-72 83 -94 149q-139 -131 -349 -184 q-233 -58 -423 -58q-176 0 -288 38q-296 101 -297 365zM576 677v101h73v399h92v-321q32 73 126 113q56 24 119 -2q59 -25 59 -107q0 -91 -58 -141q-48 -42 -153 -42h-157h-101zM764 778h49q71 0 90 13q48 33 48 54q0 32 -27 48q-1 1 -65 -27q-46 -21 -95 -88z" />
<glyph unicode="&#x679;" horiz-adv-x="513" arabic-form="initial" d="M-18 0v184h32q89 0 128 44q44 49 44 155v217h166v-217q0 -187 -83 -297q-65 -86 -206 -86h-81zM35 877v101h73v399h92v-321q32 73 126 113q56 24 119 -2q59 -25 59 -107q0 -91 -58 -141q-48 -42 -153 -42h-157h-101zM223 978h49q71 0 90 13q48 33 48 54q0 32 -27 48 q-1 1 -65 -27q-46 -21 -95 -88z" />
<glyph unicode="&#x679;" horiz-adv-x="556" arabic-form="medial" d="M-18 0v184h32q89 0 128 44q44 49 44 155v217h166v-217q0 -106 44 -155q40 -44 129 -44h49v-184h-99q-135 0 -206 86q-69 -86 -206 -86h-81zM35 877v101h73v399h92v-321q32 73 126 113q56 24 119 -2q59 -25 59 -107q0 -91 -58 -141q-48 -42 -153 -42h-157h-101zM223 978 h49q71 0 90 13q48 33 48 54q0 32 -27 48q-1 1 -65 -27q-46 -21 -95 -88z" />
<glyph unicode="&#x6a4;" horiz-adv-x="1910" arabic-form="isolated" d="M1260 1150v150h135v-150h-135zM1372 1400v150h136v-150h-136zM1485 1150v150h135v-150h-135zM117 314q-1 138 57 230h165q-58 -94 -58 -230q0 -116 183 -192q80 -34 332 -34q289 0 478 57q193 59 283 167q31 38 49 116q-56 -75 -166 -75q-120 0 -187 67q-88 87 -88 216 q0 52 7 96q20 148 156 217q70 36 138 36q81 0 140 -50q87 -72 128 -174q22 -54 21 -191q-2 -226 -70 -351q-99 -180 -385 -250q-245 -61 -504 -61q-265 0 -382 41q-296 100 -297 365zM1336 656q0 -80 49 -118q36 -25 74 -25q65 0 86 24q37 43 37 120q0 59 -59 110 q-28 25 -68 24q-47 -1 -83 -43q-36 -41 -36 -92z" />
<glyph unicode="&#x6a4;" horiz-adv-x="1908" arabic-form="final" d="M117 314q-1 138 57 230h165q-58 -94 -58 -230q0 -115 183 -192q72 -31 342 -31q208 0 465 54l25 4q-31 27 -57 71q-73 124 -73 245q0 31 3 67q20 155 189 230q52 23 99 23q74 0 147 -50q123 -83 139 -233q4 -37 4 -67q0 -144 -72 -250q8 -1 14 -1h237v-184h-241 q-95 0 -195 36q-93 -43 -192 -67q-252 -60 -497 -60q-275 1 -387 40q-296 103 -297 365zM1335 460q0 -56 37 -122q44 -78 118 -115q94 65 94 187q0 20 -4 47q-13 71 -60 110q-30 25 -66 25q-22 0 -42 -10q-55 -25 -72 -85q-5 -19 -5 -37zM1260 950v150h135v-150h-135z M1372 1200v150h136v-150h-136zM1485 950v150h135v-150h-135z" />
<glyph unicode="&#x6a4;" horiz-adv-x="881" arabic-form="initial" d="M-18 0v184h217q75 0 211 23q72 12 126 105q27 48 41 98q-57 -55 -144 -57q-117 -2 -187 67q-88 87 -88 216q0 52 7 96q20 148 155 217q71 36 139 36q81 0 140 -50q87 -72 128 -174q21 -51 21 -191q0 -208 -70 -351q-67 -136 -178 -180q-99 -39 -229 -39h-289zM328 656 q0 -80 50 -118q36 -25 74 -25q65 0 86 24q37 43 37 120q0 59 -59 110q-28 25 -68 24q-47 -1 -83 -43q-36 -41 -37 -92zM270 1150v150h135v-150h-135zM382 1400v150h136v-150h-136zM495 1150v150h135v-150h-135z" />
<glyph unicode="&#x6a4;" horiz-adv-x="932" arabic-form="medial" d="M-18 0v184h114q133 0 168 17q-26 40 -59 117q-19 46 -19 122q0 44 8 92q20 143 187 230q27 14 85 14q57 0 87 -14q164 -80 186 -230q7 -50 7 -92q0 -73 -19 -122q-26 -67 -58 -117q35 -17 167 -17h114v-184h-195q-122 0 -289 57q-166 -57 -289 -57h-195zM356 447 q0 -43 21 -96q28 -68 89 -90q57 21 89 90q23 50 23 96q0 24 -10 50q-21 52 -72 85q-17 10 -30 10t-30 -10q-50 -32 -72 -85q-8 -21 -8 -50zM286 1000v150h135v-150h-135zM398 1250v150h136v-150h-136zM511 1000v150h135v-150h-135z" />
<glyph unicode="&#x6a6;" horiz-adv-x="1910" arabic-form="isolated" d="M1260 1400v150h135v-150h-135zM1260 1300h135v-150h-135v150zM1485 1400v150h135v-150h-135zM1485 1300h135v-150h-135v150zM117 314q-1 138 57 230h165q-58 -94 -58 -230q0 -116 183 -192q80 -34 332 -34q289 0 478 57q193 59 283 167q31 38 49 116q-56 -75 -166 -75 q-120 0 -187 67q-88 87 -88 216q0 52 7 96q20 148 156 217q70 36 138 36q81 0 140 -50q87 -72 128 -174q22 -54 21 -191q-2 -226 -70 -351q-99 -180 -385 -250q-245 -61 -504 -61q-265 0 -382 41q-296 100 -297 365zM1336 656q0 -80 49 -118q36 -25 74 -25q65 0 86 24 q37 43 37 120q0 59 -59 110q-28 25 -68 24q-47 -1 -83 -43q-36 -41 -36 -92z" />
<glyph unicode="&#x6a6;" horiz-adv-x="1908" arabic-form="final" d="M117 314q-1 138 57 230h165q-58 -94 -58 -230q0 -115 183 -192q72 -31 342 -31q208 0 465 54l25 4q-31 27 -57 71q-73 124 -73 245q0 31 3 67q20 155 189 230q52 23 99 23q74 0 147 -50q123 -83 139 -233q4 -37 4 -67q0 -144 -72 -250q8 -1 14 -1h237v-184h-241 q-95 0 -195 36q-93 -43 -192 -67q-252 -60 -497 -60q-275 1 -387 40q-296 103 -297 365zM1335 460q0 -56 37 -122q44 -78 118 -115q94 65 94 187q0 20 -4 47q-13 71 -60 110q-30 25 -66 25q-22 0 -42 -10q-55 -25 -72 -85q-5 -19 -5 -37zM1260 1200v150h135v-150h-135z M1260 1100h135v-150h-135v150zM1485 1200v150h135v-150h-135zM1485 1100h135v-150h-135v150z" />
<glyph unicode="&#x6a6;" horiz-adv-x="881" arabic-form="initial" d="M-18 0v184h217q75 0 211 23q72 12 126 105q27 48 41 98q-57 -55 -144 -57q-117 -2 -187 67q-88 87 -88 216q0 52 7 96q20 148 155 217q71 36 139 36q81 0 140 -50q87 -72 128 -174q21 -51 21 -191q0 -208 -70 -351q-67 -136 -178 -180q-99 -39 -229 -39h-289zM328 656 q0 -80 50 -118q36 -25 74 -25q65 0 86 24q37 43 37 120q0 59 -59 110q-28 25 -68 24q-47 -1 -83 -43q-36 -41 -37 -92zM270 1400v150h135v-150h-135zM270 1300h135v-150h-135v150zM495 1400v150h135v-150h-135zM495 1300h135v-150h-135v150z" />
<glyph unicode="&#x6a6;" horiz-adv-x="932" arabic-form="medial" d="M-18 0v184h114q133 0 168 17q-26 40 -59 117q-19 46 -19 122q0 44 8 92q20 143 187 230q27 14 85 14q57 0 87 -14q164 -80 186 -230q7 -50 7 -92q0 -73 -19 -122q-26 -67 -58 -117q35 -17 167 -17h114v-184h-195q-122 0 -289 57q-166 -57 -289 -57h-195zM356 447 q0 -43 21 -96q28 -68 89 -90q57 21 89 90q23 50 23 96q0 24 -10 50q-21 52 -72 85q-17 10 -30 10t-30 -10q-50 -32 -72 -85q-8 -21 -8 -50zM286 1250v150h135v-150h-135zM286 1150h135v-150h-135v150zM511 1250v150h135v-150h-135zM511 1150h135v-150h-135v150z" />
<glyph unicode="&#x684;" horiz-adv-x="1189" arabic-form="isolated" d="M698 175v150h135v-150h-135zM698 75h135v-150h-135v150zM141 623v184q249 63 424 63q263 0 439 -54v-154q-264 0 -458 -167q-201 -174 -201 -435q0 -135 66 -231q115 -164 413 -164q173 0 364 118v-184q-135 -99 -360 -99q-376 0 -528 194q-118 150 -118 374 q0 258 191 481q86 101 209 153q-91 0 -234 -19q-113 -15 -207 -60z" />
<glyph unicode="&#x684;" horiz-adv-x="1189" arabic-form="final" d="M608 125v150h135v-150h-135zM608 25h135v-150h-135v150zM141 623v184q245 63 419 63q264 0 444 -54v-154q-98 0 -126 -13l26 -91q46 -160 111 -255q81 -119 157 -119h36v-184h-44q-116 0 -227 150q-74 100 -129 256q-5 15 -71 193q-103 -24 -191 -104 q-201 -183 -201 -435q0 -137 66 -231q116 -164 413 -164q173 0 364 118v-184q-135 -99 -360 -99q-376 0 -528 194q-118 150 -118 374q0 258 191 481q86 101 209 153h-22q-86 0 -212 -19q-121 -19 -207 -60z" />
<glyph unicode="&#x684;" horiz-adv-x="1139" arabic-form="initial" d="M-18 0v184h90q204 0 320 72q94 58 198 164q85 86 176 121q-75 23 -168 46q-76 19 -238 35q-74 7 -219 1v184q65 7 133 8q145 0 300 -35q232 -52 430 -150v-154q-68 -24 -147 -76q-150 -98 -216 -164q-131 -129 -198 -156q-199 -80 -346 -80h-115zM472 -200v150h135v-150 h-135zM472 -300h135v-150h-135v150z" />
<glyph unicode="&#x684;" horiz-adv-x="1189" arabic-form="medial" d="M-18 0v184h90q204 0 320 72q94 58 198 164q85 86 176 121q-75 23 -168 46q-76 19 -238 35q-74 7 -219 1v184q65 7 133 8q145 0 300 -35q232 -52 430 -150v-154q-58 -20 -124 -61q45 -78 72 -112q94 -119 196 -119h60v-184h-78q-188 0 -301 168q-36 54 -89 151 q-62 -46 -99 -83q-131 -129 -198 -156q-199 -80 -346 -80h-115zM472 -200v150h135v-150h-135zM472 -300h135v-150h-135v150z" />
<glyph unicode="&#x683;" horiz-adv-x="1189" arabic-form="isolated" d="M585 25v150h135v-150h-135zM810 25v150h135v-150h-135zM141 623v184q249 63 424 63q263 0 439 -54v-154q-264 0 -458 -167q-201 -174 -201 -435q0 -135 66 -231q115 -164 413 -164q173 0 364 118v-184q-135 -99 -360 -99q-376 0 -528 194q-118 150 -118 374 q0 258 191 481q86 101 209 153q-91 0 -234 -19q-113 -15 -207 -60z" />
<glyph unicode="&#x683;" horiz-adv-x="1189" arabic-form="final" d="M495 -25v150h135v-150h-135zM720 -25v150h135v-150h-135zM141 623v184q245 63 419 63q264 0 444 -54v-154q-98 0 -126 -13l26 -91q46 -160 111 -255q81 -119 157 -119h36v-184h-44q-116 0 -227 150q-74 100 -129 256q-5 15 -71 193q-103 -24 -191 -104 q-201 -183 -201 -435q0 -137 66 -231q116 -164 413 -164q173 0 364 118v-184q-135 -99 -360 -99q-376 0 -528 194q-118 150 -118 374q0 258 191 481q86 101 209 153h-22q-86 0 -212 -19q-121 -19 -207 -60z" />
<glyph unicode="&#x683;" horiz-adv-x="1139" arabic-form="initial" d="M-18 0v184h90q204 0 320 72q94 58 198 164q85 86 176 121q-75 23 -168 46q-76 19 -238 35q-74 7 -219 1v184q65 7 133 8q145 0 300 -35q232 -52 430 -150v-154q-68 -24 -147 -76q-150 -98 -216 -164q-131 -129 -198 -156q-199 -80 -346 -80h-115zM360 -200v150h135v-150 h-135zM585 -200v150h135v-150h-135z" />
<glyph unicode="&#x683;" horiz-adv-x="1189" arabic-form="medial" d="M-18 0v184h90q204 0 320 72q94 58 198 164q85 86 176 121q-75 23 -168 46q-76 19 -238 35q-74 7 -219 1v184q65 7 133 8q145 0 300 -35q232 -52 430 -150v-154q-58 -20 -124 -61q45 -78 72 -112q94 -119 196 -119h60v-184h-78q-188 0 -301 168q-36 54 -89 151 q-62 -46 -99 -83q-131 -129 -198 -156q-199 -80 -346 -80h-115zM360 -200v150h135v-150h-135zM585 -200v150h135v-150h-135z" />
<glyph unicode="&#x686;" horiz-adv-x="1189" arabic-form="isolated" d="M596 150v150h135v-150h-135zM708 50h136v-150h-136v150zM821 150v150h135v-150h-135zM141 623v184q249 63 424 63q263 0 439 -54v-154q-264 0 -458 -167q-201 -174 -201 -435q0 -135 66 -231q115 -164 413 -164q173 0 364 118v-184q-135 -99 -360 -99q-376 0 -528 194 q-118 150 -118 374q0 258 191 481q86 101 209 153q-91 0 -234 -19q-113 -15 -207 -60z" />
<glyph unicode="&#x686;" horiz-adv-x="1189" arabic-form="final" d="M483 50v150h135v-150h-135zM595 -50h136v-150h-136v150zM708 50v150h135v-150h-135zM141 623v184q245 63 419 63q264 0 444 -54v-154q-98 0 -126 -13l26 -91q46 -160 111 -255q81 -119 157 -119h36v-184h-44q-116 0 -227 150q-74 100 -129 256q-5 15 -71 193 q-103 -24 -191 -104q-201 -183 -201 -435q0 -137 66 -231q116 -164 413 -164q173 0 364 118v-184q-135 -99 -360 -99q-376 0 -528 194q-118 150 -118 374q0 258 191 481q86 101 209 153h-22q-86 0 -212 -19q-121 -19 -207 -60z" />
<glyph unicode="&#x686;" horiz-adv-x="1139" arabic-form="initial" d="M-18 0v184h90q204 0 320 72q94 58 198 164q85 86 176 121q-75 23 -168 46q-76 19 -238 35q-74 7 -219 1v184q65 7 133 8q145 0 300 -35q232 -52 430 -150v-154q-68 -24 -147 -76q-150 -98 -216 -164q-131 -129 -198 -156q-199 -80 -346 -80h-115zM360 -200v150h135v-150 h-135zM472 -300h136v-150h-136v150zM585 -200v150h135v-150h-135z" />
<glyph unicode="&#x686;" horiz-adv-x="1189" arabic-form="medial" d="M-18 0v184h90q204 0 320 72q94 58 198 164q85 86 176 121q-75 23 -168 46q-76 19 -238 35q-74 7 -219 1v184q65 7 133 8q145 0 300 -35q232 -52 430 -150v-154q-58 -20 -124 -61q45 -78 72 -112q94 -119 196 -119h60v-184h-78q-188 0 -301 168q-36 54 -89 151 q-62 -46 -99 -83q-131 -129 -198 -156q-199 -80 -346 -80h-115zM360 -200v150h135v-150h-135zM472 -300h136v-150h-136v150zM585 -200v150h135v-150h-135z" />
<glyph unicode="&#x687;" horiz-adv-x="1189" arabic-form="isolated" d="M596 175v150h135v-150h-135zM596 75h135v-150h-135v150zM821 175v150h135v-150h-135zM821 75h135v-150h-135v150zM141 623v184q249 63 424 63q263 0 439 -54v-154q-264 0 -458 -167q-201 -174 -201 -435q0 -135 66 -231q115 -164 413 -164q173 0 364 118v-184 q-135 -99 -360 -99q-376 0 -528 194q-118 150 -118 374q0 258 191 481q86 101 209 153q-91 0 -234 -19q-113 -15 -207 -60z" />
<glyph unicode="&#x687;" horiz-adv-x="1189" arabic-form="final" d="M483 50v150h135v-150h-135zM483 -50h135v-150h-135v150zM708 50v150h135v-150h-135zM708 -50h135v-150h-135v150zM141 623v184q245 63 419 63q264 0 444 -54v-154q-98 0 -126 -13l26 -91q46 -160 111 -255q81 -119 157 -119h36v-184h-44q-116 0 -227 150 q-74 100 -129 256q-5 15 -71 193q-103 -24 -191 -104q-201 -183 -201 -435q0 -137 66 -231q116 -164 413 -164q173 0 364 118v-184q-135 -99 -360 -99q-376 0 -528 194q-118 150 -118 374q0 258 191 481q86 101 209 153h-22q-86 0 -212 -19q-121 -19 -207 -60z" />
<glyph unicode="&#x687;" horiz-adv-x="1139" arabic-form="initial" d="M-18 0v184h90q204 0 320 72q94 58 198 164q85 86 176 121q-75 23 -168 46q-76 19 -238 35q-74 7 -219 1v184q65 7 133 8q145 0 300 -35q232 -52 430 -150v-154q-68 -24 -147 -76q-150 -98 -216 -164q-131 -129 -198 -156q-199 -80 -346 -80h-115zM360 -200v150h135v-150 h-135zM360 -300h135v-150h-135v150zM585 -200v150h135v-150h-135zM585 -300h135v-150h-135v150z" />
<glyph unicode="&#x687;" horiz-adv-x="1189" arabic-form="medial" d="M-18 0v184h90q204 0 320 72q94 58 198 164q85 86 176 121q-75 23 -168 46q-76 19 -238 35q-74 7 -219 1v184q65 7 133 8q145 0 300 -35q232 -52 430 -150v-154q-58 -20 -124 -61q45 -78 72 -112q94 -119 196 -119h60v-184h-78q-188 0 -301 168q-36 54 -89 151 q-62 -46 -99 -83q-131 -129 -198 -156q-199 -80 -346 -80h-115zM360 -200v150h135v-150h-135zM360 -300h135v-150h-135v150zM585 -200v150h135v-150h-135zM585 -300h135v-150h-135v150z" />
<glyph unicode="&#x698;" horiz-adv-x="890" arabic-form="isolated" d="M450 800v150h135v-150h-135zM562 1050v150h136v-150h-136zM675 800v150h135v-150h-135zM-76 -316q273 0 456 128q196 138 228 346q8 58 8 130q0 126 -47 262h165q45 -118 45 -250q0 -82 -7 -144q-41 -350 -303 -505q-256 -151 -545 -151v184z" />
<glyph unicode="&#x698;" horiz-adv-x="1017" arabic-form="final" d="M-76 -316q273 0 456 128q196 138 228 346q8 58 8 130q0 126 -47 262h165q27 -112 30 -142q9 -103 75 -180q38 -44 129 -44h67v-184h-117q-117 0 -162 62q-61 -278 -287 -411q-256 -151 -545 -151v184zM450 800v150h135v-150h-135zM562 1050v150h136v-150h-136zM675 800 v150h135v-150h-135z" />
<glyph unicode="&#x691;" horiz-adv-x="890" arabic-form="isolated" d="M-76 -316q273 0 456 128q196 138 228 346q8 58 8 130q0 126 -47 262h165q45 -118 45 -250q0 -82 -7 -144q-41 -350 -303 -505q-256 -151 -545 -151v184zM396 827v101h73v399h92v-321q32 73 126 113q56 24 119 -2q59 -25 59 -107q0 -91 -58 -141q-48 -42 -153 -42h-157 h-101zM584 928h49q71 0 90 13q48 33 48 54q0 32 -27 48q-1 1 -65 -27q-46 -21 -95 -88z" />
<glyph unicode="&#x691;" horiz-adv-x="1017" arabic-form="final" d="M-76 -316q273 0 456 128q196 138 228 346q8 58 8 130q0 126 -47 262h165q27 -112 30 -142q9 -103 75 -180q38 -44 129 -44h67v-184h-117q-117 0 -162 62q-61 -278 -287 -411q-256 -151 -545 -151v184zM396 827v101h73v399h92v-321q32 73 126 113q56 24 119 -2 q59 -25 59 -107q0 -91 -58 -141q-48 -42 -153 -42h-157h-101zM584 928h49q71 0 90 13q48 33 48 54q0 32 -27 48q-1 1 -65 -27q-46 -21 -95 -88z" />
<glyph unicode="&#x6a9;" horiz-adv-x="1649" arabic-form="isolated" d="M117 314q0 138 57 230h165q-58 -94 -58 -230q0 -126 183 -192q93 -34 229 -34q166 0 340 80q141 65 174 120q14 26 14 72q0 69 -48 135l-279 380q-45 61 -45 142q0 35 9 68q31 119 121 161l671 310v-186l-536 -250q-64 -30 -83 -70q-5 -11 -5 -36q0 -32 28 -69l247 -330 q92 -123 92 -246q0 -113 -56 -214q-47 -86 -286 -171q-204 -73 -349 -73q-172 0 -288 38q-297 98 -297 365z" />
<glyph unicode="&#x6a9;" horiz-adv-x="1649" arabic-form="final" d="M117 314q0 138 57 230h165q-58 -94 -58 -230q0 -126 183 -192q93 -34 229 -34q166 0 340 80q142 65 174 120q14 26 14 72q0 69 -48 135l-279 380q-45 61 -45 142q0 35 9 68q31 119 121 161l671 310v-186l-536 -250q-64 -30 -83 -70q-5 -11 -5 -36q0 -32 28 -69l525 -705 q19 -26 54 -40q38 -16 96 -16h79v-184h-119q-58 0 -110 24q-93 43 -123 84l-87 120q-23 -64 -77 -108q-89 -76 -241 -136q-184 -73 -349 -73q-173 0 -288 38q-297 98 -297 365z" />
<glyph unicode="&#x6a9;" horiz-adv-x="877" arabic-form="initial" d="M-18 0v184h279q133 0 174 104q14 36 14 72q0 69 -49 135l-278 380q-46 61 -46 142q0 35 10 68q27 118 121 161l671 310v-186l-536 -250q-64 -30 -83 -70q-5 -11 -5 -36q0 -32 28 -69l247 -330q92 -123 92 -246q0 -113 -56 -214q-85 -155 -286 -155h-297z" />
<glyph unicode="&#x6a9;" horiz-adv-x="1017" arabic-form="medial" d="M-18 0v184h279q133 0 174 104q14 36 14 72q0 69 -49 135l-278 380q-46 61 -46 142q0 35 10 68q27 118 121 161l671 310v-186l-536 -250q-64 -30 -83 -70q-5 -11 -5 -36q0 -32 28 -69l524 -705q20 -26 54 -40q39 -16 97 -16h79v-184h-119q-58 0 -111 24q-92 43 -122 84 l-87 120q-19 -46 -35 -73q-85 -155 -283 -155h-297z" />
<glyph unicode="&#x6af;" horiz-adv-x="1649" arabic-form="isolated" d="M873 1331v150l777 354v-150zM117 314q0 138 57 230h165q-58 -94 -58 -230q0 -126 183 -192q93 -34 229 -34q166 0 340 80q141 65 174 120q14 26 14 72q0 69 -48 135l-279 380q-45 61 -45 142q0 35 9 68q31 119 121 161l671 310v-186l-536 -250q-64 -30 -83 -70 q-5 -11 -5 -36q0 -32 28 -69l247 -330q92 -123 92 -246q0 -113 -56 -214q-47 -86 -286 -171q-204 -73 -349 -73q-172 0 -288 38q-297 98 -297 365z" />
<glyph unicode="&#x6af;" horiz-adv-x="1649" arabic-form="final" d="M117 314q0 138 57 230h165q-58 -94 -58 -230q0 -126 183 -192q93 -34 229 -34q166 0 340 80q142 65 174 120q14 26 14 72q0 69 -48 135l-279 380q-45 61 -45 142q0 35 9 68q31 119 121 161l671 310v-186l-536 -250q-64 -30 -83 -70q-5 -11 -5 -36q0 -32 28 -69l525 -705 q19 -26 54 -40q38 -16 96 -16h79v-184h-119q-58 0 -110 24q-93 43 -123 84l-87 120q-23 -64 -77 -108q-89 -76 -241 -136q-184 -73 -349 -73q-173 0 -288 38q-297 98 -297 365zM873 1331v150l777 354v-150z" />
<glyph unicode="&#x6af;" horiz-adv-x="877" arabic-form="initial" d="M-18 0v184h279q133 0 174 104q14 36 14 72q0 69 -49 135l-278 380q-46 61 -46 142q0 35 10 68q27 118 121 161l671 310v-186l-536 -250q-64 -30 -83 -70q-5 -11 -5 -36q0 -32 28 -69l247 -330q92 -123 92 -246q0 -113 -56 -214q-85 -155 -286 -155h-297zM101 1331v150 l777 354v-150z" />
<glyph unicode="&#x6af;" horiz-adv-x="1017" arabic-form="medial" d="M-18 0v184h279q133 0 174 104q14 36 14 72q0 69 -49 135l-278 380q-46 61 -46 142q0 35 10 68q27 118 121 161l671 310v-186l-536 -250q-64 -30 -83 -70q-5 -11 -5 -36q0 -32 28 -69l524 -705q20 -26 54 -40q39 -16 97 -16h79v-184h-119q-58 0 -111 24q-92 43 -122 84 l-87 120q-19 -46 -35 -73q-85 -155 -283 -155h-297zM101 1331v150l777 354v-150z" />
<glyph unicode="&#x6ba;" horiz-adv-x="1353" arabic-form="isolated" d="M132 168q0 235 43 316h165q-44 -144 -44 -316q0 -237 181 -289q83 -24 167 -24q69 0 133 20q173 53 242 275q30 98 30 194q0 184 -91 406h165q94 -156 94 -438q0 -173 -90 -351q-100 -197 -323 -265q-88 -27 -160 -27q-118 0 -216 37q-296 106 -296 462z" />
<glyph unicode="&#x6ba;" horiz-adv-x="1403" arabic-form="final" d="M132 -1q0 175 43 316h165q-44 -137 -44 -316q0 -236 181 -289q81 -24 149 -24q80 0 151 20q174 48 242 275q29 101 29 213q0 184 -90 387h165q40 -97 64 -193q20 -80 65 -140q48 -64 102 -64h67v-184h-117q-64 0 -94 48q-3 -109 -83 -256q-108 -199 -323 -265 q-88 -27 -170 -27q-105 0 -206 37q-296 107 -296 462z" />
<glyph unicode="&#x6c6;" horiz-adv-x="890" arabic-form="isolated" d="M208 1138h125l117 -195l117 195h125l-176 -326h-133zM-76 -316q323 0 443 76q151 95 207 243q-106 0 -146 10q-136 33 -172 67q-104 98 -104 235q0 141 80 228q94 103 217 103q80 0 145 -51q117 -90 140 -233q15 -102 15 -178q0 -308 -155 -468q-86 -88 -169 -130 q-173 -86 -501 -86v184zM327 326q0 -51 46 -98q42 -44 215 -44q0 184 -78 243q-33 25 -65 25q-57 0 -97 -57q-21 -33 -21 -69z" />
<glyph unicode="&#x6c6;" horiz-adv-x="952" arabic-form="final" d="M208 1138h125l117 -195l117 195h125l-176 -326h-133zM-76 -316q324 0 443 76q151 95 207 243q-106 3 -146 10q-126 24 -172 67q-95 89 -104 224q-2 31 7 88q25 155 183 230q53 25 112 24q78 -2 140 -51q120 -92 140 -233q11 -83 15 -178h221v-184h-174l-63 1 q-23 -156 -139 -285q-75 -83 -169 -130q-173 -86 -501 -86v184zM330 357q-15 -75 43 -129q42 -40 215 -44q0 76 -15 133q-21 80 -63 110q-54 41 -108 15q-60 -29 -72 -85z" />
<glyph unicode="&#x649;" horiz-adv-x="513" arabic-form="initial" d="M-18 0v184h32q89 0 128 44q44 49 44 155v217h166v-217q0 -187 -83 -297q-65 -86 -206 -86h-81z" />
<glyph unicode="&#x649;" horiz-adv-x="556" arabic-form="medial" d="M-18 0v184h32q89 0 128 44q44 49 44 155v217h166v-217q0 -106 44 -155q40 -44 129 -44h49v-184h-99q-135 0 -206 86q-69 -86 -206 -86h-81z" />
<glyph unicode="&#x6cc;" horiz-adv-x="1442" arabic-form="isolated" d="M117 122q0 117 57 230h165q-59 -131 -58 -230q2 -147 149 -192q88 -26 142 -20q114 11 230 35q159 33 235 113q53 56 53 109q0 74 -114 103q-59 15 -162 61q-60 27 -112 78q-58 57 -58 172q0 150 170 224q86 37 179.5 37t180.5 -42q126 -61 151 -234h-166q-11 61 -71 94 q-36 20 -98 22q-70 2 -126 -37q-54 -38 -54 -72q0 -55 112 -97q224 -83 275 -147q69 -85 71 -174q1 -68 -39 -143q-91 -170 -400 -243q-159 -38 -267 -38q-116 0 -181 26q-264 104 -264 365z" />
<glyph unicode="&#x6cc;" horiz-adv-x="1536" arabic-form="final" d="M117 134q0 153 57 243h165q-58 -90 -58 -243q0 -114 149 -192q60 -31 221 -31q82 0 151 8q134 15 188 48q82 51 82 84q-1 43 -43 56q-26 8 -53 48q-40 59 -40 120q0 65 47 125q72 94 147 108q27 6 65 6q105 0 184 -134q115 -196 144 -196h31v-184h-31q-103 0 -204 172 q-97 165 -120 165q-33 0 -46 -6q-41 -17 -41 -52q0 -48 59 -75q66 -30 68 -153q3 -98 -99 -184q-115 -96 -311 -127q-80 -12 -174 -12q-169 0 -274 41q-264 103 -264 365z" />
<glyph unicode="&#x6cc;" horiz-adv-x="513" arabic-form="initial" d="M-18 0v184h32q89 0 128 44q44 49 44 155v217h166v-217q0 -187 -83 -297q-65 -86 -206 -86h-81zM89 -300v150h135v-150h-135zM314 -300v150h135v-150h-135z" />
<glyph unicode="&#x6cc;" horiz-adv-x="556" arabic-form="medial" d="M-18 0v184h32q89 0 128 44q44 49 44 155v217h166v-217q0 -106 44 -155q40 -44 129 -44h49v-184h-99q-135 0 -206 86q-69 -86 -206 -86h-81zM89 -300v150h135v-150h-135zM314 -300v150h135v-150h-135z" />
<glyph unicode="&#xfe70;" horiz-adv-x="540" arabic-form="isolated" d="M7 1210v110l526 130v-110zM7 1450v110l526 130v-110z" />
<glyph unicode="&#xfe71;" horiz-adv-x="540" arabic-form="medial" d="M-18 0v184h576v-184h-576zM7 1210v110l526 130v-110zM7 1450v110l526 130v-110z" />
<glyph unicode="&#xfe72;" horiz-adv-x="540" arabic-form="isolated" d="M7 1518h81q0 -97 11 -123q31 -75 74 -75q51 0 107 60q33 36 52 78q-30 7 -51 20q-97 57 -97 151q0 87 62 139q26 21 82 21q66 0 102 -39q49 -54 49 -133q0 -39 -11 -77q18 -1 30 -1q17 -1 35 -1v-110q-43 0 -61 2l-46 5q-24 -61 -91 -139q-77 -86 -162 -86 q-102 0 -152 154q-14 41 -14 154zM285 1629q0 -37 41 -55q17 -8 41 -16q3 7 5 14q9 21 9 45q0 34 -15.5 48t-33.5 14q-21 0 -31 -9q-16 -13 -16 -41z" />
<glyph unicode="&#xfe74;" horiz-adv-x="540" arabic-form="isolated" d="M7 -140l526 130v-110l-526 -130v110zM7 -380l526 130v-110l-526 -130v110z" />
<glyph unicode="&#xfe76;" horiz-adv-x="540" arabic-form="isolated" d="M7 1210v110l526 130v-110z" />
<glyph unicode="&#xfe77;" horiz-adv-x="540" arabic-form="medial" d="M7 1210v110l526 130v-110zM-18 0v184h576v-184h-576z" />
<glyph unicode="&#xfe78;" horiz-adv-x="540" arabic-form="isolated" d="M7 1209v110q137 0 262 109q21 18 38 38q-8 2 -26 12q-97 56 -97 151q0 87 62 139q26 21 82 21q66 0 102 -39q49 -54 49 -133q0 -32 -12 -77q15 -1 31.5 -1.5t34.5 -0.5v-110q-32 0 -61 2q-27 2 -52 5q-38 -61 -101 -103q-180 -123 -312 -123zM285 1629q0 -37 41 -55 q17 -8 41 -16q3 7 5 14q9 21 9 45q0 34 -15.5 48t-33.5 14q-21 0 -31 -9q-16 -13 -16 -41z" />
<glyph unicode="&#xfe79;" horiz-adv-x="540" arabic-form="medial" d="M7 1209v110q137 0 262 109q21 18 38 38q-8 2 -26 12q-97 56 -97 151q0 87 62 139q26 21 82 21q66 0 102 -39q49 -54 49 -133q0 -32 -12 -77q15 -1 31.5 -1.5t34.5 -0.5v-110q-32 0 -61 2q-27 2 -52 5q-38 -61 -101 -103q-180 -123 -312 -123zM285 1629q0 -37 41 -55 q17 -8 41 -16q3 7 5 14q9 21 9 45q0 34 -15.5 48t-33.5 14q-21 0 -31 -9q-16 -13 -16 -41zM-18 0v184h576v-184h-576z" />
<glyph unicode="&#xfe7a;" horiz-adv-x="540" arabic-form="isolated" d="M7 -170l526 130v-110l-526 -130v110z" />
<glyph unicode="&#xfe7b;" horiz-adv-x="540" arabic-form="medial" d="M7 -170l526 130v-110l-526 -130v110zM-18 0v184h576v-184h-576z" />
<glyph unicode="&#xfe7c;" horiz-adv-x="540" arabic-form="isolated" d="M-11 1451q0 109 14 207h88q-10 -125 -10 -181q0 -84 22 -118q17 -25 62 -5q55 24 59 194q2 82 2 171h86q3 -36 3 -90q0 -195 80 -195q64 0 64 174q0 115 -12 172h93q11 -73 11 -189q0 -133 -25 -187q-40 -89 -115 -99q-64 -9 -92 24q-24 30 -35 83q-13 -76 -43 -116 q-52 -69 -113 -69q-72 0 -109 63q-30 52 -30 161z" />
<glyph unicode="&#xfe7d;" horiz-adv-x="540" arabic-form="medial" d="M-11 1451q0 109 14 207h88q-10 -125 -10 -181q0 -84 22 -118q17 -25 62 -5q55 24 59 194q2 82 2 171h86q3 -36 3 -90q0 -195 80 -195q64 0 64 174q0 115 -12 172h93q11 -73 11 -189q0 -133 -25 -187q-40 -89 -115 -99q-64 -9 -92 24q-24 30 -35 83q-13 -76 -43 -116 q-52 -69 -113 -69q-72 0 -109 63q-30 52 -30 161zM-18 0v184h576v-184h-576z" />
<glyph unicode="&#xfe7e;" horiz-adv-x="540" arabic-form="isolated" d="M21 1524q0 115 72 194.5t175 79.5t175 -79.5t72 -194.5t-72 -195t-175 -80t-175 80t-72 195zM131 1524q0 -65 39 -108.5t98 -43.5q58 0 97.5 44t39.5 108q0 63 -39.5 107t-97.5 44q-59 0 -98 -43.5t-39 -107.5z" />
<glyph unicode="&#xfe7f;" horiz-adv-x="540" arabic-form="medial" d="M-18 0v184h576v-184h-576zM21 1524q0 115 72 194.5t175 79.5t175 -79.5t72 -194.5t-72 -195t-175 -80t-175 80t-72 195zM131 1524q0 -65 39 -108.5t98 -43.5q58 0 97.5 44t39.5 108q0 63 -39.5 107t-97.5 44q-59 0 -98 -43.5t-39 -107.5z" />
<glyph unicode="&#x621;" horiz-adv-x="866" arabic-form="isolated" d="M147 85v176q42 6 117 31q61 20 108 53q-128 24 -174 100q-47 79 -47 163q0 65 18 140q28 118 120 181q89 61 177 61q99 0 180 -22v-185q-90 31 -153 29q-45 -1 -90 -27q-86 -48 -85 -160q0 -115 180 -165q51 -14 103 1q65 19 117 54v-185q-81 -60 -265 -140 q-208 -90 -306 -105z" />
<glyph unicode="&#x622;" horiz-adv-x="512" arabic-form="isolated" d="M-67 1659v125l144 123q92 -83 153 -104q38 -13 86 -13q52 0 89 16q97 41 176 117v-125q-82 -64 -162 -93q-61 -22 -108 -22q-31 0 -99 17q-69 17 -131 87zM174 0v1556h165v-1556h-165z" />
<glyph unicode="&#x622;" horiz-adv-x="561" arabic-form="final" d="M174 371v1185h165v-1173q0 -106 44 -155q40 -44 129 -44h68v-184h-117q-139 0 -211 92q-78 101 -78 279zM-67 1659v125l144 123q92 -83 153 -104q38 -13 86 -13q52 0 89 16q97 41 176 117v-125q-82 -64 -162 -93q-61 -22 -108 -22q-31 0 -99 17q-69 17 -131 87z" />
<glyph unicode="&#x623;" horiz-adv-x="512" arabic-form="isolated" d="M98 1665v100l70 18q-40 20 -54 56q-14 37 -14 82q0 96 50 139q52 45 135 45q56 0 103 -33v-100q-45 33 -103 33q-59 0 -75 -18q-26 -32 -26 -58q0 -77 85 -104q29 -10 137 19v-102zM174 0v1556h165v-1556h-165z" />
<glyph unicode="&#x623;" horiz-adv-x="561" arabic-form="final" d="M174 371v1185h165v-1173q0 -106 44 -155q40 -44 129 -44h68v-184h-117q-139 0 -211 92q-78 101 -78 279zM98 1665v100l70 18q-40 20 -54 56q-14 37 -14 82q0 96 50 139q52 45 135 45q56 0 103 -33v-100q-45 33 -103 33q-59 0 -75 -18q-26 -32 -26 -58q0 -77 85 -104 q29 -10 137 19v-102z" />
<glyph unicode="&#x624;" horiz-adv-x="890" arabic-form="isolated" d="M246 765v100l70 18q-40 20 -54 56q-14 37 -14 82q0 96 50 139q52 45 135 45q56 0 103 -33v-100q-45 33 -103 33q-59 0 -75 -18q-26 -32 -26 -58q0 -77 85 -104q29 -10 137 19v-102zM-76 -316q323 0 443 76q151 95 207 243q-106 0 -146 10q-136 33 -172 67 q-104 98 -104 235q0 141 80 228q94 103 217 103q80 0 145 -51q117 -90 140 -233q15 -102 15 -178q0 -308 -155 -468q-86 -88 -169 -130q-173 -86 -501 -86v184zM327 326q0 -51 46 -98q42 -44 215 -44q0 184 -78 243q-33 25 -65 25q-57 0 -97 -57q-21 -33 -21 -69z" />
<glyph unicode="&#x624;" horiz-adv-x="952" arabic-form="final" d="M-76 -316q324 0 443 76q151 95 207 243q-106 3 -146 10q-126 24 -172 67q-95 89 -104 224q-2 31 7 88q25 155 183 230q53 25 112 24q78 -2 140 -51q120 -92 140 -233q11 -83 15 -178h221v-184h-174l-63 1q-23 -156 -139 -285q-75 -83 -169 -130q-173 -86 -501 -86v184z M330 357q-15 -75 43 -129q42 -40 215 -44q0 76 -15 133q-21 80 -63 110q-54 41 -108 15q-60 -29 -72 -85zM246 765v100l70 18q-40 20 -54 56q-14 37 -14 82q0 96 50 139q52 45 135 45q56 0 103 -33v-100q-45 33 -103 33q-59 0 -75 -18q-26 -32 -26 -58q0 -77 85 -104 q29 -10 137 19v-102z" />
<glyph unicode="&#x625;" horiz-adv-x="512" arabic-form="isolated" d="M98 -500v100l70 18q-40 20 -54 56q-14 37 -14 82q0 96 50 139q52 45 135 45q56 0 103 -33v-100q-45 33 -103 33q-59 0 -75 -18q-26 -32 -26 -58q0 -77 85 -104q29 -10 137 19v-102zM174 0v1556h165v-1556h-165z" />
<glyph unicode="&#x625;" horiz-adv-x="561" arabic-form="final" d="M174 371v1185h165v-1173q0 -106 44 -155q40 -44 129 -44h68v-184h-117q-139 0 -211 92q-78 101 -78 279zM98 -500v100l70 18q-40 20 -54 56q-14 37 -14 82q0 96 50 139q52 45 135 45q56 0 103 -33v-100q-45 33 -103 33q-59 0 -75 -18q-26 -32 -26 -58q0 -77 85 -104 q29 -10 137 19v-102z" />
<glyph unicode="&#x626;" horiz-adv-x="1442" arabic-form="isolated" d="M291 765v100l70 18q-40 20 -54 56q-14 37 -14 82q0 96 50 139q52 45 135 45q56 0 103 -33v-100q-45 33 -103 33q-59 0 -75 -18q-26 -32 -26 -58q0 -77 85 -104q29 -10 137 19v-102zM117 122q0 117 57 230h165q-59 -131 -58 -230q2 -147 149 -192q88 -26 142 -20 q114 11 230 35q159 33 235 113q53 56 53 109q0 74 -114 103q-59 15 -162 61q-60 27 -112 78q-58 57 -58 172q0 150 170 224q86 37 179.5 37t180.5 -42q126 -61 151 -234h-166q-11 61 -71 94q-36 20 -98 22q-70 2 -126 -37q-54 -38 -54 -72q0 -55 112 -97q224 -83 275 -147 q69 -85 71 -174q1 -68 -39 -143q-91 -170 -400 -243q-159 -38 -267 -38q-116 0 -181 26q-264 104 -264 365z" />
<glyph unicode="&#x626;" horiz-adv-x="1536" arabic-form="final" d="M117 134q0 153 57 243h165q-58 -90 -58 -243q0 -114 149 -192q60 -31 221 -31q82 0 151 8q134 15 188 48q82 51 82 84q-1 43 -43 56q-26 8 -53 48q-40 59 -40 120q0 65 47 125q72 94 147 108q27 6 65 6q105 0 184 -134q115 -196 144 -196h31v-184h-31q-103 0 -204 172 q-97 165 -120 165q-33 0 -46 -6q-41 -17 -41 -52q0 -48 59 -75q66 -30 68 -153q3 -98 -99 -184q-115 -96 -311 -127q-80 -12 -174 -12q-169 0 -274 41q-264 103 -264 365zM381 515v100l70 18q-40 20 -54 56q-14 37 -14 82q0 96 50 139q52 45 135 45q56 0 103 -33v-100 q-45 33 -103 33q-59 0 -75 -18q-26 -32 -26 -58q0 -77 85 -104q29 -10 137 19v-102z" />
<glyph unicode="&#x626;" horiz-adv-x="513" arabic-form="initial" d="M-18 0v184h32q89 0 128 44q44 49 44 155v217h166v-217q0 -187 -83 -297q-65 -86 -206 -86h-81zM110 815v100l70 18q-40 20 -54 56q-14 37 -14 82q0 96 50 139q52 45 135 45q56 0 103 -33v-100q-45 33 -103 33q-59 0 -75 -18q-26 -32 -26 -58q0 -77 85 -104q29 -10 137 19 v-102z" />
<glyph unicode="&#x626;" horiz-adv-x="556" arabic-form="medial" d="M-18 0v184h32q89 0 128 44q44 49 44 155v217h166v-217q0 -106 44 -155q40 -44 129 -44h49v-184h-99q-135 0 -206 86q-69 -86 -206 -86h-81zM110 815v100l70 18q-40 20 -54 56q-14 37 -14 82q0 96 50 139q52 45 135 45q56 0 103 -33v-100q-45 33 -103 33q-59 0 -75 -18 q-26 -32 -26 -58q0 -77 85 -104q29 -10 137 19v-102z" />
<glyph unicode="&#x627;" horiz-adv-x="512" arabic-form="isolated" d="M174 0v1556h165v-1556h-165z" />
<glyph unicode="&#x627;" horiz-adv-x="561" arabic-form="final" d="M174 371v1185h165v-1173q0 -106 44 -155q40 -44 129 -44h68v-184h-117q-139 0 -211 92q-78 101 -78 279z" />
<glyph unicode="&#x628;" horiz-adv-x="1735" arabic-form="isolated" d="M742 -350v150h135v-150h-135zM117 383q0 138 57 230h165q-58 -94 -58 -230q0 -125 183 -192q93 -34 229 -34q167 0 405 57q230 54 290 167q49 93 49 168q0 59 -22 120h165q14 -90 14 -160q0 -135 -68 -236q-116 -171 -401 -235q-257 -58 -423 -58q-172 0 -288 38 q-297 97 -297 365z" />
<glyph unicode="&#x628;" horiz-adv-x="1809" arabic-form="final" d="M117 383q-1 138 57 230h165q-58 -94 -58 -230q0 -125 183 -192q93 -34 229 -34q234 2 405 57q179 58 290 167q53 52 53 171q0 62 -26 117h165q18 -75 18 -165q0 -208 62 -267q57 -53 114 -53h54v-184h-92q-104 0 -168 73q-72 83 -94 149q-139 -131 -349 -184 q-233 -58 -423 -58q-176 0 -288 38q-296 101 -297 365zM742 -350v150h135v-150h-135z" />
<glyph unicode="&#x628;" horiz-adv-x="513" arabic-form="initial" d="M-18 0v184h32q89 0 128 44q44 49 44 155v217h166v-217q0 -187 -83 -297q-65 -86 -206 -86h-81zM202 -300v150h135v-150h-135z" />
<glyph unicode="&#x628;" horiz-adv-x="556" arabic-form="medial" d="M-18 0v184h32q89 0 128 44q44 49 44 155v217h166v-217q0 -106 44 -155q40 -44 129 -44h49v-184h-99q-135 0 -206 86q-69 -86 -206 -86h-81zM202 -300v150h135v-150h-135z" />
<glyph unicode="&#x629;" horiz-adv-x="965" arabic-form="isolated" d="M225 900v150h135v-150h-135zM450 900v150h135v-150h-135zM125 290q0 181 33 259q76 185 208 185q178 0 342 -160q127 -124 127 -272q-1 -200 -133 -275q-148 -85 -267 -85q-87 0 -160 35q-150 74 -150 313zM287 275q1 -82 51 -126q51 -44 102 -44q82 0 166 57 q67 46 67 131q0 77 -59 142q-111 120 -215 119q-60 0 -89 -87q-24 -69 -23 -192z" />
<glyph unicode="&#x629;" horiz-adv-x="988" arabic-form="final" d="M130 285q0 173 184 300q98 68 234 83q-4 39 -6 82h165q1 -168 34 -342q19 -101 69 -180q28 -44 129 -44h67v-184h-117q-81 0 -147 51q-40 31 -74 90q-124 -73 -265 -73q-50 0 -102 15q-171 48 -171 202zM281 294q1 -41 82 -66t245 54q-13 42 -25 91q-11 50 -22 151 q-108 -12 -182 -79q-100 -89 -98 -151zM315 900v150h135v-150h-135zM540 900v150h135v-150h-135z" />
<glyph unicode="&#x62a;" horiz-adv-x="1735" arabic-form="isolated" d="M630 650v150h135v-150h-135zM855 650v150h135v-150h-135zM117 383q0 138 57 230h165q-58 -94 -58 -230q0 -125 183 -192q93 -34 229 -34q167 0 405 57q230 54 290 167q49 93 49 168q0 59 -22 120h165q14 -90 14 -160q0 -135 -68 -236q-116 -171 -401 -235 q-257 -58 -423 -58q-172 0 -288 38q-297 97 -297 365z" />
<glyph unicode="&#x62a;" horiz-adv-x="1809" arabic-form="final" d="M117 383q-1 138 57 230h165q-58 -94 -58 -230q0 -125 183 -192q93 -34 229 -34q234 2 405 57q179 58 290 167q53 52 53 171q0 62 -26 117h165q18 -75 18 -165q0 -208 62 -267q57 -53 114 -53h54v-184h-92q-104 0 -168 73q-72 83 -94 149q-139 -131 -349 -184 q-233 -58 -423 -58q-176 0 -288 38q-296 101 -297 365zM630 650v150h135v-150h-135zM855 650v150h135v-150h-135z" />
<glyph unicode="&#x62a;" horiz-adv-x="513" arabic-form="initial" d="M-18 0v184h32q89 0 128 44q44 49 44 155v217h166v-217q0 -187 -83 -297q-65 -86 -206 -86h-81zM89 850v150h135v-150h-135zM314 850v150h135v-150h-135z" />
<glyph unicode="&#x62a;" horiz-adv-x="556" arabic-form="medial" d="M-18 0v184h32q89 0 128 44q44 49 44 155v217h166v-217q0 -106 44 -155q40 -44 129 -44h49v-184h-99q-135 0 -206 86q-69 -86 -206 -86h-81zM89 850v150h135v-150h-135zM314 850v150h135v-150h-135z" />
<glyph unicode="&#x62b;" horiz-adv-x="1735" arabic-form="isolated" d="M630 650v150h135v-150h-135zM742 900v150h136v-150h-136zM855 650v150h135v-150h-135zM117 383q0 138 57 230h165q-58 -94 -58 -230q0 -125 183 -192q93 -34 229 -34q167 0 405 57q230 54 290 167q49 93 49 168q0 59 -22 120h165q14 -90 14 -160q0 -135 -68 -236 q-116 -171 -401 -235q-257 -58 -423 -58q-172 0 -288 38q-297 97 -297 365z" />
<glyph unicode="&#x62b;" horiz-adv-x="1809" arabic-form="final" d="M117 383q-1 138 57 230h165q-58 -94 -58 -230q0 -125 183 -192q93 -34 229 -34q234 2 405 57q179 58 290 167q53 52 53 171q0 62 -26 117h165q18 -75 18 -165q0 -208 62 -267q57 -53 114 -53h54v-184h-92q-104 0 -168 73q-72 83 -94 149q-139 -131 -349 -184 q-233 -58 -423 -58q-176 0 -288 38q-296 101 -297 365zM630 650v150h135v-150h-135zM742 900v150h136v-150h-136zM855 650v150h135v-150h-135z" />
<glyph unicode="&#x62b;" horiz-adv-x="513" arabic-form="initial" d="M-18 0v184h32q89 0 128 44q44 49 44 155v217h166v-217q0 -187 -83 -297q-65 -86 -206 -86h-81zM89 850v150h135v-150h-135zM201 1100v150h136v-150h-136zM314 850v150h135v-150h-135z" />
<glyph unicode="&#x62b;" horiz-adv-x="556" arabic-form="medial" d="M-18 0v184h32q89 0 128 44q44 49 44 155v217h166v-217q0 -106 44 -155q40 -44 129 -44h49v-184h-99q-135 0 -206 86q-69 -86 -206 -86h-81zM89 850v150h135v-150h-135zM201 1100v150h136v-150h-136zM314 850v150h135v-150h-135z" />
<glyph unicode="&#x62c;" horiz-adv-x="1189" arabic-form="isolated" d="M698 25v150h135v-150h-135zM141 623v184q249 63 424 63q263 0 439 -54v-154q-264 0 -458 -167q-201 -174 -201 -435q0 -135 66 -231q115 -164 413 -164q173 0 364 118v-184q-135 -99 -360 -99q-376 0 -528 194q-118 150 -118 374q0 258 191 481q86 101 209 153 q-91 0 -234 -19q-113 -15 -207 -60z" />
<glyph unicode="&#x62c;" horiz-adv-x="1189" arabic-form="final" d="M141 623v184q245 63 419 63q264 0 444 -54v-154q-98 0 -126 -13l26 -91q46 -160 111 -255q81 -119 157 -119h36v-184h-44q-116 0 -227 150q-74 100 -129 256q-5 15 -71 193q-103 -24 -191 -104q-201 -183 -201 -435q0 -137 66 -231q116 -164 413 -164q173 0 364 118v-184 q-135 -99 -360 -99q-376 0 -528 194q-118 150 -118 374q0 258 191 481q86 101 209 153h-22q-86 0 -212 -19q-121 -19 -207 -60zM630 -50v150h135v-150h-135z" />
<glyph unicode="&#x62c;" horiz-adv-x="1139" arabic-form="initial" d="M-18 0v184h90q204 0 320 72q94 58 198 164q85 86 176 121q-75 23 -168 46q-76 19 -238 35q-74 7 -219 1v184q65 7 133 8q145 0 300 -35q232 -52 430 -150v-154q-68 -24 -147 -76q-150 -98 -216 -164q-131 -129 -198 -156q-199 -80 -346 -80h-115zM472 -300v150h135v-150 h-135z" />
<glyph unicode="&#x62c;" horiz-adv-x="1189" arabic-form="medial" d="M-18 0v184h90q204 0 320 72q94 58 198 164q85 86 176 121q-75 23 -168 46q-76 19 -238 35q-74 7 -219 1v184q65 7 133 8q145 0 300 -35q232 -52 430 -150v-154q-58 -20 -124 -61q45 -78 72 -112q94 -119 196 -119h60v-184h-78q-188 0 -301 168q-36 54 -89 151 q-62 -46 -99 -83q-131 -129 -198 -156q-199 -80 -346 -80h-115zM472 -300v150h135v-150h-135z" />
<glyph unicode="&#x62d;" horiz-adv-x="1189" arabic-form="isolated" d="M141 623v184q249 63 424 63q263 0 439 -54v-154q-264 0 -458 -167q-201 -174 -201 -435q0 -135 66 -231q115 -164 413 -164q173 0 364 118v-184q-135 -99 -360 -99q-376 0 -528 194q-118 150 -118 374q0 258 191 481q86 101 209 153q-91 0 -234 -19q-113 -15 -207 -60z " />
<glyph unicode="&#x62d;" horiz-adv-x="1189" arabic-form="final" d="M141 623v184q245 63 419 63q264 0 444 -54v-154q-98 0 -126 -13l26 -91q46 -160 111 -255q81 -119 157 -119h36v-184h-44q-116 0 -227 150q-74 100 -129 256q-5 15 -71 193q-103 -24 -191 -104q-201 -183 -201 -435q0 -137 66 -231q116 -164 413 -164q173 0 364 118v-184 q-135 -99 -360 -99q-376 0 -528 194q-118 150 -118 374q0 258 191 481q86 101 209 153h-22q-86 0 -212 -19q-121 -19 -207 -60z" />
<glyph unicode="&#x62d;" horiz-adv-x="1139" arabic-form="initial" d="M-18 0v184h90q204 0 320 72q94 58 198 164q85 86 176 121q-75 23 -168 46q-76 19 -238 35q-74 7 -219 1v184q65 7 133 8q145 0 300 -35q232 -52 430 -150v-154q-68 -24 -147 -76q-150 -98 -216 -164q-131 -129 -198 -156q-199 -80 -346 -80h-115z" />
<glyph unicode="&#x62d;" horiz-adv-x="1189" arabic-form="medial" d="M-18 0v184h90q204 0 320 72q94 58 198 164q85 86 176 121q-75 23 -168 46q-76 19 -238 35q-74 7 -219 1v184q65 7 133 8q145 0 300 -35q232 -52 430 -150v-154q-58 -20 -124 -61q45 -78 72 -112q94 -119 196 -119h60v-184h-78q-188 0 -301 168q-36 54 -89 151 q-62 -46 -99 -83q-131 -129 -198 -156q-199 -80 -346 -80h-115z" />
<glyph unicode="&#x62e;" horiz-adv-x="1189" arabic-form="isolated" d="M518 1050v150h135v-150h-135zM141 623v184q249 63 424 63q263 0 439 -54v-154q-264 0 -458 -167q-201 -174 -201 -435q0 -135 66 -231q115 -164 413 -164q173 0 364 118v-184q-135 -99 -360 -99q-376 0 -528 194q-118 150 -118 374q0 258 191 481q86 101 209 153 q-91 0 -234 -19q-113 -15 -207 -60z" />
<glyph unicode="&#x62e;" horiz-adv-x="1189" arabic-form="final" d="M141 623v184q245 63 419 63q264 0 444 -54v-154q-98 0 -126 -13l26 -91q46 -160 111 -255q81 -119 157 -119h36v-184h-44q-116 0 -227 150q-74 100 -129 256q-5 15 -71 193q-103 -24 -191 -104q-201 -183 -201 -435q0 -137 66 -231q116 -164 413 -164q173 0 364 118v-184 q-135 -99 -360 -99q-376 0 -528 194q-118 150 -118 374q0 258 191 481q86 101 209 153h-22q-86 0 -212 -19q-121 -19 -207 -60zM518 1050v150h135v-150h-135z" />
<glyph unicode="&#x62e;" horiz-adv-x="1139" arabic-form="initial" d="M-18 0v184h90q204 0 320 72q94 58 198 164q85 86 176 121q-75 23 -168 46q-76 19 -238 35q-74 7 -219 1v184q65 7 133 8q145 0 300 -35q232 -52 430 -150v-154q-68 -24 -147 -76q-150 -98 -216 -164q-131 -129 -198 -156q-199 -80 -346 -80h-115zM472 950v150h135v-150 h-135z" />
<glyph unicode="&#x62e;" horiz-adv-x="1189" arabic-form="medial" d="M-18 0v184h90q204 0 320 72q94 58 198 164q85 86 176 121q-75 23 -168 46q-76 19 -238 35q-74 7 -219 1v184q65 7 133 8q145 0 300 -35q232 -52 430 -150v-154q-58 -20 -124 -61q45 -78 72 -112q94 -119 196 -119h60v-184h-78q-188 0 -301 168q-36 54 -89 151 q-62 -46 -99 -83q-131 -129 -198 -156q-199 -80 -346 -80h-115zM472 950v150h135v-150h-135z" />
<glyph unicode="&#x62f;" horiz-adv-x="820" arabic-form="isolated" d="M112 0v184q104 -42 180 -42q29 0 60 9q155 49 186 161q7 27 7 69q0 78 -54 194q-59 129 -215 275h205q101 -91 161 -215q74 -152 74 -257q0 -99 -29 -174q-72 -194 -308 -235q-41 -7 -82 -7q-92 0 -185 38z" />
<glyph unicode="&#x62f;" horiz-adv-x="967" arabic-form="final" d="M112 0v184q104 -42 180 -42q29 0 60 9q155 49 186 161q7 27 7 69q0 68 -54 194q-51 122 -215 275h205q87 -78 161 -215q73 -134 73 -251q0 -73 74 -156q40 -44 129 -44h68v-184h-118q-132 0 -219 130q-84 -128 -270 -161q-41 -7 -82 -7q-92 0 -185 38z" />
<glyph unicode="&#x630;" horiz-adv-x="820" arabic-form="isolated" d="M292 1050v150h135v-150h-135zM112 0v184q104 -42 180 -42q29 0 60 9q155 49 186 161q7 27 7 69q0 78 -54 194q-59 129 -215 275h205q101 -91 161 -215q74 -152 74 -257q0 -99 -29 -174q-72 -194 -308 -235q-41 -7 -82 -7q-92 0 -185 38z" />
<glyph unicode="&#x630;" horiz-adv-x="967" arabic-form="final" d="M112 0v184q104 -42 180 -42q29 0 60 9q155 49 186 161q7 27 7 69q0 68 -54 194q-51 122 -215 275h205q87 -78 161 -215q73 -134 73 -251q0 -73 74 -156q40 -44 129 -44h68v-184h-118q-132 0 -219 130q-84 -128 -270 -161q-41 -7 -82 -7q-92 0 -185 38zM292 1050v150h135 v-150h-135z" />
<glyph unicode="&#x631;" horiz-adv-x="890" arabic-form="isolated" d="M-76 -316q273 0 456 128q196 138 228 346q8 58 8 130q0 126 -47 262h165q45 -118 45 -250q0 -82 -7 -144q-41 -350 -303 -505q-256 -151 -545 -151v184z" />
<glyph unicode="&#x631;" horiz-adv-x="1017" arabic-form="final" d="M-76 -316q273 0 456 128q196 138 228 346q8 58 8 130q0 126 -47 262h165q27 -112 30 -142q9 -103 75 -180q38 -44 129 -44h67v-184h-117q-117 0 -162 62q-61 -278 -287 -411q-256 -151 -545 -151v184z" />
<glyph unicode="&#x632;" horiz-adv-x="890" arabic-form="isolated" d="M562 800v150h135v-150h-135zM-76 -316q273 0 456 128q196 138 228 346q8 58 8 130q0 126 -47 262h165q45 -118 45 -250q0 -82 -7 -144q-41 -350 -303 -505q-256 -151 -545 -151v184z" />
<glyph unicode="&#x632;" horiz-adv-x="1017" arabic-form="final" d="M-76 -316q273 0 456 128q196 138 228 346q8 58 8 130q0 126 -47 262h165q27 -112 30 -142q9 -103 75 -180q38 -44 129 -44h67v-184h-117q-117 0 -162 62q-61 -278 -287 -411q-256 -151 -545 -151v184zM562 800v150h135v-150h-135z" />
<glyph unicode="&#x633;" horiz-adv-x="2250" arabic-form="isolated" d="M117 -72q0 246 95 426h165q-97 -206 -96 -426q1 -179 133 -217q86 -24 158 -24q89 0 174 37q109 48 194 206q57 108 56 250q-1 125 -15 186l-58 234h166l32 -156q15 -74 40 -134q53 -129 157 -129q73 0 113 122q33 103 33 297h166q0 -205 17 -255q58 -169 157 -169 q127 0 127 280v294h166v-342q0 -199 -83 -312q-67 -92 -159 -116q-33 -9 -62 -9q-66 0 -109 25q-124 70 -140 193q-44 -159 -129 -189q-45 -15 -108 -18q-119 -6 -159 62q-21 -179 -97 -286q-119 -170 -293 -232q-72 -26 -180 -26q-115 1 -214 29q-247 71 -247 399z" />
<glyph unicode="&#x633;" horiz-adv-x="2349" arabic-form="final" d="M117 -72q0 246 95 426h165q-97 -206 -96 -426q1 -179 133 -217q86 -24 158 -24q89 0 174 37q109 48 194 206q57 108 56 250q-1 125 -15 186l-58 234h166l32 -156q15 -74 40 -134q52 -126 157 -129q70 -2 113 122q33 95 33 297h166q0 -205 17 -255q58 -169 157 -169 q127 0 127 280v294h166v-342q0 -97 75 -180q39 -44 128 -44h68v-184h-117q-131 0 -237 96q-61 -91 -159 -116q-33 -9 -62 -9q-66 0 -109 25q-124 70 -140 193q-44 -159 -129 -189q-58 -20 -108 -18q-123 2 -159 62q-21 -179 -97 -286q-119 -170 -293 -232q-72 -26 -180 -26 q-115 1 -214 29q-247 71 -247 399z" />
<glyph unicode="&#x633;" arabic-form="initial" d="M-18 0v184h68q89 0 128 44q72 80 72 180v192h166v-156q0 -64 39 -164q39 -99 133 -99q98 0 137 122q34 103 34 297h165q0 -205 17 -255q58 -170 157 -169q128 2 128 280v294h165v-342q0 -199 -82 -312q-68 -92 -160 -116q-33 -9 -65 -9q-56 0 -106 25q-123 61 -139 193 q-43 -156 -130 -189q-61 -24 -119 -24q-89 0 -154 49q-54 40 -90 113q-39 -59 -90 -92q-68 -46 -157 -46h-117z" />
<glyph unicode="&#x633;" horiz-adv-x="1644" arabic-form="medial" d="M-18 0v184h68q89 0 128 44q72 80 72 180v192h166v-156q0 -64 39 -164q39 -99 133 -99q98 0 137 122q34 103 34 297h165q0 -205 17 -255q58 -170 157 -169q128 2 128 280v294h165v-342q0 -97 75 -180q40 -44 129 -44h67v-184h-117q-130 0 -236 96q-62 -90 -160 -116 q-33 -9 -65 -9q-56 0 -106 25q-123 61 -139 193q-43 -156 -130 -189q-61 -24 -119 -24q-89 0 -154 49q-54 40 -90 113q-39 -59 -90 -92q-68 -46 -157 -46h-117z" />
<glyph unicode="&#x634;" horiz-adv-x="2250" arabic-form="isolated" d="M1125 800v150h135v-150h-135zM1237 1050v150h136v-150h-136zM1350 800v150h135v-150h-135zM117 -72q0 246 95 426h165q-97 -206 -96 -426q1 -179 133 -217q86 -24 158 -24q89 0 174 37q109 48 194 206q57 108 56 250q-1 125 -15 186l-58 234h166l32 -156q15 -74 40 -134 q53 -129 157 -129q73 0 113 122q33 103 33 297h166q0 -205 17 -255q58 -169 157 -169q127 0 127 280v294h166v-342q0 -199 -83 -312q-67 -92 -159 -116q-33 -9 -62 -9q-66 0 -109 25q-124 70 -140 193q-44 -159 -129 -189q-45 -15 -108 -18q-119 -6 -159 62 q-21 -179 -97 -286q-119 -170 -293 -232q-72 -26 -180 -26q-115 1 -214 29q-247 71 -247 399z" />
<glyph unicode="&#x634;" horiz-adv-x="2349" arabic-form="final" d="M117 -72q0 246 95 426h165q-97 -206 -96 -426q1 -179 133 -217q86 -24 158 -24q89 0 174 37q109 48 194 206q57 108 56 250q-1 125 -15 186l-58 234h166l32 -156q15 -74 40 -134q52 -126 157 -129q70 -2 113 122q33 95 33 297h166q0 -205 17 -255q58 -169 157 -169 q127 0 127 280v294h166v-342q0 -97 75 -180q39 -44 128 -44h68v-184h-117q-131 0 -237 96q-61 -91 -159 -116q-33 -9 -62 -9q-66 0 -109 25q-124 70 -140 193q-44 -159 -129 -189q-58 -20 -108 -18q-123 2 -159 62q-21 -179 -97 -286q-119 -170 -293 -232q-72 -26 -180 -26 q-115 1 -214 29q-247 71 -247 399zM1125 800v150h135v-150h-135zM1237 1050v150h136v-150h-136zM1350 800v150h135v-150h-135z" />
<glyph unicode="&#x634;" arabic-form="initial" d="M-18 0v184h68q89 0 128 44q72 80 72 180v192h166v-156q0 -64 39 -164q39 -99 133 -99q98 0 137 122q34 103 34 297h165q0 -205 17 -255q58 -170 157 -169q128 2 128 280v294h165v-342q0 -199 -82 -312q-68 -92 -160 -116q-33 -9 -65 -9q-56 0 -106 25q-123 61 -139 193 q-43 -156 -130 -189q-61 -24 -119 -24q-89 0 -154 49q-54 40 -90 113q-39 -59 -90 -92q-68 -46 -157 -46h-117zM585 800v150h135v-150h-135zM697 1050v150h136v-150h-136zM810 800v150h135v-150h-135z" />
<glyph unicode="&#x634;" horiz-adv-x="1644" arabic-form="medial" d="M-18 0v184h68q89 0 128 44q72 80 72 180v192h166v-156q0 -64 39 -164q39 -99 133 -99q98 0 137 122q34 103 34 297h165q0 -205 17 -255q58 -170 157 -169q128 2 128 280v294h165v-342q0 -97 75 -180q40 -44 129 -44h67v-184h-117q-130 0 -236 96q-62 -90 -160 -116 q-33 -9 -65 -9q-56 0 -106 25q-123 61 -139 193q-43 -156 -130 -189q-61 -24 -119 -24q-89 0 -154 49q-54 40 -90 113q-39 -59 -90 -92q-68 -46 -157 -46h-117zM585 800v150h135v-150h-135zM697 1050v150h136v-150h-136zM810 800v150h135v-150h-135z" />
<glyph unicode="&#x635;" horiz-adv-x="2228" arabic-form="isolated" d="M117 -72q0 246 95 426h165q-97 -206 -96 -426q1 -179 133 -217q86 -24 158 -24q92 0 174 37q146 68 185 206q29 108 29 235q0 147 -35 285h154q-1 -15 12 -70q9 -40 45 -90q103 146 214 254q113 110 230 164q71 34 144 33q112 -2 199 -39q168 -71 168 -304 q0 -169 -166 -278q-182 -120 -437 -120h-249q-34 0 -81 30q-40 26 -40 42q0 -186 -67 -314q-79 -155 -293 -232q-72 -26 -180 -26q-115 1 -214 29q-247 71 -247 399zM1260 184h168q214 0 330 63q168 91 167 161q-2 135 -125 154q-33 5 -76 5q-69 0 -182 -81 q-152 -108 -282 -302z" />
<glyph unicode="&#x635;" horiz-adv-x="2258" arabic-form="final" d="M117 -72q0 246 95 426h165q-97 -206 -96 -426q1 -179 133 -217q86 -24 158 -24q92 0 174 37q146 68 185 206q29 108 29 235q0 147 -35 285h154q-1 -15 12 -70q9 -40 45 -90q103 146 214 254q97 94 230 164q64 34 144 33q112 -2 199 -39q168 -71 168 -304q0 -77 -38 -147 q13 -12 27 -23q55 -44 129 -44h67v-184h-117q-118 0 -211 92l-25 26q-183 -118 -435 -118h-249q-34 0 -81 30q-40 26 -40 42q0 -186 -67 -314q-79 -155 -293 -232q-72 -26 -180 -26q-115 1 -214 29q-247 71 -247 399zM1260 184h168q214 0 330 63q168 91 167 161 q-2 135 -125 154q-33 5 -76 5q-69 0 -182 -81q-152 -108 -282 -302z" />
<glyph unicode="&#x635;" horiz-adv-x="1565" arabic-form="initial" d="M-18 0v184h68q89 0 128 44q72 80 72 180v114h166v-78q0 -24 8 -64t48 -90q91 134 177 218q137 137 267 200q68 33 144 33q104 0 200 -39q167 -68 167 -304q0 -169 -165 -278q-182 -120 -438 -120h-248q-67 0 -137 42q-58 35 -93 96q-92 -138 -247 -138h-117zM597 184h168 q214 0 329 63q168 91 168 161q0 135 -125 154q-33 5 -77 5q-68 0 -182 -81q-151 -108 -281 -302z" />
<glyph unicode="&#x635;" horiz-adv-x="1598" arabic-form="medial" d="M-18 0v184h68q89 0 128 44q72 80 72 180v114h166v-78q0 -24 8 -64t48 -90q91 134 177 218q137 137 267 200q68 33 144 33q102 0 200 -39q171 -68 171 -304q0 -75 -38 -147q13 -12 27 -23q55 -44 129 -44h67v-184h-117q-117 0 -210 92l-25 26q-184 -118 -436 -118h-252 q-67 0 -137 42q-58 35 -93 96q-92 -138 -247 -138h-117zM597 184h168q214 0 329 63q168 91 168 161q0 135 -125 154q-33 5 -77 5q-68 0 -182 -81q-151 -108 -281 -302z" />
<glyph unicode="&#x636;" horiz-adv-x="2228" arabic-form="isolated" d="M1148 800v150h135v-150h-135zM117 -72q0 246 95 426h165q-97 -206 -96 -426q1 -179 133 -217q86 -24 158 -24q92 0 174 37q146 68 185 206q29 108 29 235q0 147 -35 285h154q-1 -15 12 -70q9 -40 45 -90q103 146 214 254q113 110 230 164q71 34 144 33q112 -2 199 -39 q168 -71 168 -304q0 -169 -166 -278q-182 -120 -437 -120h-249q-34 0 -81 30q-40 26 -40 42q0 -186 -67 -314q-79 -155 -293 -232q-72 -26 -180 -26q-115 1 -214 29q-247 71 -247 399zM1260 184h168q214 0 330 63q168 91 167 161q-2 135 -125 154q-33 5 -76 5 q-69 0 -182 -81q-152 -108 -282 -302z" />
<glyph unicode="&#x636;" horiz-adv-x="2258" arabic-form="final" d="M117 -72q0 246 95 426h165q-97 -206 -96 -426q1 -179 133 -217q86 -24 158 -24q92 0 174 37q146 68 185 206q29 108 29 235q0 147 -35 285h154q-1 -15 12 -70q9 -40 45 -90q103 146 214 254q97 94 230 164q64 34 144 33q112 -2 199 -39q168 -71 168 -304q0 -77 -38 -147 q13 -12 27 -23q55 -44 129 -44h67v-184h-117q-118 0 -211 92l-25 26q-183 -118 -435 -118h-249q-34 0 -81 30q-40 26 -40 42q0 -186 -67 -314q-79 -155 -293 -232q-72 -26 -180 -26q-115 1 -214 29q-247 71 -247 399zM1260 184h168q214 0 330 63q168 91 167 161 q-2 135 -125 154q-33 5 -76 5q-69 0 -182 -81q-152 -108 -282 -302zM1148 800v150h135v-150h-135z" />
<glyph unicode="&#x636;" horiz-adv-x="1565" arabic-form="initial" d="M-18 0v184h68q89 0 128 44q72 80 72 180v114h166v-78q0 -24 8 -64t48 -90q91 134 177 218q137 137 267 200q68 33 144 33q104 0 200 -39q167 -68 167 -304q0 -169 -165 -278q-182 -120 -438 -120h-248q-67 0 -137 42q-58 35 -93 96q-92 -138 -247 -138h-117zM597 184h168 q214 0 329 63q168 91 168 161q0 135 -125 154q-33 5 -77 5q-68 0 -182 -81q-151 -108 -281 -302zM428 800v150h135v-150h-135z" />
<glyph unicode="&#x636;" horiz-adv-x="1598" arabic-form="medial" d="M-18 0v184h68q89 0 128 44q72 80 72 180v114h166v-78q0 -24 8 -64t48 -90q91 134 177 218q137 137 267 200q68 33 144 33q102 0 200 -39q171 -68 171 -304q0 -75 -38 -147q13 -12 27 -23q55 -44 129 -44h67v-184h-117q-117 0 -210 92l-25 26q-184 -118 -436 -118h-252 q-67 0 -137 42q-58 35 -93 96q-92 -138 -247 -138h-117zM597 184h168q214 0 329 63q168 91 168 161q0 135 -125 154q-33 5 -77 5q-68 0 -182 -81q-151 -108 -281 -302zM428 800v150h135v-150h-135z" />
<glyph unicode="&#x637;" horiz-adv-x="1704" arabic-form="isolated" d="M130 0v184h330v1372h166v-1266q195 319 443 418q83 33 144 33q108 0 200 -39q167 -69 167 -304q0 -169 -165 -278q-182 -120 -438 -120h-517h-330zM750 184h168q213 0 329 63q169 93 168 161q-2 135 -125 154q-34 5 -77 5q-72 0 -182 -81q-159 -120 -281 -302z" />
<glyph unicode="&#x637;" horiz-adv-x="1749" arabic-form="final" d="M130 0v184h330v1372h166v-1266q195 319 443 418q83 33 144 33q105 0 200 -39q169 -69 169 -304q0 -77 -38 -147q13 -12 27 -23q55 -44 129 -44h68v-184h-117q-118 0 -211 92l-25 26q-184 -118 -436 -118h-519h-330zM750 184h168q213 0 329 63q169 93 168 161 q-2 135 -125 154q-34 5 -77 5q-72 0 -182 -81q-159 -120 -281 -302z" />
<glyph unicode="&#x637;" horiz-adv-x="1467" arabic-form="initial" d="M-18 0v184h240v1372h166v-1266q195 319 444 418q82 33 144 33q105 0 199 -39q168 -69 168 -304q0 -169 -166 -278q-182 -120 -437 -120h-518h-240zM512 184h168q214 0 330 63q168 93 167 161q-2 135 -125 154q-33 5 -76 5q-72 0 -182 -81q-160 -120 -282 -302z" />
<glyph unicode="&#x637;" horiz-adv-x="1512" arabic-form="medial" d="M-18 0v184h240v1372h166v-1266q195 319 444 418q82 33 144 33q105 0 199 -39q170 -69 170 -304q0 -77 -38 -147q12 -12 27 -23q55 -44 128 -44h68v-184h-117q-118 0 -211 92l-25 26q-183 -118 -435 -118h-520h-240zM512 184h168q214 0 330 63q168 93 167 161 q-2 135 -125 154q-33 5 -76 5q-72 0 -182 -81q-160 -120 -282 -302z" />
<glyph unicode="&#x638;" horiz-adv-x="1704" arabic-form="isolated" d="M878 850v150h135v-150h-135zM130 0v184h330v1372h166v-1266q195 319 443 418q83 33 144 33q108 0 200 -39q167 -69 167 -304q0 -169 -165 -278q-182 -120 -438 -120h-517h-330zM750 184h168q213 0 329 63q169 93 168 161q-2 135 -125 154q-34 5 -77 5q-72 0 -182 -81 q-159 -120 -281 -302z" />
<glyph unicode="&#x638;" horiz-adv-x="1749" arabic-form="final" d="M130 0v184h330v1372h166v-1266q195 319 443 418q83 33 144 33q105 0 200 -39q169 -69 169 -304q0 -77 -38 -147q13 -12 27 -23q55 -44 129 -44h68v-184h-117q-118 0 -211 92l-25 26q-184 -118 -436 -118h-519h-330zM750 184h168q213 0 329 63q169 93 168 161 q-2 135 -125 154q-34 5 -77 5q-72 0 -182 -81q-159 -120 -281 -302zM878 850v150h135v-150h-135z" />
<glyph unicode="&#x638;" horiz-adv-x="1467" arabic-form="initial" d="M-18 0v184h240v1372h166v-1266q195 319 444 418q82 33 144 33q105 0 199 -39q168 -69 168 -304q0 -169 -166 -278q-182 -120 -437 -120h-518h-240zM512 184h168q214 0 330 63q168 93 167 161q-2 135 -125 154q-33 5 -76 5q-72 0 -182 -81q-160 -120 -282 -302zM640 850 v150h135v-150h-135z" />
<glyph unicode="&#x638;" horiz-adv-x="1512" arabic-form="medial" d="M-18 0v184h240v1372h166v-1266q195 319 444 418q82 33 144 33q105 0 199 -39q170 -69 170 -304q0 -77 -38 -147q12 -12 27 -23q55 -44 128 -44h68v-184h-117q-118 0 -211 92l-25 26q-183 -118 -435 -118h-520h-240zM512 184h168q214 0 330 63q168 93 167 161 q-2 135 -125 154q-33 5 -76 5q-72 0 -182 -81q-160 -120 -282 -302zM640 850v150h135v-150h-135z" />
<glyph unicode="&#x639;" horiz-adv-x="1099" arabic-form="isolated" d="M105 0q0 177 79 278q101 131 171 156q-46 4 -89 34q-79 56 -79 186q0 208 184 335q111 77 338 77v-169q-175 0 -280 -65q-83 -52 -83 -156q0 -75 43 -100q40 -24 82 -24q36 0 73 18q142 69 370 98v-184q-245 -26 -458 -175q-188 -131 -188 -316q0 -117 37 -170 q107 -158 412 -158q174 0 365 118v-184q-135 -99 -360 -99q-379 0 -528 188q-89 111 -89 312z" />
<glyph unicode="&#x639;" horiz-adv-x="981" arabic-form="final" d="M105 11q0 201 169 341q-55 50 -85.5 108t-30.5 100q0 110 112 174q87 48 194.5 48t192.5 -48q114 -64 114 -176q0 -91 -82 -158q-51 -43 -135 -75q61 -64 142.5 -102.5t158.5 -38.5h144v-184h-130q-239 0 -462 228q-139 -129 -139 -236q0 -108 37 -169q96 -158 412 -158 q174 0 365 118v-184q-137 -99 -368 -99q-379 0 -520 188q-89 122 -89 323zM372 546q0 -36 63 -101q122 56 122 104t-92.5 48t-92.5 -51z" />
<glyph unicode="&#x639;" horiz-adv-x="1099" arabic-form="initial" d="M-18 0v184h72q145 0 327 93q-68 24 -115 83q-79 100 -79 240q0 264 184 389q112 77 338 77v-169q-196 0 -279.5 -68.5t-83.5 -196t55 -179.5q75 -70 138 -70q50 0 116 33l259 129v-184l-378 -197q-315 -164 -475 -164h-79z" />
<glyph unicode="&#x639;" horiz-adv-x="889" arabic-form="medial" d="M-18 0v184h86q97 0 156 40q53 36 89 75q-87 85 -148 175q-27 39 -27 84q0 31 11 72q15 55 108 107q81 45 188 45t187 -45q93 -52 108 -107q12 -41 12 -72q0 -45 -28 -84q-69 -98 -148 -175q28 -31 89 -75q55 -40 156 -40h86v-184h-106q-182 0 -356 185 q-175 -185 -357 -185h-106zM352 546q0 -29 93 -124q92 95 92 124q0 32 -42 44q-27 7 -50.5 7t-50.5 -7q-42 -12 -42 -44z" />
<glyph unicode="&#x63a;" horiz-adv-x="1099" arabic-form="isolated" d="M338 1200v150h135v-150h-135zM105 0q0 177 79 278q101 131 171 156q-46 4 -89 34q-79 56 -79 186q0 208 184 335q111 77 338 77v-169q-175 0 -280 -65q-83 -52 -83 -156q0 -75 43 -100q40 -24 82 -24q36 0 73 18q142 69 370 98v-184q-245 -26 -458 -175 q-188 -131 -188 -316q0 -117 37 -170q107 -158 412 -158q174 0 365 118v-184q-135 -99 -360 -99q-379 0 -528 188q-89 111 -89 312z" />
<glyph unicode="&#x63a;" horiz-adv-x="981" arabic-form="final" d="M105 11q0 201 169 341q-55 50 -85.5 108t-30.5 100q0 110 112 174q87 48 194.5 48t192.5 -48q114 -64 114 -176q0 -91 -82 -158q-51 -43 -135 -75q61 -64 142.5 -102.5t158.5 -38.5h144v-184h-130q-239 0 -462 228q-139 -129 -139 -236q0 -108 37 -169q96 -158 412 -158 q174 0 365 118v-184q-137 -99 -368 -99q-379 0 -520 188q-89 122 -89 323zM372 546q0 -36 63 -101q122 56 122 104t-92.5 48t-92.5 -51zM382 950v150h135v-150h-135z" />
<glyph unicode="&#x63a;" horiz-adv-x="963" arabic-form="initial" d="M-18 0v184h72q145 0 327 93q-68 24 -115 83q-79 100 -79 240q0 264 184 389q112 77 338 77v-169q-196 0 -279.5 -68.5t-83.5 -196t55 -179.5q75 -70 138 -70q50 0 116 33l259 129v-184l-378 -197q-315 -164 -475 -164h-79zM338 1200v150h135v-150h-135z" />
<glyph unicode="&#x63a;" horiz-adv-x="889" arabic-form="medial" d="M-18 0v184h86q97 0 156 40q53 36 89 75q-87 85 -148 175q-27 39 -27 84q0 31 11 72q15 55 108 107q81 45 188 45t187 -45q93 -52 108 -107q12 -41 12 -72q0 -45 -28 -84q-69 -98 -148 -175q28 -31 89 -75q55 -40 156 -40h86v-184h-106q-182 0 -356 185 q-175 -185 -357 -185h-106zM352 546q0 -29 93 -124q92 95 92 124q0 32 -42 44q-27 7 -50.5 7t-50.5 -7q-42 -12 -42 -44zM377 950v150h135v-150h-135z" />
<glyph unicode="&#x641;" horiz-adv-x="1910" arabic-form="isolated" d="M1372 1150v150h135v-150h-135zM117 314q-1 138 57 230h165q-58 -94 -58 -230q0 -116 183 -192q80 -34 332 -34q289 0 478 57q193 59 283 167q31 38 49 116q-56 -75 -166 -75q-120 0 -187 67q-88 87 -88 216q0 52 7 96q20 148 156 217q70 36 138 36q81 0 140 -50 q87 -72 128 -174q22 -54 21 -191q-2 -226 -70 -351q-99 -180 -385 -250q-245 -61 -504 -61q-265 0 -382 41q-296 100 -297 365zM1336 656q0 -80 49 -118q36 -25 74 -25q65 0 86 24q37 43 37 120q0 59 -59 110q-28 25 -68 24q-47 -1 -83 -43q-36 -41 -36 -92z" />
<glyph unicode="&#x641;" horiz-adv-x="1908" arabic-form="final" d="M117 314q-1 138 57 230h165q-58 -94 -58 -230q0 -115 183 -192q72 -31 342 -31q208 0 465 54l25 4q-31 27 -57 71q-73 124 -73 245q0 31 3 67q20 155 189 230q52 23 99 23q74 0 147 -50q123 -83 139 -233q4 -37 4 -67q0 -144 -72 -250q8 -1 14 -1h237v-184h-241 q-95 0 -195 36q-93 -43 -192 -67q-252 -60 -497 -60q-275 1 -387 40q-296 103 -297 365zM1335 460q0 -56 37 -122q44 -78 118 -115q94 65 94 187q0 20 -4 47q-13 71 -60 110q-30 25 -66 25q-22 0 -42 -10q-55 -25 -72 -85q-5 -19 -5 -37zM1372 950v150h135v-150h-135z" />
<glyph unicode="&#x641;" horiz-adv-x="881" arabic-form="initial" d="M-18 0v184h217q75 0 211 23q72 12 126 105q27 48 41 98q-57 -55 -144 -57q-117 -2 -187 67q-88 87 -88 216q0 52 7 96q20 148 155 217q71 36 139 36q81 0 140 -50q87 -72 128 -174q21 -51 21 -191q0 -208 -70 -351q-67 -136 -178 -180q-99 -39 -229 -39h-289zM328 656 q0 -80 50 -118q36 -25 74 -25q65 0 86 24q37 43 37 120q0 59 -59 110q-28 25 -68 24q-47 -1 -83 -43q-36 -41 -37 -92zM382 1150v150h135v-150h-135z" />
<glyph unicode="&#x641;" horiz-adv-x="932" arabic-form="medial" d="M-18 0v184h114q133 0 168 17q-26 40 -59 117q-19 46 -19 122q0 44 8 92q20 143 187 230q27 14 85 14q57 0 87 -14q164 -80 186 -230q7 -50 7 -92q0 -73 -19 -122q-26 -67 -58 -117q35 -17 167 -17h114v-184h-195q-122 0 -289 57q-166 -57 -289 -57h-195zM356 447 q0 -43 21 -96q28 -68 89 -90q57 21 89 90q23 50 23 96q0 24 -10 50q-21 52 -72 85q-17 10 -30 10t-30 -10q-50 -32 -72 -85q-8 -21 -8 -50zM399 1000v150h135v-150h-135z" />
<glyph unicode="&#x642;" horiz-adv-x="1430" arabic-form="isolated" d="M765 1150v150h135v-150h-135zM990 1150v150h135v-150h-135zM96 36q0 180 74 396h165q-77 -185 -79 -340q-1 -60 10 -112q47 -229 209 -229q216 0 362 115q297 234 297 562q-57 -75 -166 -75q-120 0 -188 67q-88 87 -88 216q0 52 7 96q21 148 156 217q70 36 139 36 q89 0 140 -50q93 -90 128 -209q30 -102 30 -262q0 -204 -54 -344q-83 -213 -302 -402q-185 -159 -461 -158q-190 1 -309 192q-70 110 -70 284zM863 656q0 -80 50 -118q36 -25 73 -25q65 0 87 24q37 43 37 120q0 59 -60 110q-28 25 -67 24q-47 -1 -83 -43q-36 -41 -37 -92z " />
<glyph unicode="&#x642;" horiz-adv-x="1537" arabic-form="final" d="M96 -45q0 166 56 262h166q-56 -107 -56 -262q0 -76 24 -134q54 -130 290 -130q126 0 261 68q192 98 250 251q-59 5 -101 18q-108 35 -160 78q-132 109 -132 294q0 61 5 87q36 165 169 234q36 19 115 19q101 0 151 -50q89 -88 134 -233q18 -58 24 -272q23 -1 26 -1h237 v-184h-241h-43q-40 -122 -96 -192q-114 -145 -257 -223q-158 -86 -342 -85q-333 2 -418 192q-62 138 -62 263zM861 397q0 -60 52 -104q68 -59 158 -79q42 -9 55 -11q4 122 -16 209q-17 75 -60 110q-30 25 -65 25q-31 0 -50 -10q-46 -27 -65 -85q-9 -30 -9 -55zM810 875v150 h135v-150h-135zM1035 875v150h135v-150h-135z" />
<glyph unicode="&#x642;" horiz-adv-x="881" arabic-form="initial" d="M-18 0v184h217q75 0 211 23q72 12 126 105q27 48 41 98q-57 -55 -144 -57q-117 -2 -187 67q-88 87 -88 216q0 52 7 96q20 148 155 217q71 36 139 36q81 0 140 -50q87 -72 128 -174q21 -51 21 -191q0 -208 -70 -351q-67 -136 -178 -180q-99 -39 -229 -39h-289zM328 656 q0 -80 50 -118q36 -25 74 -25q65 0 86 24q37 43 37 120q0 59 -59 110q-28 25 -68 24q-47 -1 -83 -43q-36 -41 -37 -92zM270 1150v150h135v-150h-135zM495 1150v150h135v-150h-135z" />
<glyph unicode="&#x642;" horiz-adv-x="932" arabic-form="medial" d="M-18 0v184h114q133 0 168 17q-26 40 -59 117q-19 46 -19 122q0 44 8 92q20 143 187 230q27 14 85 14q57 0 87 -14q164 -80 186 -230q7 -50 7 -92q0 -73 -19 -122q-26 -67 -58 -117q35 -17 167 -17h114v-184h-195q-122 0 -289 57q-166 -57 -289 -57h-195zM356 447 q0 -43 21 -96q28 -68 89 -90q57 21 89 90q23 50 23 96q0 24 -10 50q-21 52 -72 85q-17 10 -30 10t-30 -10q-50 -32 -72 -85q-8 -21 -8 -50zM281 1000v150h135v-150h-135zM506 1000v150h135v-150h-135z" />
<glyph unicode="&#x643;" horiz-adv-x="1519" arabic-form="isolated" d="M130 260q0 75 14 128h166q-13 -58 -13 -102q2 -92 146 -138q109 -35 223 -35q126 0 206 27q137 47 225 141q69 73 69 330v945h165v-945q0 -327 -99 -450q-134 -167 -333 -198q-122 -19 -229 -18q-186 2 -277 32q-263 88 -263 283zM549 617v88q61 -10 102 -10q54 0 105 26 q54 26 54 56q0 38 -70 55q-67 16 -83 44q-29 47 -28 93q2 81 69 119q77 43 180 47v-82q-66 -4 -100 -18q-72 -30 -72 -63q0 -28 12 -46q11 -16 72 -26q92 -15 92 -103q0 -110 -79 -152q-74 -39 -144 -39q-60 0 -110 11z" />
<glyph unicode="&#x643;" horiz-adv-x="1553" arabic-form="final" d="M130 260q0 75 14 128h166q-13 -58 -13 -102q2 -92 146 -138q109 -35 223 -35q126 0 206 27q137 47 225 141q69 73 69 330v945h165v-1173q0 -106 44 -155q40 -44 129 -44h67v-184h-117q-137 0 -239 123q-142 -126 -316 -160q-98 -20 -229 -18q-186 2 -277 32 q-263 88 -263 283zM549 617v88q61 -10 102 -10q54 0 105 26q54 26 54 56q0 38 -70 55q-67 16 -83 44q-29 47 -28 93q2 81 69 119q77 43 180 47v-82q-66 -4 -100 -18q-72 -30 -72 -63q0 -28 12 -46q11 -16 72 -26q92 -15 92 -103q0 -110 -79 -152q-74 -39 -144 -39 q-60 0 -110 11z" />
<glyph unicode="&#x643;" horiz-adv-x="877" arabic-form="initial" d="M-18 0v184h279q133 0 174 104q14 36 14 72q0 69 -49 135l-278 380q-46 61 -46 142q0 35 10 68q27 118 121 161l671 310v-186l-536 -250q-64 -30 -83 -70q-5 -11 -5 -36q0 -32 28 -69l247 -330q92 -123 92 -246q0 -113 -56 -214q-85 -155 -286 -155h-297z" />
<glyph unicode="&#x643;" horiz-adv-x="1017" arabic-form="medial" d="M-18 0v184h279q133 0 174 104q14 36 14 72q0 69 -49 135l-278 380q-46 61 -46 142q0 35 10 68q27 118 121 161l671 310v-186l-536 -250q-64 -30 -83 -70q-5 -11 -5 -36q0 -32 28 -69l524 -705q20 -26 54 -40q39 -16 97 -16h79v-184h-119q-58 0 -111 24q-92 43 -122 84 l-87 120q-19 -46 -35 -73q-85 -155 -283 -155h-297z" />
<glyph unicode="&#x644;" horiz-adv-x="1339" arabic-form="isolated" d="M130 75q-1 138 56 230h166q-59 -115 -59 -230q0 -130 150 -192q36 -16 101 -16q72 0 171 34q156 53 223 172q70 126 70 353v1130h166v-1130q0 -317 -89 -461q-109 -177 -343 -243q-121 -34 -198 -34q-85 0 -151 22q-263 92 -263 365z" />
<glyph unicode="&#x644;" horiz-adv-x="1395" arabic-form="final" d="M130 75q-1 138 56 230h166q-59 -115 -59 -230q0 -126 150 -192q36 -16 101 -16q72 0 171 34q156 53 223 172q70 126 70 353v1130h166v-1173q0 -106 44 -155q39 -44 128 -44h68v-184h-117q-101 0 -171 51q-16 -46 -41 -86q-109 -177 -343 -243q-121 -34 -198 -34 q-89 0 -151 22q-263 91 -263 365z" />
<glyph unicode="&#x644;" horiz-adv-x="561" arabic-form="initial" d="M-18 0v184h68q89 0 128 44q44 49 44 155v1173h166v-1185q0 -178 -78 -279q-72 -92 -211 -92h-117z" />
<glyph unicode="&#x644;" horiz-adv-x="610" arabic-form="medial" d="M-18 0v184h68q89 0 128 44q44 49 44 155v1173h166v-1173q0 -106 44 -155q40 -44 129 -44h67v-184h-117q-135 0 -206 86q-69 -86 -206 -86h-117z" />
<glyph unicode="&#x645;" horiz-adv-x="1141" arabic-form="isolated" d="M126 0q0 173 108 275q58 55 140 55q-2 42 -2 82q0 148 146 280q69 63 152 63q69 0 140 -36q164 -83 189 -250q7 -45 7 -101q0 -146 -88 -211q-108 -80 -187 -80q-160 -2 -290 78q-45 28 -113 -50q-22 -26 -22 -105v-492h-180v492zM540 388q0 -40 9 -93q110 -42 178 -42 q40 0 59 22q47 57 47 115q0 24 -5 44q-19 88 -72 105q-36 12 -77 12q-53 0 -78 -27q-61 -68 -61 -136z" />
<glyph unicode="&#x645;" horiz-adv-x="1226" arabic-form="final" d="M126 -127q0 173 108 275q58 55 140 55q-2 42 -2 82q0 148 146 280q69 63 152 63q64 0 140 -36q153 -71 189 -250q13 -67 49 -111q35 -44 129 -44h68v-184h-117q-158 0 -185 49q-13 -14 -25 -22q-120 -80 -187 -80q-163 0 -290 78q-45 28 -113 -50q-22 -26 -22 -105v-365 h-180v365zM540 261q0 -40 9 -93q110 -42 178 -42q40 0 59 22q47 57 47 115q0 24 -5 44q-19 88 -72 105q-36 12 -77 12q-53 0 -78 -27q-61 -68 -61 -136z" />
<glyph unicode="&#x645;" horiz-adv-x="987" arabic-form="initial" d="M-18 0v184h104q47 0 86.5 35.5t43.5 84.5q18 181 140 261q84 56 157 56q158 0 240 -84q88 -89 88 -273q0 -143 -60 -212q-87 -102 -220 -102q-185 0 -284 98q-57 -48 -151 -48h-144zM365 199q56 -69 199 -69q43 0 60 18q46 53 46 122q0 75 -36 113q-38 41 -116 41 q-42 0 -83 -30t-54 -127q-7 -37 -16 -68z" />
<glyph unicode="&#x645;" horiz-adv-x="1065" arabic-form="medial" d="M-18 0v184h104q47 0 87 36q39 35 43 84q18 181 140 261q84 56 168 56q65 0 124 -29q174 -83 189 -250q5 -49 50 -111q33 -44 129 -44h68v-184h-117q-159 0 -186 49q-87 -102 -212 -102q-193 0 -292 98q-57 -48 -151 -48h-144zM365 199q56 -69 199 -69q43 0 60 18 q46 53 46 122q0 19 -4 37q-20 88 -72 105q-35 12 -70 12q-48 0 -85 -27q-45 -33 -58 -130q-7 -37 -16 -68z" />
<glyph unicode="&#x646;" horiz-adv-x="1353" arabic-form="isolated" d="M518 800v150h135v-150h-135zM132 168q0 235 43 316h165q-44 -144 -44 -316q0 -237 181 -289q83 -24 167 -24q69 0 133 20q173 53 242 275q30 98 30 194q0 184 -91 406h165q94 -156 94 -438q0 -173 -90 -351q-100 -197 -323 -265q-88 -27 -160 -27q-118 0 -216 37 q-296 106 -296 462z" />
<glyph unicode="&#x646;" horiz-adv-x="1403" arabic-form="final" d="M132 -1q0 175 43 316h165q-44 -137 -44 -316q0 -236 181 -289q81 -24 149 -24q80 0 151 20q174 48 242 275q29 101 29 213q0 184 -90 387h165q40 -97 64 -193q20 -80 65 -140q48 -64 102 -64h67v-184h-117q-64 0 -94 48q-3 -109 -83 -256q-108 -199 -323 -265 q-88 -27 -170 -27q-105 0 -206 37q-296 107 -296 462zM518 550v150h135v-150h-135z" />
<glyph unicode="&#x646;" horiz-adv-x="513" arabic-form="initial" d="M202 850v150h135v-150h-135zM-18 0v184h32q89 0 128 44q44 49 44 155v217h166v-217q0 -187 -83 -297q-65 -86 -206 -86h-81z" />
<glyph unicode="&#x646;" horiz-adv-x="556" arabic-form="medial" d="M202 850v150h135v-150h-135zM-18 0v184h32q89 0 128 44q44 49 44 155v217h166v-217q0 -106 44 -155q40 -44 129 -44h49v-184h-99q-135 0 -206 86q-69 -86 -206 -86h-81z" />
<glyph unicode="&#x647;" horiz-adv-x="965" arabic-form="isolated" d="M125 290q0 181 33 259q76 185 208 185q178 0 342 -160q127 -124 127 -272q-1 -200 -133 -275q-148 -85 -267 -85q-87 0 -160 35q-150 74 -150 313zM287 275q1 -82 51 -126q51 -44 102 -44q82 0 166 57q67 46 67 131q0 77 -59 142q-111 120 -215 119q-60 0 -89 -87 q-24 -69 -23 -192z" />
<glyph unicode="&#x647;" horiz-adv-x="988" arabic-form="final" d="M130 285q0 173 184 300q98 68 234 83q-4 39 -6 82h165q1 -168 34 -342q19 -101 69 -180q28 -44 129 -44h67v-184h-117q-81 0 -147 51q-40 31 -74 90q-124 -73 -265 -73q-50 0 -102 15q-171 48 -171 202zM281 294q1 -41 82 -66t245 54q-13 42 -25 91q-11 50 -22 151 q-108 -12 -182 -79q-100 -89 -98 -151z" />
<glyph unicode="&#x647;" horiz-adv-x="972" arabic-form="initial" d="M-18 0v184h96q47 0 117 11q-40 105 -54 174q-16 78 -16 142q0 84 41 167q43 90 112 81q-40 39 -112 53v185q200 -68 395 -247q230 -209 288 -431q12 -52 12 -109q0 -103 -36 -164q-66 -113 -224 -113q-118 0 -256 108q-108 -41 -240 -41h-123zM277 505q0 -30 7 -67 q18 -118 80 -169q32 27 63 91q35 72 35 133q0 46 -14 83q-20 52 -72 52q-58 0 -79 -45q-20 -43 -20 -78zM488 147q47 -46 91 -46q112 0 127 67q7 30 7 63q0 60 -30 138q-26 69 -86 139q5 -37 5 -76q0 -147 -88 -252q-11 -14 -26 -33z" />
<glyph unicode="&#x647;" horiz-adv-x="849" arabic-form="medial" d="M-18 0v184h158q8 266 124 392q97 107 213 107q124 0 186 -99q42 -67 42 -181q0 -111 -147 -219h310v-184h-310q147 -108 147 -219q0 -114 -42 -181q-62 -99 -186 -99q-116 0 -213 107q-116 128 -124 392h-158zM305 0q0 -117 34 -189q67 -141 134 -141q76 0 76 112 q0 52 -103 142q-86 76 -124 76h-17zM305 184h17q38 0 124 76q103 90 103 142q0 112 -76 112q-67 0 -134 -141q-34 -72 -34 -189z" />
<glyph unicode="&#x648;" horiz-adv-x="890" arabic-form="isolated" d="M-76 -316q323 0 443 76q151 95 207 243q-106 0 -146 10q-136 33 -172 67q-104 98 -104 235q0 141 80 228q94 103 217 103q80 0 145 -51q117 -90 140 -233q15 -102 15 -178q0 -308 -155 -468q-86 -88 -169 -130q-173 -86 -501 -86v184zM327 326q0 -51 46 -98 q42 -44 215 -44q0 184 -78 243q-33 25 -65 25q-57 0 -97 -57q-21 -33 -21 -69z" />
<glyph unicode="&#x648;" horiz-adv-x="952" arabic-form="final" d="M-76 -316q324 0 443 76q151 95 207 243q-106 3 -146 10q-126 24 -172 67q-95 89 -104 224q-2 31 7 88q25 155 183 230q53 25 112 24q78 -2 140 -51q120 -92 140 -233q11 -83 15 -178h221v-184h-174l-63 1q-23 -156 -139 -285q-75 -83 -169 -130q-173 -86 -501 -86v184z M330 357q-15 -75 43 -129q42 -40 215 -44q0 76 -15 133q-21 80 -63 110q-54 41 -108 15q-60 -29 -72 -85z" />
<glyph unicode="&#x649;" horiz-adv-x="1442" arabic-form="isolated" d="M117 122q0 117 57 230h165q-59 -131 -58 -230q2 -147 149 -192q88 -26 142 -20q114 11 230 35q159 33 235 113q53 56 53 109q0 74 -114 103q-59 15 -162 61q-60 27 -112 78q-58 57 -58 172q0 150 170 224q86 37 179.5 37t180.5 -42q126 -61 151 -234h-166q-11 61 -71 94 q-36 20 -98 22q-70 2 -126 -37q-54 -38 -54 -72q0 -55 112 -97q224 -83 275 -147q69 -85 71 -174q1 -68 -39 -143q-91 -170 -400 -243q-159 -38 -267 -38q-116 0 -181 26q-264 104 -264 365z" />
<glyph unicode="&#x649;" horiz-adv-x="1536" arabic-form="final" d="M117 134q0 153 57 243h165q-58 -90 -58 -243q0 -114 149 -192q60 -31 221 -31q82 0 151 8q134 15 188 48q82 51 82 84q-1 43 -43 56q-26 8 -53 48q-40 59 -40 120q0 65 47 125q72 94 147 108q27 6 65 6q105 0 184 -134q115 -196 144 -196h31v-184h-31q-103 0 -204 172 q-97 165 -120 165q-33 0 -46 -6q-41 -17 -41 -52q0 -48 59 -75q66 -30 68 -153q3 -98 -99 -184q-115 -96 -311 -127q-80 -12 -174 -12q-169 0 -274 41q-264 103 -264 365z" />
<glyph unicode="&#x64a;" horiz-adv-x="1442" arabic-form="isolated" d="M450 -500v150h135v-150h-135zM675 -500v150h135v-150h-135zM117 122q0 117 57 230h165q-59 -131 -58 -230q2 -147 149 -192q88 -26 142 -20q114 11 230 35q159 33 235 113q53 56 53 109q0 74 -114 103q-59 15 -162 61q-60 27 -112 78q-58 57 -58 172q0 150 170 224 q86 37 179.5 37t180.5 -42q126 -61 151 -234h-166q-11 61 -71 94q-36 20 -98 22q-70 2 -126 -37q-54 -38 -54 -72q0 -55 112 -97q224 -83 275 -147q69 -85 71 -174q1 -68 -39 -143q-91 -170 -400 -243q-159 -38 -267 -38q-116 0 -181 26q-264 104 -264 365z" />
<glyph unicode="&#x64a;" horiz-adv-x="1536" arabic-form="final" d="M450 -500v150h135v-150h-135zM675 -500v150h135v-150h-135zM117 134q0 153 57 243h165q-58 -90 -58 -243q0 -114 149 -192q60 -31 221 -31q82 0 151 8q134 15 188 48q82 51 82 84q-1 43 -43 56q-26 8 -53 48q-40 59 -40 120q0 65 47 125q72 94 147 108q27 6 65 6 q105 0 184 -134q115 -196 144 -196h31v-184h-31q-103 0 -204 172q-97 165 -120 165q-33 0 -46 -6q-41 -17 -41 -52q0 -48 59 -75q66 -30 68 -153q3 -98 -99 -184q-115 -96 -311 -127q-80 -12 -174 -12q-169 0 -274 41q-264 103 -264 365z" />
<glyph unicode="&#x64a;" horiz-adv-x="513" arabic-form="initial" d="M-18 0v184h32q89 0 128 44q44 49 44 155v217h166v-217q0 -187 -83 -297q-65 -86 -206 -86h-81zM89 -300v150h135v-150h-135zM314 -300v150h135v-150h-135z" />
<glyph unicode="&#x64a;" horiz-adv-x="556" arabic-form="medial" d="M-18 0v184h32q89 0 128 44q44 49 44 155v217h166v-217q0 -106 44 -155q40 -44 129 -44h49v-184h-99q-135 0 -206 86q-69 -86 -206 -86h-81zM89 -300v150h135v-150h-135zM314 -300v150h135v-150h-135z" />
<glyph unicode=" "  horiz-adv-x="585" />
<glyph unicode="&#x09;" horiz-adv-x="585" />
<glyph unicode="&#xa0;" horiz-adv-x="585" />
<glyph unicode="!" horiz-adv-x="738" d="M278 0v254h183v-254h-183zM278 838v655h183v-655l-18 -357h-146z" />
<glyph unicode="&#x22;" horiz-adv-x="847" d="M177 938v555h153v-555h-153zM518 938v555h152v-555h-152z" />
<glyph unicode="#" d="M142 414v153h317l76 334h-290v154h325l92 415h145l-93 -415h262l95 415h144l-93 -415h281v-154h-316l-74 -334h287v-153h-322l-93 -414h-144l92 414h-263l-93 -414h-145l94 414h-284zM605 567h263l74 334h-262z" />
<glyph unicode="$" horiz-adv-x="1172" d="M153 92v180q92 -64 186 -96.5t194 -33.5v456q-199 36 -289.5 122t-90.5 236q0 163 98 257t282 108v235h90v-232q83 -4 161.5 -19.5t153.5 -42.5v-175q-75 42 -153.5 65t-161.5 27v-427q204 -35 300.5 -125t96.5 -246q0 -169 -102.5 -266.5t-294.5 -112.5v-303h-90l-1 301 q-95 2 -189.5 24.5t-189.5 67.5zM319 973q0 -86 50.5 -134t163.5 -69v410q-105 -13 -159.5 -66t-54.5 -141zM623 145q114 17 172 72t58 145q0 88 -55.5 140t-174.5 76v-433z" />
<glyph unicode="%" horiz-adv-x="1751" d="M102 1114q0 186 83.5 296t225.5 110q143 0 227.5 -109.5t84.5 -296.5q0 -189 -84.5 -298t-227.5 -109t-226 109.5t-83 297.5zM245 1114q0 -132 44 -206t122 -74q79 0 123.5 74t44.5 206q0 129 -45 204t-123 75q-77 0 -121.5 -74.5t-44.5 -204.5zM383 -29l841 1549h144 l-841 -1549h-144zM1029 377q0 188 84 297.5t227 109.5q142 0 226 -110t84 -297t-84.5 -296.5t-225.5 -109.5q-144 0 -227.5 109.5t-83.5 296.5zM1173 377q0 -130 44.5 -204.5t122.5 -74.5q77 0 121.5 74.5t44.5 204.5q0 131 -44.5 205.5t-121.5 74.5q-78 0 -122.5 -74 t-44.5 -206z" />
<glyph unicode="&#x26;" horiz-adv-x="1437" d="M116 461q0 128 60.5 240.5t180.5 211.5q-43 63 -65.5 125.5t-22.5 122.5q0 162 100 260.5t265 98.5q75 0 149.5 -18t150.5 -54v-182q-78 47 -149 71.5t-133 24.5q-94 0 -153 -55.5t-59 -143.5q0 -51 26.5 -102.5t108.5 -145.5l457 -520q53 89 83 190.5t35 215.5h168 q-11 -132 -58 -261t-130 -255l251 -285h-227l-129 147q-93 -89 -196 -132.5t-221 -43.5q-216 0 -354 137.5t-138 352.5zM290 473q0 -146 95.5 -243t239.5 -97q85 0 160 31.5t140 95.5l-477 543q-82 -81 -120 -161.5t-38 -168.5z" />
<glyph unicode="'" horiz-adv-x="506" d="M177 938v555h153v-555h-153z" />
<glyph unicode="(" horiz-adv-x="719" d="M158 643q0 223 67 449t203 462h144q-121 -230 -179.5 -455t-58.5 -456t59 -457.5t179 -455.5h-144q-136 235 -203 462t-67 451z" />
<glyph unicode=")" horiz-adv-x="719" d="M148 -270q119 229 178 455.5t59 457.5t-59 456t-178 455h144q135 -236 202 -462t67 -449q0 -224 -67 -451t-202 -462h-144z" />
<glyph unicode="*" horiz-adv-x="921" d="M55 858l323 195l-323 194l52 99l303 -203v377h102v-377l302 203l53 -99l-323 -194l323 -195l-53 -98l-302 203v-377h-102v377l-303 -203z" />
<glyph unicode="+" d="M195 557v170h502v557h151v-557h501v-170h-501v-557h-151v557h-502z" />
<glyph unicode="," horiz-adv-x="585" d="M142 -238l74 320v172h190v-172l-148 -320h-116z" />
<glyph unicode="-" horiz-adv-x="665" d="M90 479v164h485v-164h-485z" />
<glyph unicode="." horiz-adv-x="585" d="M197 0v254h190v-254h-190z" />
<glyph unicode="/" horiz-adv-x="621" d="M0 -190l468 1683h153l-468 -1683h-153z" />
<glyph unicode="0" horiz-adv-x="1172" d="M122 745q0 378 119 576.5t345 198.5t345 -198.5t119 -576.5q0 -377 -119 -575.5t-345 -198.5t-345 198.5t-119 575.5zM304 745q0 -307 71 -460.5t211 -153.5q141 0 211.5 153.5t70.5 460.5q0 308 -70.5 461.5t-211.5 153.5q-140 0 -211 -153.5t-71 -461.5z" />
<glyph unicode="1" horiz-adv-x="1172" d="M202 1237v184l322 72h182v-1323h297v-170h-774v170h297v1139z" />
<glyph unicode="2" horiz-adv-x="1172" d="M135 0v170q103 119 282 319.5t225 258.5q87 109 121.5 184.5t34.5 148.5q0 119 -75 194t-196 75q-85 0 -180 -33t-203 -100v204q110 49 205.5 74t174.5 25q209 0 333 -116t124 -310q0 -92 -31 -174.5t-113 -194.5q-23 -29 -143.5 -167.5t-339.5 -387.5h634v-170h-853z " />
<glyph unicode="3" horiz-adv-x="1172" d="M140 45v195q76 -49 166 -74t188 -25q171 0 260.5 75t89.5 218q0 132 -83 206.5t-232 74.5h-156v166h163q134 0 205.5 59.5t71.5 171.5q0 115 -73.5 176.5t-210.5 61.5q-75 0 -160 -18t-188 -56v180q103 32 193.5 48t170.5 16q207 0 328 -104.5t121 -282.5 q0 -124 -64 -209.5t-182 -118.5q130 -31 203.5 -129t73.5 -242q0 -221 -136.5 -342t-388.5 -121q-85 0 -174.5 18.5t-185.5 55.5z" />
<glyph unicode="4" horiz-adv-x="1172" d="M90 352v195l559 946h229v-973h191v-168h-191v-352h-181v352h-607zM238 520h459v797z" />
<glyph unicode="5" horiz-adv-x="1172" d="M142 35v203q81 -49 167.5 -73t182.5 -24q156 0 247 91t91 247t-91 247t-247 91q-73 0 -145.5 -18t-147.5 -56v750h714v-170h-548v-366q40 15 79.5 22.5t79.5 7.5q225 0 356.5 -137t131.5 -371q0 -241 -135 -374.5t-381 -133.5q-85 0 -172.5 16t-181.5 48z" />
<glyph unicode="6" horiz-adv-x="1172" d="M129 745q0 354 151 564.5t406 210.5q68 0 138 -15t145 -45v-184q-68 36 -138 55t-138 19q-180 0 -275 -135t-108 -408q53 87 133 133.5t176 46.5q203 0 320.5 -136.5t117.5 -371.5q0 -230 -122.5 -369t-326.5 -139q-233 0 -356 198.5t-123 575.5zM343 479 q0 -161 71.5 -254.5t193.5 -93.5q123 0 194.5 93.5t71.5 254.5q0 162 -71.5 255t-194.5 93q-122 0 -193.5 -93t-71.5 -255z" />
<glyph unicode="7" horiz-adv-x="1172" d="M151 1323v170h864v-86l-488 -1407h-189l458 1323h-645z" />
<glyph unicode="8" horiz-adv-x="1172" d="M125 420q0 143 74 242t205 133q-117 32 -182 121t-65 217q0 179 114.5 283t314.5 104q201 0 315 -104t114 -283q0 -128 -65 -217t-181 -121q131 -34 204.5 -133t73.5 -242q0 -217 -119.5 -333t-341.5 -116t-341.5 116t-119.5 333zM308 420q0 -135 74 -212t204 -77 t204.5 77.5t74.5 211.5q0 135 -74.5 212t-204.5 77t-204 -77t-74 -212zM338 1114q0 -116 65 -181t183 -65q117 0 183 65t66 181t-66 181t-183 65q-118 0 -183 -65t-65 -181z" />
<glyph unicode="9" horiz-adv-x="1172" d="M116 1012q0 230 122.5 369t325.5 139q233 0 356 -198.5t123 -576.5q0 -353 -150.5 -563.5t-405.5 -210.5q-69 0 -139 15t-146 45v184q69 -36 139 -55t138 -19q180 0 275 134.5t108 408.5q-52 -86 -132 -132t-177 -46q-202 0 -319.5 135.5t-117.5 370.5zM299 1012 q0 -162 71.5 -255t193.5 -93q123 0 194.5 93t71.5 255q0 161 -71.5 254.5t-194.5 93.5q-122 0 -193.5 -93.5t-71.5 -254.5z" />
<glyph unicode=":" horiz-adv-x="621" d="M216 0v254h190v-254h-190zM216 805v254h190v-254h-190z" />
<glyph unicode=";" horiz-adv-x="621" d="M142 -238l74 320v172h190v-172l-148 -320h-116zM216 805v254h190v-254h-190z" />
<glyph unicode="&#x3c;" d="M195 559v166l1154 465v-182l-929 -367l929 -365v-182z" />
<glyph unicode="=" d="M195 352v170h1154v-170h-1154zM195 762v168h1154v-168h-1154z" />
<glyph unicode="&#x3e;" d="M195 94v182l927 365l-927 367v182l1154 -465v-166z" />
<glyph unicode="?" horiz-adv-x="978" d="M132 1219v188q85 57 172 85t179 28q166 0 266.5 -97t100.5 -256q0 -76 -32.5 -144.5t-113.5 -154.5l-79 -86q-43 -47 -60.5 -73.5t-24.5 -51.5q-5 -21 -8 -51t-3 -82v-123h-172v154q0 101 25.5 166t106.5 151l81 89q51 53 74 100t23 96q0 89 -59 144t-156 55 q-71 0 -151.5 -35t-168.5 -102zM352 0v254h183v-254h-183z" />
<glyph unicode="@" horiz-adv-x="1843" d="M122 543q0 182 61 347t174 290q116 127 268.5 194.5t322.5 67.5q190 0 353.5 -87t274.5 -247q67 -98 102.5 -213t35.5 -238q0 -263 -143 -415t-395 -158v154q-54 -77 -123.5 -113.5t-162.5 -36.5q-155 0 -251.5 124.5t-96.5 324.5t97 325t251 125q93 0 163 -37.5 t123 -113.5v131h129v-736q131 22 205.5 133.5t74.5 288.5q0 107 -28.5 201t-85.5 174q-94 131 -228.5 200.5t-292.5 69.5q-111 0 -213 -32.5t-188 -96.5q-141 -102 -221 -267.5t-80 -358.5q0 -159 52 -298t150 -245q94 -104 218.5 -158.5t265.5 -54.5q116 0 228 43.5 t206 124.5l81 -111q-113 -97 -245.5 -148.5t-269.5 -51.5q-166 0 -314 65.5t-263 190.5t-175 289.5t-60 353.5zM686 537q0 -143 64 -224.5t175 -81.5t174.5 82t63.5 224q0 140 -65 222.5t-175 82.5q-109 0 -173 -82t-64 -223z" />
<glyph unicode="A" horiz-adv-x="1260" d="M14 0l513 1493h207l512 -1493h-189l-123 383h-606l-122 -383h-192zM383 551h495l-248 743z" />
<glyph unicode="B" horiz-adv-x="1264" d="M181 0v1493h464q208 0 320.5 -96t112.5 -273q0 -137 -57.5 -218t-169.5 -101q135 -32 209 -133.5t74 -253.5q0 -200 -122.5 -309t-348.5 -109h-482zM363 166h291q147 0 217.5 67.5t70.5 206.5q0 140 -70.5 206.5t-217.5 66.5h-291v-547zM363 877h269q133 0 198.5 55.5 t65.5 169.5q0 113 -65.5 169t-198.5 56h-269v-450z" />
<glyph unicode="C" horiz-adv-x="1287" d="M104 745q0 360 175 567.5t481 207.5q120 0 227 -35.5t200 -106.5v-213q-92 95 -196 142t-221 47q-230 0 -352.5 -156.5t-122.5 -452.5q0 -295 122.5 -451.5t352.5 -156.5q117 0 221 47t196 142v-211q-95 -72 -202 -108t-225 -36q-306 0 -481 207.5t-175 566.5z" />
<glyph unicode="D" horiz-adv-x="1419" d="M181 0v1493h373q391 0 573.5 -180.5t182.5 -564.5q0 -386 -183.5 -567t-572.5 -181h-373zM363 166h219q278 0 407.5 140t129.5 442q0 300 -129.5 439.5t-407.5 139.5h-219v-1161z" />
<glyph unicode="E" horiz-adv-x="1164" d="M181 0v1493h849v-170h-667v-442h640v-170h-640v-541h684v-170h-866z" />
<glyph unicode="F" horiz-adv-x="1060" d="M181 0v1493h772v-170h-590v-440h533v-170h-533v-713h-182z" />
<glyph unicode="G" horiz-adv-x="1428" d="M104 745q0 366 177.5 570.5t492.5 204.5q131 0 249.5 -36t218.5 -106v-215q-101 95 -214.5 143t-238.5 48q-246 0 -370 -153t-124 -456q0 -302 124 -455t370 -153q97 0 172.5 18.5t135.5 57.5v401h-297v166h477v-641q-105 -83 -232 -125.5t-271 -42.5 q-315 0 -492.5 204.5t-177.5 569.5z" />
<glyph unicode="H" horiz-adv-x="1386" d="M181 0v1493h182v-612h660v612h182v-1493h-182v711h-660v-711h-182z" />
<glyph unicode="I" horiz-adv-x="543" d="M181 0v1493h182v-1493h-182z" />
<glyph unicode="J" horiz-adv-x="543" d="M-95 -240h56q121 0 170.5 75t49.5 269v1389h182v-1389q0 -270 -92.5 -392t-296.5 -122h-69v170z" />
<glyph unicode="K" horiz-adv-x="1208" d="M181 0v1493h182v-631l603 631h234l-667 -696l714 -797h-239l-645 719v-719h-182z" />
<glyph unicode="L" horiz-adv-x="1026" d="M181 0v1493h182v-1323h654v-170h-836z" />
<glyph unicode="M" horiz-adv-x="1590" d="M181 0v1493h271l343 -1016l344 1016h271v-1493h-177v1311l-347 -1024h-182l-347 1024v-1311h-176z" />
<glyph unicode="N" horiz-adv-x="1378" d="M181 0v1493h245l596 -1249v1249h176v-1493h-245l-596 1249v-1249h-176z" />
<glyph unicode="O" horiz-adv-x="1450" d="M104 745q0 354 169.5 564.5t452.5 210.5t452 -210.5t169 -564.5q0 -353 -169 -563.5t-452 -210.5t-452.5 210t-169.5 564zM295 745q0 -282 116.5 -446t314.5 -164t314 164t116 446q0 283 -116 447t-314 164t-314.5 -164t-116.5 -447z" />
<glyph unicode="P" horiz-adv-x="1111" d="M181 0v1493h410q226 0 341.5 -113.5t115.5 -332.5q0 -221 -115.5 -334t-341.5 -113h-228v-600h-182zM363 766h228q127 0 196.5 73t69.5 208q0 134 -69.5 207t-196.5 73h-228v-561z" />
<glyph unicode="Q" horiz-adv-x="1450" d="M104 745q0 354 169.5 564.5t452.5 210.5t452 -210.5t169 -564.5q0 -260 -94 -445t-272 -273l239 -291h-219l-199 239q-30 -2 -45.5 -3t-30.5 -1q-283 0 -452.5 210.5t-169.5 563.5zM295 745q0 -282 116.5 -446t314.5 -164t314 164t116 446q0 283 -116 447t-314 164 t-314.5 -164t-116.5 -447z" />
<glyph unicode="R" horiz-adv-x="1280" d="M181 0v1493h410q231 0 344 -107t113 -323q0 -141 -58.5 -234t-171.5 -129q59 -22 114 -94t111 -198l185 -408h-196l-172 383q-66 150 -128.5 199t-170.5 49h-198v-631h-182zM363 797h228q132 0 199 67.5t67 198.5t-67 197.5t-199 66.5h-228v-530z" />
<glyph unicode="S" horiz-adv-x="1170" d="M122 1094q0 198 125.5 312t345.5 114q95 0 193 -19t200 -57v-197q-103 55 -195 82t-177 27q-149 0 -229.5 -64t-80.5 -182q0 -99 53.5 -149.5t203.5 -81.5l109 -25q204 -43 300.5 -151.5t96.5 -290.5q0 -217 -130.5 -329t-383.5 -112q-96 0 -203.5 24t-222.5 71v208 q111 -69 217 -104t209 -35q155 0 240 68t85 194q0 110 -61 172t-200 93l-110 24q-204 45 -294.5 141t-90.5 267z" />
<glyph unicode="T" horiz-adv-x="1125" d="M-5 1323v170h1136v-170h-477v-1323h-182v1323h-477z" />
<glyph unicode="U" horiz-adv-x="1349" d="M160 561v932h183v-907q0 -240 78.5 -345.5t253.5 -105.5t253 105.5t78 345.5v907h183v-932q0 -292 -130 -441t-384 -149q-255 0 -385 149t-130 441z" />
<glyph unicode="V" horiz-adv-x="1260" d="M14 1493h190l426 -1257l427 1257h189l-512 -1493h-207z" />
<glyph unicode="W" horiz-adv-x="1822" d="M61 1493h184l282 -1262l282 1262h204l283 -1262l282 1262h184l-337 -1493h-229l-283 1296l-287 -1296h-228z" />
<glyph unicode="X" horiz-adv-x="1262" d="M55 0l480 797l-419 696h195l334 -555l336 555h195l-432 -717l461 -776h-195l-378 635l-381 -635h-196z" />
<glyph unicode="Y" horiz-adv-x="1125" d="M-4 1493h196l372 -614l370 614h196l-476 -782v-711h-182v711z" />
<glyph unicode="Z" horiz-adv-x="1262" d="M83 0v154l849 1169h-828v170h1055v-154l-849 -1169h870v-170h-1097z" />
<glyph unicode="[" horiz-adv-x="719" d="M158 -270v1826h382v-143h-216v-1540h216v-143h-382z" />
<glyph unicode="\" horiz-adv-x="621" d="M0 1493h153l468 -1683h-153z" />
<glyph unicode="]" horiz-adv-x="719" d="M179 -127h215v1540h-215v143h382v-1826h-382v143z" />
<glyph unicode="^" d="M195 936l489 557h176l489 -557h-181l-396 395l-396 -395h-181z" />
<glyph unicode="_" horiz-adv-x="921" d="M-18 -340h958v-143h-958v143z" />
<glyph unicode="`" horiz-adv-x="921" d="M153 1638h177l254 -374h-138z" />
<glyph unicode="a" horiz-adv-x="1129" d="M111 326q0 189 113.5 285t339.5 96h232v18q0 127 -75 196.5t-211 69.5q-86 0 -168 -23t-158 -69v170q91 39 176.5 58.5t166.5 19.5q219 0 327 -126t108 -382v-639h-166v170q-56 -102 -140.5 -150.5t-207.5 -48.5q-155 0 -246 96.5t-91 258.5zM276 338q0 -98 58 -155.5 t158 -57.5q138 0 221 108.5t83 288.5v41h-164q-201 0 -278.5 -51t-77.5 -174z" />
<glyph unicode="b" horiz-adv-x="1170" d="M167 0v1556h167v-606q52 100 131.5 148.5t190.5 48.5q184 0 298.5 -162t114.5 -426t-114.5 -426t-298.5 -162q-111 0 -190.5 48.5t-131.5 148.5v-168h-167zM334 559q0 -203 75 -318.5t207 -115.5q131 0 206 115.5t75 318.5t-75 318.5t-206 115.5q-132 0 -207 -115.5 t-75 -318.5z" />
<glyph unicode="c" horiz-adv-x="1013" d="M102 559q0 274 135.5 431t370.5 157q77 0 150 -17.5t141 -52.5v-172q-70 43 -140.5 64.5t-142.5 21.5q-162 0 -251 -113.5t-89 -318.5t89 -318.5t251 -113.5q72 0 142.5 21.5t140.5 64.5v-170q-69 -36 -143.5 -54t-157.5 -18q-228 0 -362 159t-134 429z" />
<glyph unicode="d" horiz-adv-x="1170" d="M102 559q0 264 114.5 426t297.5 162q112 0 191.5 -48.5t131.5 -148.5v606h166v-1556h-166v168q-52 -100 -131.5 -148.5t-191.5 -48.5q-183 0 -297.5 162t-114.5 426zM273 559q0 -203 75 -318.5t206 -115.5q132 0 207.5 115.5t75.5 318.5t-75.5 318.5t-207.5 115.5 q-131 0 -206 -115.5t-75 -318.5z" />
<glyph unicode="e" horiz-adv-x="1134" d="M102 549q0 275 133.5 436.5t360.5 161.5q203 0 321.5 -145.5t118.5 -395.5v-90h-762q11 -190 103.5 -289.5t256.5 -99.5q96 0 185.5 26t177.5 78v-174q-89 -42 -182.5 -64t-189.5 -22q-242 0 -382.5 156t-140.5 422zM280 659l590 1q-2 151 -76 241t-196 90 q-139 0 -222.5 -87t-95.5 -245z" />
<glyph unicode="f" horiz-adv-x="648" d="M42 977v143h159v78q0 187 78 272.5t248 85.5h157v-153h-158q-90 0 -124.5 -40t-34.5 -144v-99h273v-143h-273v-977h-166v977h-159z" />
<glyph unicode="g" horiz-adv-x="1170" d="M102 573q0 260 113 417t299 157q112 0 192 -49t131 -148v170h166v-981q0 -286 -114.5 -425.5t-350.5 -139.5q-87 0 -164.5 14.5t-150.5 44.5v179q73 -44 144 -65t145 -21q163 0 244 94.5t81 285.5v91q-51 -99 -131 -148t-192 -49q-186 0 -299 157t-113 416zM273 573 q0 -199 74 -309t207 -110q134 0 208.5 110t74.5 309q0 200 -74.5 310t-208.5 110q-133 0 -207 -110t-74 -310z" />
<glyph unicode="h" horiz-adv-x="1168" d="M167 0v1556h167v-610q59 101 139.5 151t186.5 50q173 0 262.5 -119.5t89.5 -351.5v-676h-166v670q0 159 -56 238t-167 79q-134 0 -211.5 -95t-77.5 -259v-633h-167z" />
<glyph unicode="i" horiz-adv-x="512" d="M174 0v1120h165v-1120h-165zM174 1323v233h165v-233h-165z" />
<glyph unicode="j" horiz-adv-x="512" d="M-33 -270h44q94 0 128.5 48.5t34.5 201.5v1140h165v-1140q0 -214 -73 -310t-236 -96h-63v156zM174 1323v233h165v-233h-165z" />
<glyph unicode="k" horiz-adv-x="1067" d="M167 0v1556h167v-919l494 483h212l-535 -524l557 -596h-216l-512 547v-547h-167z" />
<glyph unicode="l" horiz-adv-x="512" d="M174 0v1556h165v-1556h-165z" />
<glyph unicode="m" horiz-adv-x="1795" d="M167 0v1120h167v-174q57 103 136 152t188 49q110 0 187 -62t113 -180q63 124 149 183t203 59q158 0 243.5 -122.5t85.5 -348.5v-676h-167v670q0 161 -51 239t-157 78q-128 0 -203 -95t-75 -259v-633h-166v670q0 162 -51.5 239.5t-158.5 77.5q-127 0 -201.5 -95.5 t-74.5 -258.5v-633h-167z" />
<glyph unicode="n" horiz-adv-x="1168" d="M167 0v1120h167v-174q59 101 139.5 151t186.5 50q173 0 262.5 -119.5t89.5 -351.5v-676h-166v670q0 159 -56 238t-167 79q-134 0 -211.5 -95t-77.5 -259v-633h-167z" />
<glyph unicode="o" horiz-adv-x="1127" d="M102 559q0 276 122.5 432t339.5 156q216 0 339.5 -156t123.5 -432q0 -275 -123.5 -431.5t-339.5 -156.5q-217 0 -339.5 156.5t-122.5 431.5zM276 559q0 -201 77 -316.5t211 -115.5q133 0 210 116t77 316q0 199 -77 315.5t-210 116.5t-210.5 -115.5t-77.5 -316.5z" />
<glyph unicode="p" horiz-adv-x="1170" d="M167 -426v1546h167v-170q52 100 131.5 148.5t190.5 48.5q184 0 298.5 -162t114.5 -426t-114.5 -426t-298.5 -162q-111 0 -190.5 48.5t-131.5 148.5v-594h-167zM334 559q0 -203 75 -318.5t207 -115.5q131 0 206 115.5t75 318.5t-75 318.5t-206 115.5q-132 0 -207 -115.5 t-75 -318.5z" />
<glyph unicode="q" horiz-adv-x="1170" d="M102 559q0 264 114.5 426t297.5 162q112 0 191.5 -48.5t131.5 -148.5v170h166v-1546h-166v594q-52 -100 -131.5 -148.5t-191.5 -48.5q-183 0 -297.5 162t-114.5 426zM273 559q0 -203 75 -318.5t206 -115.5q132 0 207.5 115.5t75.5 318.5t-75.5 318.5t-207.5 115.5 q-131 0 -206 -115.5t-75 -318.5z" />
<glyph unicode="r" horiz-adv-x="757" d="M167 0v1120h167v-174q52 102 136 151.5t203 49.5q17 0 38 -2.5t46 -7.5l1 -189q-28 18 -61 26.5t-72 8.5q-141 0 -216 -101.5t-75 -291.5v-590h-167z" />
<glyph unicode="s" horiz-adv-x="960" d="M100 41v190q92 -53 181 -79.5t176 -26.5q117 0 180 44.5t63 125.5q0 75 -45.5 115t-199.5 77l-57 15q-154 36 -222.5 110.5t-68.5 204.5q0 158 101 244t286 86q92 0 173 -15t149 -45v-174q-70 40 -145.5 60t-156.5 20q-123 0 -185 -42t-62 -126q0 -64 44.5 -100.5 t177.5 -69.5l56 -14q177 -42 251 -118.5t74 -213.5q0 -156 -111 -247t-305 -91q-81 0 -169 17.5t-185 52.5z" />
<glyph unicode="t" horiz-adv-x="722" d="M50 977v143h121v318h167v-318h341v-143h-341v-608q0 -137 33.5 -176t136.5 -39h171v-154h-171q-191 0 -264 79.5t-73 289.5v608h-121z" />
<glyph unicode="u" horiz-adv-x="1168" d="M157 442v678h165v-671q0 -159 56 -238.5t167 -79.5q135 0 212.5 95t77.5 259v635h166v-1120h-166v172q-60 -102 -139.5 -151.5t-185.5 -49.5q-173 0 -263 120t-90 351zM573 1147z" />
<glyph unicode="v" horiz-adv-x="1090" d="M55 1120h175l315 -940l315 940h176l-378 -1120h-225z" />
<glyph unicode="w" horiz-adv-x="1507" d="M77 1120h166l207 -874l206 874h195l207 -874l206 874h166l-264 -1120h-195l-217 918l-218 -918h-195z" />
<glyph unicode="x" horiz-adv-x="1090" d="M53 0l392 586l-359 534h196l267 -399l267 399h196l-365 -545l383 -575h-195l-293 440l-294 -440h-195z" />
<glyph unicode="y" horiz-adv-x="1090" d="M55 1120h175l315 -876l315 876h176l-443 -1224q-70 -200 -136.5 -261t-178.5 -61h-132v154h97q68 0 106 36t84 170l30 84z" />
<glyph unicode="z" horiz-adv-x="967" d="M79 0v168l623 805h-600v147h786v-168l-622 -805h622v-147h-809z" />
<glyph unicode="{" horiz-adv-x="1172" d="M230 541v143h55q129 0 177 57.5t48 206.5v240q0 221 76 294.5t300 73.5h56v-143h-61q-127 0 -165.5 -44t-38.5 -185v-248q0 -157 -41 -228t-140 -96q100 -27 140.5 -98t40.5 -227v-248q0 -141 38.5 -185t165.5 -44h61v-144h-56q-224 0 -300 74t-76 295v239 q0 151 -48.5 209t-176.5 58h-55z" />
<glyph unicode="|" horiz-adv-x="621" d="M234 -483v2048h153v-2048h-153z" />
<glyph unicode="}" horiz-adv-x="1172" d="M230 -190h63q126 0 164.5 43t38.5 186v248q0 156 40.5 227t140.5 98q-100 25 -140.5 96t-40.5 228v248q0 142 -38.5 185.5t-164.5 43.5h-63v143h57q224 0 299.5 -73.5t75.5 -294.5v-240q0 -149 48.5 -206.5t175.5 -57.5h56v-143h-56q-127 0 -175.5 -58t-48.5 -209v-239 q0 -221 -75.5 -295t-299.5 -74h-57v144z" />
<glyph unicode="~" d="M195 467v178q95 79 175.5 113.5t167.5 34.5q99 0 232 -60q8 -4 13 -6q7 -3 20 -8q139 -62 224 -62q77 0 153 38t169 122v-178q-94 -79 -174.5 -113t-168.5 -34q-99 0 -230 59l-15 6q-6 3 -19 8q-140 62 -224 62q-80 0 -157 -38.5t-166 -121.5z" />
<glyph unicode="&#xa1;" horiz-adv-x="738" d="M278 0v655l19 357h146l18 -357v-655h-183zM278 1239v254h183v-254h-183z" />
<glyph unicode="&#xa2;" horiz-adv-x="1172" d="M155 559q0 258 119 411t336 175v287h92l1 -287q66 -4 127.5 -20.5t122.5 -47.5v-172q-67 41 -128 62t-122 24l-1 -864q63 5 124.5 26t126.5 60v-170q-58 -30 -120 -47.5t-131 -24.5v-284h-92v288q-217 20 -336 173.5t-119 410.5zM330 559q0 -185 74 -298t206 -130v856 q-132 -18 -206 -131t-74 -297z" />
<glyph unicode="&#xa3;" horiz-adv-x="1172" d="M116 0v170h212v465h-179v143h179v238q0 261 96.5 382.5t305.5 121.5q55 0 123 -15.5t139 -44.5v-182q-69 41 -130 61.5t-116 20.5q-133 0 -185.5 -77.5t-52.5 -289.5v-215h352v-143h-352v-465h502v-170h-894z" />
<glyph unicode="&#xa4;" horiz-adv-x="1172" d="M85 197l186 206q-33 62 -50 121t-17 117q0 64 17 122t52 114l-187 206l104 115l186 -207q50 39 102 57.5t110 18.5q54 0 106.5 -18t107.5 -56l186 209l103 -115l-186 -206q34 -59 50 -118.5t16 -121.5q0 -63 -17 -120.5t-53 -114.5l188 -207l-103 -113l-186 207 q-53 -40 -105 -59t-107 -19q-52 0 -106 18.5t-109 55.5l-187 -207zM345 643q0 -114 70.5 -192t172.5 -78q101 0 171.5 78.5t70.5 191.5q0 112 -70 189t-172 77q-101 0 -172 -77t-71 -189z" />
<glyph unicode="&#xa5;" horiz-adv-x="1172" d="M74 1493h171l341 -700l339 700h172l-286 -586h237v-123h-297l-76 -155v-51h373v-123h-371v-455h-181v455h-374v123h374v51l-76 155h-298v123h237z" />
<glyph unicode="&#xa6;" horiz-adv-x="621" d="M234 -350v758h153v-758h-153zM234 674v758h153v-758h-153z" />
<glyph unicode="&#xa7;" horiz-adv-x="921" d="M83 723q0 91 41.5 162.5t123.5 120.5q-53 44 -79.5 100t-26.5 125q0 130 90 209.5t240 79.5q65 0 134 -14.5t140 -43.5v-164q-75 39 -139 58.5t-115 19.5q-87 0 -135.5 -40t-48.5 -111q0 -90 185 -205q24 -15 36 -23q190 -119 249 -196t59 -178q0 -90 -41.5 -160 t-125.5 -123q56 -52 82 -106.5t26 -118.5q0 -142 -92 -226t-248 -84q-65 0 -134.5 14.5t-148.5 43.5v164q78 -39 144.5 -58.5t118.5 -19.5q92 0 143 42t51 118q0 102 -199 225l-22 14q-193 120 -250.5 196.5t-57.5 178.5zM229 754q0 -76 62.5 -142.5t287.5 -201.5 q56 45 84 90.5t28 91.5q0 75 -64.5 143t-285.5 201q-57 -46 -84.5 -91t-27.5 -91z" />
<glyph unicode="&#xa8;" horiz-adv-x="921" d="M194 1350v202h182v-202h-182zM545 1350v202h183v-202h-183z" />
<glyph unicode="&#xa9;" horiz-adv-x="1843" d="M255 741q0 154 48.5 285t146.5 240t216.5 164t255.5 55q136 0 254.5 -55t216.5 -164t146.5 -240t48.5 -285q0 -152 -48.5 -282.5t-146.5 -239.5t-216.5 -164t-254.5 -55q-137 0 -255.5 55t-216.5 164t-146.5 239.5t-48.5 282.5zM345 741q0 -129 43 -242.5t128 -207.5 q84 -94 186 -141.5t220 -47.5t220.5 47.5t186.5 141.5q84 93 126 206t42 244q0 133 -42.5 246.5t-125.5 206.5q-84 94 -186.5 141t-220.5 47t-220 -47t-186 -141q-85 -94 -128 -208.5t-43 -244.5zM524 741q0 209 113 330t307 121q66 0 127 -14t120 -41v-129 q-60 33 -118.5 49t-117.5 16q-134 0 -209.5 -87.5t-75.5 -244.5q0 -159 77 -246t217 -87q58 0 112.5 15.5t114.5 49.5v-127q-61 -29 -122.5 -43t-124.5 -14q-194 0 -307 122t-113 330z" />
<glyph unicode="&#xaa;" horiz-adv-x="868" d="M104 946q0 135 85.5 204t255.5 69h163v4q0 91 -52.5 136.5t-157.5 45.5q-56 0 -117 -17t-123 -51v127q66 28 131.5 42t127.5 14q164 0 244.5 -88t80.5 -267v-448h-134v112q-39 -63 -104 -97t-148 -34q-116 0 -184 67.5t-68 180.5zM125 469v123h619v-123h-619zM236 958 q0 -64 44 -102.5t118 -38.5q93 0 151.5 72t58.5 186v29h-114q-145 0 -201.5 -33.5t-56.5 -112.5z" />
<glyph unicode="&#xab;" horiz-adv-x="1127" d="M142 559v82l422 418v-191l-271 -268l271 -268v-191zM533 559v82l422 418v-191l-271 -268l271 -268v-191z" />
<glyph unicode="&#xac;" d="M195 692v170h1154v-575h-151v405h-1003z" />
<glyph unicode="&#xad;" horiz-adv-x="665" d="M90 479v164h485v-164h-485z" />
<glyph unicode="&#xae;" horiz-adv-x="1843" d="M255 741q0 154 48.5 285t146.5 240t216.5 164t255.5 55q136 0 254.5 -55t216.5 -164t146.5 -240t48.5 -285q0 -152 -48.5 -282.5t-146.5 -239.5t-216.5 -164t-254.5 -55q-137 0 -255.5 55t-216.5 164t-146.5 239.5t-48.5 282.5zM345 741q0 -129 43 -242.5t128 -207.5 q84 -94 186 -141.5t220 -47.5t220.5 47.5t186.5 141.5q84 93 126 206t42 244q0 133 -42.5 246.5t-125.5 206.5q-84 94 -186.5 141t-220.5 47t-220 -47t-186 -141q-85 -94 -128 -208.5t-43 -244.5zM647 338v836h257q158 0 236.5 -59.5t78.5 -180.5q0 -86 -47.5 -142 t-133.5 -73q21 -8 51.5 -46.5t71.5 -111.5l123 -223h-154l-117 209q-53 96 -85.5 121.5t-81.5 25.5h-59v-356h-140zM787 795h110q99 0 138.5 31t39.5 106q0 76 -40 107.5t-138 31.5h-110v-276z" />
<glyph unicode="&#xaf;" horiz-adv-x="921" d="M192 1378v148h538v-148h-538z" />
<glyph unicode="&#xb0;" horiz-adv-x="921" d="M176 1200q0 134 82.5 227t202.5 93q57 0 110.5 -24.5t91.5 -70.5q42 -45 62.5 -102t20.5 -123q0 -132 -83 -223.5t-204 -91.5t-202 90t-81 225zM290 1200q0 -79 49.5 -133.5t121.5 -54.5t121.5 54.5t49.5 133.5t-50 135t-121 56q-72 0 -121.5 -55.5t-49.5 -135.5z" />
<glyph unicode="&#xb1;" d="M195 0v170h1154v-170h-1154zM195 727v170h502v387h151v-387h501v-170h-501v-387h-151v387h-502z" />
<glyph unicode="&#xb2;" horiz-adv-x="738" d="M85 668v110q30 31 87 87q310 305 310 399q0 66 -47 106.5t-124 40.5q-46 0 -101 -17.5t-120 -52.5v123q69 28 129 42t111 14q131 0 209 -66t78 -174q0 -139 -297 -423q-51 -48 -79 -75h382v-114h-538z" />
<glyph unicode="&#xb3;" horiz-adv-x="738" d="M88 694v121q47 -27 100.5 -40t113.5 -13q98 0 152 39.5t54 109.5q0 74 -49.5 112t-147.5 38h-77v108h85q84 0 127.5 31.5t43.5 91.5q0 58 -45 88.5t-130 30.5q-36 0 -82 -9t-119 -32v115q66 17 123.5 26t107.5 9q129 0 205 -59t76 -158q0 -69 -40.5 -117t-113.5 -66 q82 -18 127.5 -72.5t45.5 -136.5q0 -124 -85.5 -191t-244.5 -67q-51 0 -107.5 10.5t-119.5 30.5z" />
<glyph unicode="&#xb4;" horiz-adv-x="921" d="M334 1262l252 376h179l-293 -376h-138z" />
<glyph unicode="&#xb5;" horiz-adv-x="1172" d="M157 -426v1546h165v-696q0 -145 62 -219t184 -74q133 0 200 84t67 252v653h166v-862q0 -60 15.5 -88.5t49.5 -28.5q8 0 22 5.5t40 17.5v-148q-37 -23 -70 -34t-64 -11q-62 0 -99 39t-51 119q-45 -79 -110 -118.5t-154 -39.5q-91 0 -155.5 39t-102.5 117v-553h-165z" />
<glyph unicode="&#xb6;" horiz-adv-x="1172" d="M142 1071q0 190 117 306t311 116h403v-1690h-127v1567h-171v-1567h-128v846q-193 17 -299 127.5t-106 294.5z" />
<glyph unicode="&#xb7;" horiz-adv-x="585" d="M197 584v254h190v-254h-190z" />
<glyph unicode="&#xb8;" horiz-adv-x="921" d="M262 -240q30 -17 63.5 -24.5t75.5 -7.5q53 0 80 24t27 70q0 30 -19 73.5t-60 104.5h107q50 -62 74 -114.5t24 -100.5q0 -89 -54 -134.5t-160 -45.5q-41 0 -80 6t-78 18v131z" />
<glyph unicode="&#xb9;" horiz-adv-x="738" d="M123 1348v116l207 39h124v-725h184v-110h-498v110h184v611z" />
<glyph unicode="&#xba;" horiz-adv-x="868" d="M86 1108q0 191 94 301.5t255 110.5t253.5 -110.5t92.5 -301.5t-92.5 -300.5t-253.5 -109.5t-255 110t-94 300zM125 469v123h619v-123h-619zM227 1108q0 -133 57 -213t151 -80t150.5 80t56.5 213q0 137 -56 217t-151 80t-151.5 -80.5t-56.5 -216.5z" />
<glyph unicode="&#xbb;" horiz-adv-x="1127" d="M174 141v191l271 268l-271 268v191l422 -418v-82zM564 141v191l271 268l-271 268v191l422 -418v-82z" />
<glyph unicode="&#xbc;" horiz-adv-x="1786" d="M123 1348v116l207 39h124v-725h184v-110h-498v110h184v611zM1104 186v121l353 528h149v-540h121v-109h-121v-186h-130v186h-372zM1198 295h278v419zM401 -29l839 1549h144l-839 -1549h-144z" />
<glyph unicode="&#xbd;" horiz-adv-x="1786" d="M123 1348v116l207 39h124v-725h184v-110h-498v110h184v611zM1132 0v110q30 31 87 87q310 305 310 399q0 66 -47 106.5t-124 40.5q-46 0 -101 -17.5t-120 -52.5v123q69 28 129 42t111 14q131 0 209 -66t78 -174q0 -139 -297 -423q-51 -48 -79 -75h382v-114h-538zM401 -29 l839 1549h144l-839 -1549h-144z" />
<glyph unicode="&#xbe;" horiz-adv-x="1786" d="M88 694v121q47 -27 100.5 -40t113.5 -13q98 0 152 39.5t54 109.5q0 74 -49.5 112t-147.5 38h-77v108h85q84 0 127.5 31.5t43.5 91.5q0 58 -45 88.5t-130 30.5q-36 0 -82 -9t-119 -32v115q66 17 123.5 26t107.5 9q129 0 205 -59t76 -158q0 -69 -40.5 -117t-113.5 -66 q82 -18 127.5 -72.5t45.5 -136.5q0 -124 -85.5 -191t-244.5 -67q-51 0 -107.5 10.5t-119.5 30.5zM1104 186v121l353 528h149v-540h121v-109h-121v-186h-130v186h-372zM1198 295h278v419zM401 -29l839 1549h144l-839 -1549h-144z" />
<glyph unicode="&#xbf;" horiz-adv-x="978" d="M129 324q0 76 32.5 144.5t112.5 154.5l80 86q43 47 60 73.5t24 51.5q7 21 9.5 51t2.5 84v123h171v-156q0 -101 -24.5 -166t-106.5 -152l-80 -88q-53 -53 -76 -100t-23 -96q0 -89 59 -144t157 -55q71 0 152 35t167 102v-188q-85 -57 -171 -85t-179 -28q-166 0 -266.5 97 t-100.5 256zM445 1239v254h181v-254h-181z" />
<glyph unicode="&#xc0;" horiz-adv-x="1260" d="M14 0l513 1493h207l512 -1493h-189l-123 383h-606l-122 -383h-192zM383 551h495l-248 743zM411 1899h168l176 -264h-137z" />
<glyph unicode="&#xc1;" horiz-adv-x="1260" d="M14 0l513 1493h207l512 -1493h-189l-123 383h-606l-122 -383h-192zM383 551h495l-248 743zM503 1635l177 264h166l-205 -264h-138z" />
<glyph unicode="&#xc2;" horiz-adv-x="1260" d="M14 0l513 1493h207l512 -1493h-189l-123 383h-606l-122 -383h-192zM383 551h495l-248 743zM356 1635l190 266h169l190 -266h-125l-150 178l-149 -178h-125z" />
<glyph unicode="&#xc3;" horiz-adv-x="1260" d="M14 0l513 1493h207l512 -1493h-189l-123 383h-606l-122 -383h-192zM383 551h495l-248 743zM333 1667q0 101 46.5 160t123.5 59q33 0 60.5 -8t70.5 -35l51 -30q21 -13 36 -19t29 -6q29 0 47 25.5t18 66.5v6h112q-2 -100 -48 -159.5t-122 -59.5q-30 0 -57 8t-73 35l-52 33 q-22 14 -36 19.5t-25 5.5q-32 0 -50 -25t-18 -70v-6h-113z" />
<glyph unicode="&#xc4;" horiz-adv-x="1260" d="M14 0l513 1493h207l512 -1493h-189l-123 383h-606l-122 -383h-192zM383 551h495l-248 743zM363 1667v203h183v-203h-183zM715 1667v203h182v-203h-182z" />
<glyph unicode="&#xc5;" horiz-adv-x="1260" d="M14 0l480 1397q-55 41 -83 98.5t-28 130.5q0 115 71.5 195t175.5 80q103 0 175.5 -80.5t72.5 -194.5q0 -70 -28.5 -129t-82.5 -100l479 -1397h-189l-123 383h-606l-122 -383h-192zM385 551h491l-246 743zM494 1626q0 -63 39.5 -107t96.5 -44t97 44t40 107t-40 107.5 t-97 44.5q-58 0 -97 -43.5t-39 -108.5z" />
<glyph unicode="&#xc6;" horiz-adv-x="1795" d="M7 0l563 1493h1090v-170h-666v-442h640v-170h-640v-541h684v-170h-867v383h-475l-144 -383h-185zM398 551h413v784h-116z" />
<glyph unicode="&#xc7;" horiz-adv-x="1287" d="M104 745q0 360 175 567.5t481 207.5q120 0 227 -35.5t200 -106.5v-213q-92 95 -196 142t-221 47q-230 0 -352.5 -156.5t-122.5 -452.5q0 -295 122.5 -451.5t352.5 -156.5q117 0 221 47t196 142v-211q-95 -72 -202 -108t-225 -36q-306 0 -481 207.5t-175 566.5zM533 -240 q30 -17 63.5 -24.5t75.5 -7.5q53 0 80 24t27 70q0 30 -19 73.5t-60 104.5h107q50 -62 74 -114.5t24 -100.5q0 -89 -54 -134.5t-160 -45.5q-41 0 -80 6t-78 18v131z" />
<glyph unicode="&#xc8;" horiz-adv-x="1164" d="M181 0v1493h849v-170h-667v-442h640v-170h-640v-541h684v-170h-866zM384 1899h168l176 -264h-137z" />
<glyph unicode="&#xc9;" horiz-adv-x="1164" d="M181 0v1493h849v-170h-667v-442h640v-170h-640v-541h684v-170h-866zM476 1635l177 264h166l-205 -264h-138z" />
<glyph unicode="&#xca;" horiz-adv-x="1164" d="M181 0v1493h849v-170h-667v-442h640v-170h-640v-541h684v-170h-866zM329 1635l190 266h169l190 -266h-125l-150 178l-149 -178h-125z" />
<glyph unicode="&#xcb;" horiz-adv-x="1164" d="M181 0v1493h849v-170h-667v-442h640v-170h-640v-541h684v-170h-866zM336 1667v203h183v-203h-183zM688 1667v203h182v-203h-182z" />
<glyph unicode="&#xcc;" horiz-adv-x="543" d="M181 0v1493h182v-1493h-182zM54 1899h168l176 -264h-137z" />
<glyph unicode="&#xcd;" horiz-adv-x="543" d="M181 0v1493h182v-1493h-182zM146 1635l177 264h166l-205 -264h-138z" />
<glyph unicode="&#xce;" horiz-adv-x="543" d="M181 0v1493h182v-1493h-182zM-1 1635l190 266h169l190 -266h-125l-150 178l-149 -178h-125z" />
<glyph unicode="&#xcf;" horiz-adv-x="543" d="M181 0v1493h182v-1493h-182zM6 1667v203h183v-203h-183zM358 1667v203h182v-203h-182z" />
<glyph unicode="&#xd0;" horiz-adv-x="1428" d="M9 700v144h181v649h374q390 0 572.5 -180.5t182.5 -564.5q0 -386 -183 -567t-572 -181h-374v700h-181zM373 166h218q278 0 407.5 140t129.5 442q0 300 -129.5 439.5t-407.5 139.5h-218v-483h302v-144h-302v-534z" />
<glyph unicode="&#xd1;" horiz-adv-x="1378" d="M181 0v1493h245l596 -1249v1249h176v-1493h-245l-596 1249v-1249h-176zM392 1667q0 101 46.5 160t123.5 59q33 0 60.5 -8t70.5 -35l51 -30q21 -13 36 -19t29 -6q29 0 47 25.5t18 66.5v6h112q-2 -100 -48 -159.5t-122 -59.5q-30 0 -57 8t-73 35l-52 33q-22 14 -36 19.5 t-25 5.5q-32 0 -50 -25t-18 -70v-6h-113z" />
<glyph unicode="&#xd2;" horiz-adv-x="1450" d="M104 745q0 354 169.5 564.5t452.5 210.5t452 -210.5t169 -564.5q0 -353 -169 -563.5t-452 -210.5t-452.5 210t-169.5 564zM295 745q0 -282 116.5 -446t314.5 -164t314 164t116 446q0 283 -116 447t-314 164t-314.5 -164t-116.5 -447zM507 1899h168l176 -264h-137z" />
<glyph unicode="&#xd3;" horiz-adv-x="1450" d="M104 745q0 354 169.5 564.5t452.5 210.5t452 -210.5t169 -564.5q0 -353 -169 -563.5t-452 -210.5t-452.5 210t-169.5 564zM295 745q0 -282 116.5 -446t314.5 -164t314 164t116 446q0 283 -116 447t-314 164t-314.5 -164t-116.5 -447zM599 1635l177 264h166l-205 -264 h-138z" />
<glyph unicode="&#xd4;" horiz-adv-x="1450" d="M104 745q0 354 169.5 564.5t452.5 210.5t452 -210.5t169 -564.5q0 -353 -169 -563.5t-452 -210.5t-452.5 210t-169.5 564zM295 745q0 -282 116.5 -446t314.5 -164t314 164t116 446q0 283 -116 447t-314 164t-314.5 -164t-116.5 -447zM452 1635l190 266h169l190 -266h-125 l-150 178l-149 -178h-125z" />
<glyph unicode="&#xd5;" horiz-adv-x="1450" d="M104 745q0 354 169.5 564.5t452.5 210.5t452 -210.5t169 -564.5q0 -353 -169 -563.5t-452 -210.5t-452.5 210t-169.5 564zM295 745q0 -282 116.5 -446t314.5 -164t314 164t116 446q0 283 -116 447t-314 164t-314.5 -164t-116.5 -447zM429 1667q0 101 46.5 160t123.5 59 q33 0 60.5 -8t70.5 -35l51 -30q21 -13 36 -19t29 -6q29 0 47 25.5t18 66.5v6h112q-2 -100 -48 -159.5t-122 -59.5q-30 0 -57 8t-73 35l-52 33q-22 14 -36 19.5t-25 5.5q-32 0 -50 -25t-18 -70v-6h-113z" />
<glyph unicode="&#xd6;" horiz-adv-x="1450" d="M104 745q0 354 169.5 564.5t452.5 210.5t452 -210.5t169 -564.5q0 -353 -169 -563.5t-452 -210.5t-452.5 210t-169.5 564zM295 745q0 -282 116.5 -446t314.5 -164t314 164t116 446q0 283 -116 447t-314 164t-314.5 -164t-116.5 -447zM459 1667v203h183v-203h-183z M811 1667v203h182v-203h-182z" />
<glyph unicode="&#xd7;" d="M253 184l410 457l-410 459l106 121l413 -459l413 459l107 -121l-411 -459l411 -457l-107 -121l-413 459l-413 -459z" />
<glyph unicode="&#xd8;" horiz-adv-x="1450" d="M92 18l153 201q-70 102 -105.5 234t-35.5 292q0 354 169.5 564.5t452.5 210.5q117 0 216.5 -38.5t177.5 -113.5l146 191l92 -89l-153 -198q70 -103 106 -236t36 -291q0 -353 -169 -563.5t-452 -210.5q-115 0 -214.5 37.5t-181.5 112.5l-146 -191zM295 745 q0 -112 17.5 -206t52.5 -162l647 848q-55 64 -127.5 97.5t-158.5 33.5q-198 0 -314.5 -164t-116.5 -447zM440 266q56 -64 128.5 -97.5t157.5 -33.5q198 0 314 164t116 446q0 112 -18 204t-53 163z" />
<glyph unicode="&#xd9;" horiz-adv-x="1349" d="M160 561v932h183v-907q0 -240 78.5 -345.5t253.5 -105.5t253 105.5t78 345.5v907h183v-932q0 -292 -130 -441t-384 -149q-255 0 -385 149t-130 441zM456 1899h168l176 -264h-137z" />
<glyph unicode="&#xda;" horiz-adv-x="1349" d="M160 561v932h183v-907q0 -240 78.5 -345.5t253.5 -105.5t253 105.5t78 345.5v907h183v-932q0 -292 -130 -441t-384 -149q-255 0 -385 149t-130 441zM548 1635l177 264h166l-205 -264h-138z" />
<glyph unicode="&#xdb;" horiz-adv-x="1349" d="M160 561v932h183v-907q0 -240 78.5 -345.5t253.5 -105.5t253 105.5t78 345.5v907h183v-932q0 -292 -130 -441t-384 -149q-255 0 -385 149t-130 441zM401 1635l190 266h169l190 -266h-125l-150 178l-149 -178h-125z" />
<glyph unicode="&#xdc;" horiz-adv-x="1349" d="M160 561v932h183v-907q0 -240 78.5 -345.5t253.5 -105.5t253 105.5t78 345.5v907h183v-932q0 -292 -130 -441t-384 -149q-255 0 -385 149t-130 441zM408 1667v203h183v-203h-183zM760 1667v203h182v-203h-182z" />
<glyph unicode="&#xdd;" horiz-adv-x="1125" d="M-4 1493h196l372 -614l370 614h196l-476 -782v-711h-182v711zM437 1635l177 264h166l-205 -264h-138z" />
<glyph unicode="&#xde;" horiz-adv-x="1115" d="M181 0v1493h182v-264h228q226 0 341.5 -112.5t115.5 -332.5t-115.5 -333t-341.5 -113h-228v-338h-182zM363 504h228q127 0 196.5 73t69.5 207t-69 206.5t-197 72.5h-228v-559z" />
<glyph unicode="&#xdf;" horiz-adv-x="1161" d="M167 0v1137q0 200 107.5 309.5t304.5 109.5q187 0 285.5 -116t101.5 -340q-136 -8 -211.5 -65.5t-75.5 -153.5q0 -47 26 -87.5t84 -82.5l52 -37q149 -106 192 -177t43 -171q0 -172 -101 -263.5t-291 -91.5q-58 0 -119 12.5t-127 36.5v164q72 -30 135 -44.5t122 -14.5 q104 0 158 47.5t54 138.5q0 63 -26.5 105t-117.5 104l-83 55q-86 59 -125 126.5t-39 158.5q0 127 75 213t211 115q-7 103 -66 159t-161 56q-117 0 -178 -69.5t-61 -200.5v-1133h-169z" />
<glyph unicode="&#xe0;" horiz-adv-x="1129" d="M111 326q0 189 113.5 285t339.5 96h232v18q0 127 -75 196.5t-211 69.5q-86 0 -168 -23t-158 -69v170q91 39 176.5 58.5t166.5 19.5q219 0 327 -126t108 -382v-639h-166v170q-56 -102 -140.5 -150.5t-207.5 -48.5q-155 0 -246 96.5t-91 258.5zM276 338q0 -98 58 -155.5 t158 -57.5q138 0 221 108.5t83 288.5v41h-164q-201 0 -278.5 -51t-77.5 -174zM227 1638h177l254 -374h-138z" />
<glyph unicode="&#xe1;" horiz-adv-x="1129" d="M111 326q0 189 113.5 285t339.5 96h232v18q0 127 -75 196.5t-211 69.5q-86 0 -168 -23t-158 -69v170q91 39 176.5 58.5t166.5 19.5q219 0 327 -126t108 -382v-639h-166v170q-56 -102 -140.5 -150.5t-207.5 -48.5q-155 0 -246 96.5t-91 258.5zM276 338q0 -98 58 -155.5 t158 -57.5q138 0 221 108.5t83 288.5v41h-164q-201 0 -278.5 -51t-77.5 -174zM408 1262l252 376h179l-293 -376h-138z" />
<glyph unicode="&#xe2;" horiz-adv-x="1129" d="M111 326q0 189 113.5 285t339.5 96h232v18q0 127 -75 196.5t-211 69.5q-86 0 -168 -23t-158 -69v170q91 39 176.5 58.5t166.5 19.5q219 0 327 -126t108 -382v-639h-166v170q-56 -102 -140.5 -150.5t-207.5 -48.5q-155 0 -246 96.5t-91 258.5zM276 338q0 -98 58 -155.5 t158 -57.5q138 0 221 108.5t83 288.5v41h-164q-201 0 -278.5 -51t-77.5 -174zM248 1262l220 376h133l221 -376h-125l-162 245l-162 -245h-125z" />
<glyph unicode="&#xe3;" horiz-adv-x="1129" d="M111 326q0 189 113.5 285t339.5 96h232v18q0 127 -75 196.5t-211 69.5q-86 0 -168 -23t-158 -69v170q91 39 176.5 58.5t166.5 19.5q219 0 327 -126t108 -382v-639h-166v170q-56 -102 -140.5 -150.5t-207.5 -48.5q-155 0 -246 96.5t-91 258.5zM276 338q0 -98 58 -155.5 t158 -57.5q138 0 221 108.5t83 288.5v41h-164q-201 0 -278.5 -51t-77.5 -174zM238 1309q2 135 47.5 208.5t127.5 73.5q35 0 63.5 -14t61.5 -47l52 -55q20 -20 34.5 -29.5t26.5 -9.5q34 0 50.5 36.5t17.5 118.5h113q-2 -135 -48 -208.5t-128 -73.5q-34 0 -63 14t-62 47 l-51 55q-20 20 -35 29.5t-26 9.5q-35 0 -51 -36.5t-18 -118.5h-112z" />
<glyph unicode="&#xe4;" horiz-adv-x="1129" d="M111 326q0 189 113.5 285t339.5 96h232v18q0 127 -75 196.5t-211 69.5q-86 0 -168 -23t-158 -69v170q91 39 176.5 58.5t166.5 19.5q219 0 327 -126t108 -382v-639h-166v170q-56 -102 -140.5 -150.5t-207.5 -48.5q-155 0 -246 96.5t-91 258.5zM276 338q0 -98 58 -155.5 t158 -57.5q138 0 221 108.5t83 288.5v41h-164q-201 0 -278.5 -51t-77.5 -174zM268 1350v202h182v-202h-182zM619 1350v202h183v-202h-183z" />
<glyph unicode="&#xe5;" horiz-adv-x="1129" d="M111 326q0 189 113.5 285t339.5 96h232v18q0 127 -75 196.5t-211 69.5q-86 0 -168 -23t-158 -69v170q91 39 176.5 58.5t166.5 19.5q219 0 327 -126t108 -382v-639h-166v170q-56 -102 -140.5 -150.5t-207.5 -48.5q-155 0 -246 96.5t-91 258.5zM276 338q0 -98 58 -155.5 t158 -57.5q138 0 221 108.5t83 288.5v41h-164q-201 0 -278.5 -51t-77.5 -174zM288 1524q0 115 71.5 194.5t175.5 79.5q103 0 174.5 -79.5t71.5 -194.5t-71.5 -195t-174.5 -80q-104 0 -175.5 80t-71.5 195zM398 1524q0 -65 39 -108.5t98 -43.5q57 0 97 44t40 108 q0 63 -40 107t-97 44q-59 0 -98 -43.5t-39 -107.5z" />
<glyph unicode="&#xe6;" horiz-adv-x="1809" d="M111 326q0 189 113.5 285t339.5 96h232v18q0 127 -75 196.5t-211 69.5q-86 0 -168 -23t-158 -69v170q91 39 176.5 58.5t166.5 19.5q128 0 224 -48t145 -136q66 90 161.5 137t214.5 47q203 0 322 -145.5t119 -395.5v-90h-762q11 -191 103 -291t256 -100q94 0 184 26.5 t180 79.5v-174q-90 -42 -183.5 -64t-189.5 -22q-150 0 -261.5 60.5t-180.5 179.5q-66 -120 -163.5 -180t-225.5 -60q-170 0 -264.5 93.5t-94.5 261.5zM276 338q0 -98 58 -155.5t158 -57.5q138 0 221 108.5t83 288.5v41h-164q-201 0 -278.5 -51t-77.5 -174zM957 659l589 1 q-1 151 -75 241t-197 90q-138 0 -221.5 -87t-95.5 -245z" />
<glyph unicode="&#xe7;" horiz-adv-x="1013" d="M102 559q0 274 135.5 431t370.5 157q77 0 150 -17.5t141 -52.5v-172q-70 43 -140.5 64.5t-142.5 21.5q-162 0 -251 -113.5t-89 -318.5t89 -318.5t251 -113.5q72 0 142.5 21.5t140.5 64.5v-170q-69 -36 -143.5 -54t-157.5 -18q-228 0 -362 159t-134 429zM391 -240 q30 -17 63.5 -24.5t75.5 -7.5q53 0 80 24t27 70q0 30 -19 73.5t-60 104.5h107q50 -62 74 -114.5t24 -100.5q0 -89 -54 -134.5t-160 -45.5q-41 0 -80 6t-78 18v131z" />
<glyph unicode="&#xe8;" horiz-adv-x="1134" d="M102 549q0 275 133.5 436.5t360.5 161.5q203 0 321.5 -145.5t118.5 -395.5v-90h-762q11 -190 103.5 -289.5t256.5 -99.5q96 0 185.5 26t177.5 78v-174q-89 -42 -182.5 -64t-189.5 -22q-242 0 -382.5 156t-140.5 422zM280 659l590 1q-2 151 -76 241t-196 90 q-139 0 -222.5 -87t-95.5 -245zM278 1638h177l254 -374h-138z" />
<glyph unicode="&#xe9;" horiz-adv-x="1134" d="M102 549q0 275 133.5 436.5t360.5 161.5q203 0 321.5 -145.5t118.5 -395.5v-90h-762q11 -190 103.5 -289.5t256.5 -99.5q96 0 185.5 26t177.5 78v-174q-89 -42 -182.5 -64t-189.5 -22q-242 0 -382.5 156t-140.5 422zM280 659l590 1q-2 151 -76 241t-196 90 q-139 0 -222.5 -87t-95.5 -245zM459 1262l252 376h179l-293 -376h-138z" />
<glyph unicode="&#xea;" horiz-adv-x="1134" d="M102 549q0 275 133.5 436.5t360.5 161.5q203 0 321.5 -145.5t118.5 -395.5v-90h-762q11 -190 103.5 -289.5t256.5 -99.5q96 0 185.5 26t177.5 78v-174q-89 -42 -182.5 -64t-189.5 -22q-242 0 -382.5 156t-140.5 422zM280 659l590 1q-2 151 -76 241t-196 90 q-139 0 -222.5 -87t-95.5 -245zM299 1262l220 376h133l221 -376h-125l-162 245l-162 -245h-125z" />
<glyph unicode="&#xeb;" horiz-adv-x="1134" d="M102 549q0 275 133.5 436.5t360.5 161.5q203 0 321.5 -145.5t118.5 -395.5v-90h-762q11 -190 103.5 -289.5t256.5 -99.5q96 0 185.5 26t177.5 78v-174q-89 -42 -182.5 -64t-189.5 -22q-242 0 -382.5 156t-140.5 422zM280 659l590 1q-2 151 -76 241t-196 90 q-139 0 -222.5 -87t-95.5 -245zM319 1350v202h182v-202h-182zM670 1350v202h183v-202h-183z" />
<glyph unicode="&#xec;" horiz-adv-x="512" d="M-51 1638h177l254 -374h-138zM174 0v1120h165v-1120h-165zM256 1147z" />
<glyph unicode="&#xed;" horiz-adv-x="512" d="M130 1262l252 376h179l-293 -376h-138zM174 0v1120h165v-1120h-165zM256 1147z" />
<glyph unicode="&#xee;" horiz-adv-x="512" d="M174 0v1120h165v-1120h-165zM256 1147zM-30 1262l220 376h133l221 -376h-125l-162 245l-162 -245h-125z" />
<glyph unicode="&#xef;" horiz-adv-x="512" d="M174 0v1120h165v-1120h-165zM256 1147zM-10 1350v202h182v-202h-182zM341 1350v202h183v-202h-183z" />
<glyph unicode="&#xf0;" horiz-adv-x="1127" d="M102 537q0 250 124 405.5t323 155.5q16 0 39.5 -2.5t61.5 -7.5l-143 180l-287 -107l-30 99l253 92l-163 204h205l114 -145l300 111l30 -97l-266 -98l148 -186q113 -143 164.5 -287t51.5 -317q0 -255 -128 -410.5t-335 -155.5q-208 0 -335 155.5t-127 410.5zM276 537 q0 -188 78.5 -299t209.5 -111t209 111t78 299q0 122 -24 216t-73 162q-45 17 -84.5 25t-76.5 8q-150 0 -233.5 -108t-83.5 -303z" />
<glyph unicode="&#xf1;" horiz-adv-x="1168" d="M167 0v1120h167v-174q59 101 139.5 151t186.5 50q173 0 262.5 -119.5t89.5 -351.5v-676h-166v670q0 159 -56 238t-167 79q-134 0 -211.5 -95t-77.5 -259v-633h-167zM301 1309q2 135 47.5 208.5t127.5 73.5q35 0 63.5 -14t61.5 -47l52 -55q20 -20 34.5 -29.5t26.5 -9.5 q34 0 50.5 36.5t17.5 118.5h113q-2 -135 -48 -208.5t-128 -73.5q-34 0 -63 14t-62 47l-51 55q-20 20 -35 29.5t-26 9.5q-35 0 -51 -36.5t-18 -118.5h-112z" />
<glyph unicode="&#xf2;" horiz-adv-x="1127" d="M102 559q0 276 122.5 432t339.5 156q216 0 339.5 -156t123.5 -432q0 -275 -123.5 -431.5t-339.5 -156.5q-217 0 -339.5 156.5t-122.5 431.5zM276 559q0 -201 77 -316.5t211 -115.5q133 0 210 116t77 316q0 199 -77 315.5t-210 116.5t-210.5 -115.5t-77.5 -316.5z M257 1638h177l254 -374h-138z" />
<glyph unicode="&#xf3;" horiz-adv-x="1127" d="M102 559q0 276 122.5 432t339.5 156q216 0 339.5 -156t123.5 -432q0 -275 -123.5 -431.5t-339.5 -156.5q-217 0 -339.5 156.5t-122.5 431.5zM276 559q0 -201 77 -316.5t211 -115.5q133 0 210 116t77 316q0 199 -77 315.5t-210 116.5t-210.5 -115.5t-77.5 -316.5z M438 1262l252 376h179l-293 -376h-138z" />
<glyph unicode="&#xf4;" horiz-adv-x="1127" d="M102 559q0 276 122.5 432t339.5 156q216 0 339.5 -156t123.5 -432q0 -275 -123.5 -431.5t-339.5 -156.5q-217 0 -339.5 156.5t-122.5 431.5zM276 559q0 -201 77 -316.5t211 -115.5q133 0 210 116t77 316q0 199 -77 315.5t-210 116.5t-210.5 -115.5t-77.5 -316.5z M278 1262l220 376h133l221 -376h-125l-162 245l-162 -245h-125z" />
<glyph unicode="&#xf5;" horiz-adv-x="1127" d="M102 559q0 276 122.5 432t339.5 156q216 0 339.5 -156t123.5 -432q0 -275 -123.5 -431.5t-339.5 -156.5q-217 0 -339.5 156.5t-122.5 431.5zM276 559q0 -201 77 -316.5t211 -115.5q133 0 210 116t77 316q0 199 -77 315.5t-210 116.5t-210.5 -115.5t-77.5 -316.5z M268 1309q2 135 47.5 208.5t127.5 73.5q35 0 63.5 -14t61.5 -47l52 -55q20 -20 34.5 -29.5t26.5 -9.5q34 0 50.5 36.5t17.5 118.5h113q-2 -135 -48 -208.5t-128 -73.5q-34 0 -63 14t-62 47l-51 55q-20 20 -35 29.5t-26 9.5q-35 0 -51 -36.5t-18 -118.5h-112z" />
<glyph unicode="&#xf6;" horiz-adv-x="1127" d="M102 559q0 276 122.5 432t339.5 156q216 0 339.5 -156t123.5 -432q0 -275 -123.5 -431.5t-339.5 -156.5q-217 0 -339.5 156.5t-122.5 431.5zM276 559q0 -201 77 -316.5t211 -115.5q133 0 210 116t77 316q0 199 -77 315.5t-210 116.5t-210.5 -115.5t-77.5 -316.5z M298 1350v202h182v-202h-182zM649 1350v202h183v-202h-183z" />
<glyph unicode="&#xf7;" d="M195 557v170h1154v-170h-1154zM662 150v245h221v-245h-221zM662 889v246h221v-246h-221z" />
<glyph unicode="&#xf8;" horiz-adv-x="1127" d="M65 -16l134 182q-49 77 -73 175.5t-24 217.5q0 276 122.5 432t339.5 156q84 0 155.5 -25.5t131.5 -77.5l125 168l86 -79l-131 -179q47 -77 71.5 -176t24.5 -219q0 -275 -123.5 -431.5t-339.5 -156.5q-86 0 -158.5 26t-129.5 77l-125 -168zM276 545q0 -72 8.5 -127 t26.5 -101l440 592q-38 41 -84.5 61.5t-102.5 20.5q-136 0 -212 -117.5t-76 -328.5zM376 209q37 -42 83.5 -62t104.5 -20q133 0 210 116t77 316q0 79 -9 137.5t-28 104.5z" />
<glyph unicode="&#xf9;" horiz-adv-x="1168" d="M157 442v678h165v-671q0 -159 56 -238.5t167 -79.5q135 0 212.5 95t77.5 259v635h166v-1120h-166v172q-60 -102 -139.5 -151.5t-185.5 -49.5q-173 0 -263 120t-90 351zM573 1147zM264 1638h177l254 -374h-138z" />
<glyph unicode="&#xfa;" horiz-adv-x="1168" d="M157 442v678h165v-671q0 -159 56 -238.5t167 -79.5q135 0 212.5 95t77.5 259v635h166v-1120h-166v172q-60 -102 -139.5 -151.5t-185.5 -49.5q-173 0 -263 120t-90 351zM573 1147zM445 1262l252 376h179l-293 -376h-138z" />
<glyph unicode="&#xfb;" horiz-adv-x="1168" d="M157 442v678h165v-671q0 -159 56 -238.5t167 -79.5q135 0 212.5 95t77.5 259v635h166v-1120h-166v172q-60 -102 -139.5 -151.5t-185.5 -49.5q-173 0 -263 120t-90 351zM573 1147zM285 1262l220 376h133l221 -376h-125l-162 245l-162 -245h-125z" />
<glyph unicode="&#xfc;" horiz-adv-x="1168" d="M157 442v678h165v-671q0 -159 56 -238.5t167 -79.5q135 0 212.5 95t77.5 259v635h166v-1120h-166v172q-60 -102 -139.5 -151.5t-185.5 -49.5q-173 0 -263 120t-90 351zM573 1147zM305 1350v202h182v-202h-182zM656 1350v202h183v-202h-183z" />
<glyph unicode="&#xfd;" horiz-adv-x="1090" d="M55 1120h175l315 -876l315 876h176l-443 -1224q-70 -200 -136.5 -261t-178.5 -61h-132v154h97q68 0 106 36t84 170l30 84zM419 1262l252 376h179l-293 -376h-138z" />
<glyph unicode="&#xfe;" horiz-adv-x="1170" d="M167 -426v1982h167v-606q52 100 131.5 148.5t190.5 48.5q184 0 298.5 -162t114.5 -426t-114.5 -426t-298.5 -162q-111 0 -190.5 48.5t-131.5 148.5v-594h-167zM334 559q0 -203 75 -318.5t207 -115.5q131 0 206 115.5t75 318.5t-75 318.5t-206 115.5q-132 0 -207 -115.5 t-75 -318.5z" />
<glyph unicode="&#xff;" horiz-adv-x="1090" d="M55 1120h175l315 -876l315 876h176l-443 -1224q-70 -200 -136.5 -261t-178.5 -61h-132v154h97q68 0 106 36t84 170l30 84zM279 1350v202h182v-202h-182zM630 1350v202h183v-202h-183z" />
<glyph unicode="&#x100;" horiz-adv-x="1260" d="M362 1693v148h538v-148h-538zM14 0l513 1493h207l512 -1493h-189l-123 383h-606l-122 -383h-192zM383 551h495l-248 743z" />
<glyph unicode="&#x101;" horiz-adv-x="1129" d="M259 1378v148h538v-148h-538zM111 326q0 189 113.5 285t339.5 96h232v18q0 127 -75 196.5t-211 69.5q-86 0 -168 -23t-158 -69v170q91 39 176.5 58.5t166.5 19.5q219 0 327 -126t108 -382v-639h-166v170q-56 -102 -140.5 -150.5t-207.5 -48.5q-155 0 -246 96.5t-91 258.5 zM276 338q0 -98 58 -155.5t158 -57.5q138 0 221 108.5t83 288.5v41h-164q-201 0 -278.5 -51t-77.5 -174z" />
<glyph unicode="&#x102;" horiz-adv-x="1260" d="M364 1938h106q10 -75 53.5 -112.5t122.5 -37.5q77 0 120.5 37t54.5 113h106q-8 -143 -79.5 -215t-201.5 -72q-131 0 -202 72t-80 215zM14 0l513 1493h207l512 -1493h-189l-123 383h-606l-122 -383h-192zM383 551h495l-248 743z" />
<glyph unicode="&#x103;" horiz-adv-x="1129" d="M250 1567h106q10 -75 53.5 -112.5t122.5 -37.5q77 0 120.5 37t54.5 113h106q-8 -143 -79.5 -215t-201.5 -72q-131 0 -202 72t-80 215zM111 326q0 189 113.5 285t339.5 96h232v18q0 127 -75 196.5t-211 69.5q-86 0 -168 -23t-158 -69v170q91 39 176.5 58.5t166.5 19.5 q219 0 327 -126t108 -382v-639h-166v170q-56 -102 -140.5 -150.5t-207.5 -48.5q-155 0 -246 96.5t-91 258.5zM276 338q0 -98 58 -155.5t158 -57.5q138 0 221 108.5t83 288.5v41h-164q-201 0 -278.5 -51t-77.5 -174z" />
<glyph unicode="&#x104;" horiz-adv-x="1260" d="M14 0l513 1493h207l512 -1493h-189l-123 383h-606l-122 -383h-192zM383 551h495l-248 743zM965 -215q0 48 23.5 100.5t73.5 114.5h107q-40 -61 -59.5 -105t-19.5 -75q0 -46 24.5 -69t73.5 -23q29 0 57 7.5t55 22.5v-133q-34 -10 -64.5 -15t-57.5 -5q-110 0 -161.5 43.5 t-51.5 136.5z" />
<glyph unicode="&#x105;" horiz-adv-x="1129" d="M111 326q0 189 113.5 285t339.5 96h232v18q0 127 -75 196.5t-211 69.5q-86 0 -168 -23t-158 -69v170q91 39 176.5 58.5t166.5 19.5q219 0 327 -126t108 -382v-639h-166v170q-56 -102 -140.5 -150.5t-207.5 -48.5q-155 0 -246 96.5t-91 258.5zM276 338q0 -98 58 -155.5 t158 -57.5q138 0 221 108.5t83 288.5v41h-164q-201 0 -278.5 -51t-77.5 -174zM701 -215q0 48 23.5 100.5t73.5 114.5h107q-40 -61 -59.5 -105t-19.5 -75q0 -46 24.5 -69t73.5 -23q29 0 57 7.5t55 22.5v-133q-34 -10 -64.5 -15t-57.5 -5q-110 0 -161.5 43.5t-51.5 136.5z" />
<glyph unicode="&#x106;" horiz-adv-x="1287" d="M104 745q0 360 175 567.5t481 207.5q120 0 227 -35.5t200 -106.5v-213q-92 95 -196 142t-221 47q-230 0 -352.5 -156.5t-122.5 -452.5q0 -295 122.5 -451.5t352.5 -156.5q117 0 221 47t196 142v-211q-95 -72 -202 -108t-225 -36q-306 0 -481 207.5t-175 566.5zM604 1635 l177 264h166l-205 -264h-138z" />
<glyph unicode="&#x107;" horiz-adv-x="1013" d="M102 559q0 274 135.5 431t370.5 157q77 0 150 -17.5t141 -52.5v-172q-70 43 -140.5 64.5t-142.5 21.5q-162 0 -251 -113.5t-89 -318.5t89 -318.5t251 -113.5q72 0 142.5 21.5t140.5 64.5v-170q-69 -36 -143.5 -54t-157.5 -18q-228 0 -362 159t-134 429zM457 1262l252 376 h179l-293 -376h-138z" />
<glyph unicode="&#x108;" horiz-adv-x="1287" d="M485 1635l190 266h169l190 -266h-125l-150 178l-149 -178h-125zM104 745q0 360 175 567.5t481 207.5q120 0 227 -35.5t200 -106.5v-213q-92 95 -196 142t-221 47q-230 0 -352.5 -156.5t-122.5 -452.5q0 -295 122.5 -451.5t352.5 -156.5q117 0 221 47t196 142v-211 q-95 -72 -202 -108t-225 -36q-306 0 -481 207.5t-175 566.5z" />
<glyph unicode="&#x109;" horiz-adv-x="1013" d="M102 559q0 274 135.5 431t370.5 157q77 0 150 -17.5t141 -52.5v-172q-70 43 -140.5 64.5t-142.5 21.5q-162 0 -251 -113.5t-89 -318.5t89 -318.5t251 -113.5q72 0 142.5 21.5t140.5 64.5v-170q-69 -36 -143.5 -54t-157.5 -18q-228 0 -362 159t-134 429zM322 1262l220 376 h133l221 -376h-125l-162 245l-162 -245h-125z" />
<glyph unicode="&#x10a;" horiz-adv-x="1287" d="M104 745q0 360 175 567.5t481 207.5q120 0 227 -35.5t200 -106.5v-213q-92 95 -196 142t-221 47q-230 0 -352.5 -156.5t-122.5 -452.5q0 -295 122.5 -451.5t352.5 -156.5q117 0 221 47t196 142v-211q-95 -72 -202 -108t-225 -36q-306 0 -481 207.5t-175 566.5zM667 1667 v205h184v-205h-184z" />
<glyph unicode="&#x10b;" horiz-adv-x="1013" d="M102 559q0 274 135.5 431t370.5 157q77 0 150 -17.5t141 -52.5v-172q-70 43 -140.5 64.5t-142.5 21.5q-162 0 -251 -113.5t-89 -318.5t89 -318.5t251 -113.5q72 0 142.5 21.5t140.5 64.5v-170q-69 -36 -143.5 -54t-157.5 -18q-228 0 -362 159t-134 429zM517 1348v204h184 v-204h-184z" />
<glyph unicode="&#x10c;" horiz-adv-x="1287" d="M104 745q0 360 175 567.5t481 207.5q120 0 227 -35.5t200 -106.5v-213q-92 95 -196 142t-221 47q-230 0 -352.5 -156.5t-122.5 -452.5q0 -295 122.5 -451.5t352.5 -156.5q117 0 221 47t196 142v-211q-95 -72 -202 -108t-225 -36q-306 0 -481 207.5t-175 566.5zM457 1901 h125l149 -178l150 178h125l-190 -266h-169z" />
<glyph unicode="&#x10d;" horiz-adv-x="1013" d="M102 559q0 274 135.5 431t370.5 157q77 0 150 -17.5t141 -52.5v-172q-70 43 -140.5 64.5t-142.5 21.5q-162 0 -251 -113.5t-89 -318.5t89 -318.5t251 -113.5q72 0 142.5 21.5t140.5 64.5v-170q-69 -36 -143.5 -54t-157.5 -18q-228 0 -362 159t-134 429zM297 1638h125 l162 -245l162 245h125l-221 -376h-133z" />
<glyph unicode="&#x10e;" horiz-adv-x="1419" d="M181 0v1493h373q391 0 573.5 -180.5t182.5 -564.5q0 -386 -183.5 -567t-572.5 -181h-373zM363 166h219q278 0 407.5 140t129.5 442q0 300 -129.5 439.5t-407.5 139.5h-219v-1161zM399 1921h125l149 -178l150 178h125l-190 -266h-169z" />
<glyph unicode="&#x10f;" horiz-adv-x="1170" d="M102 559q0 264 114.5 426t297.5 162q112 0 191.5 -48.5t131.5 -148.5v606h166v-1556h-166v168q-52 -100 -131.5 -148.5t-191.5 -48.5q-183 0 -297.5 162t-114.5 426zM273 559q0 -203 75 -318.5t206 -115.5q132 0 207.5 115.5t75.5 318.5t-75.5 318.5t-207.5 115.5 q-131 0 -206 -115.5t-75 -318.5zM1106 1178l64 376h179l-105 -376h-138z" />
<glyph unicode="&#x110;" horiz-adv-x="1428" d="M9 700v144h181v649h374q390 0 572.5 -180.5t182.5 -564.5q0 -386 -183 -567t-572 -181h-374v700h-181zM373 166h218q278 0 407.5 140t129.5 442q0 300 -129.5 439.5t-407.5 139.5h-218v-483h302v-144h-302v-534z" />
<glyph unicode="&#x111;" horiz-adv-x="1170" d="M102 559q0 264 114.5 426t297.5 162q112 0 191.5 -48.5t131.5 -148.5v334h-293v125h293v147h166v-147h138v-125h-138v-1284h-166v168q-52 -100 -131.5 -148.5t-191.5 -48.5q-183 0 -297.5 162t-114.5 426zM273 559q0 -203 75 -318.5t206 -115.5q132 0 207.5 115.5 t75.5 318.5t-75.5 318.5t-207.5 115.5q-131 0 -206 -115.5t-75 -318.5z" />
<glyph unicode="&#x112;" horiz-adv-x="1164" d="M181 0v1493h849v-170h-667v-442h640v-170h-640v-541h684v-170h-866zM337 1695v148h538v-148h-538z" />
<glyph unicode="&#x113;" horiz-adv-x="1134" d="M327 1378v148h538v-148h-538zM102 549q0 275 133.5 436.5t360.5 161.5q203 0 321.5 -145.5t118.5 -395.5v-90h-762q11 -190 103.5 -289.5t256.5 -99.5q96 0 185.5 26t177.5 78v-174q-89 -42 -182.5 -64t-189.5 -22q-242 0 -382.5 156t-140.5 422zM280 659l590 1 q-2 151 -76 241t-196 90q-139 0 -222.5 -87t-95.5 -245z" />
<glyph unicode="&#x114;" horiz-adv-x="1164" d="M324 1901h106q11 -54 55.5 -82.5t119.5 -28.5q74 0 117.5 27.5t58.5 83.5h106q-9 -119 -81 -180.5t-201 -61.5t-201 61t-80 181zM181 0v1493h849v-170h-667v-442h640v-170h-640v-541h684v-170h-866z" />
<glyph unicode="&#x115;" horiz-adv-x="1134" d="M314 1608h106q10 -75 53.5 -112.5t122.5 -37.5q77 0 120.5 37t54.5 113h106q-8 -143 -79.5 -215t-201.5 -72q-131 0 -202 72t-80 215zM102 549q0 275 133.5 436.5t360.5 161.5q203 0 321.5 -145.5t118.5 -395.5v-90h-762q11 -190 103.5 -289.5t256.5 -99.5q96 0 185.5 26 t177.5 78v-174q-89 -42 -182.5 -64t-189.5 -22q-242 0 -382.5 156t-140.5 422zM280 659l590 1q-2 151 -76 241t-196 90q-139 0 -222.5 -87t-95.5 -245z" />
<glyph unicode="&#x116;" horiz-adv-x="1164" d="M181 0v1493h849v-170h-667v-442h640v-170h-640v-541h684v-170h-866zM513 1667v205h184v-205h-184z" />
<glyph unicode="&#x117;" horiz-adv-x="1134" d="M102 549q0 275 133.5 436.5t360.5 161.5q203 0 321.5 -145.5t118.5 -395.5v-90h-762q11 -190 103.5 -289.5t256.5 -99.5q96 0 185.5 26t177.5 78v-174q-89 -42 -182.5 -64t-189.5 -22q-242 0 -382.5 156t-140.5 422zM280 659l590 1q-2 151 -76 241t-196 90 q-139 0 -222.5 -87t-95.5 -245zM504 1348v204h184v-204h-184z" />
<glyph unicode="&#x118;" horiz-adv-x="1164" d="M181 0v1493h849v-170h-667v-442h640v-170h-640v-541h684v-170h-866zM713 -215q0 48 23.5 100.5t73.5 114.5h107q-40 -61 -59.5 -105t-19.5 -75q0 -46 24.5 -69t73.5 -23q29 0 57 7.5t55 22.5v-133q-34 -10 -64.5 -15t-57.5 -5q-110 0 -161.5 43.5t-51.5 136.5z" />
<glyph unicode="&#x119;" horiz-adv-x="1134" d="M102 549q0 275 133.5 436.5t360.5 161.5q203 0 321.5 -145.5t118.5 -395.5v-90h-762q11 -190 103.5 -289.5t256.5 -99.5q96 0 185.5 26t177.5 78v-174q-89 -42 -182.5 -64t-189.5 -22q-242 0 -382.5 156t-140.5 422zM280 659l590 1q-2 151 -76 241t-196 90 q-139 0 -222.5 -87t-95.5 -245zM637 -215q0 48 23.5 100.5t73.5 114.5h107q-40 -61 -59.5 -105t-19.5 -75q0 -46 24.5 -69t73.5 -23q29 0 57 7.5t55 22.5v-133q-34 -10 -64.5 -15t-57.5 -5q-110 0 -161.5 43.5t-51.5 136.5z" />
<glyph unicode="&#x11a;" horiz-adv-x="1164" d="M181 0v1493h849v-170h-667v-442h640v-170h-640v-541h684v-170h-866zM336 1895h125l149 -178l150 178h125l-190 -266h-169z" />
<glyph unicode="&#x11b;" horiz-adv-x="1134" d="M102 549q0 275 133.5 436.5t360.5 161.5q203 0 321.5 -145.5t118.5 -395.5v-90h-762q11 -190 103.5 -289.5t256.5 -99.5q96 0 185.5 26t177.5 78v-174q-89 -42 -182.5 -64t-189.5 -22q-242 0 -382.5 156t-140.5 422zM280 659l590 1q-2 151 -76 241t-196 90 q-139 0 -222.5 -87t-95.5 -245zM307 1633h125l162 -245l162 245h125l-221 -376h-133z" />
<glyph unicode="&#x11c;" horiz-adv-x="1428" d="M500 1635l190 266h169l190 -266h-125l-150 178l-149 -178h-125zM104 745q0 366 177.5 570.5t492.5 204.5q131 0 249.5 -36t218.5 -106v-215q-101 95 -214.5 143t-238.5 48q-246 0 -370 -153t-124 -456q0 -302 124 -455t370 -153q97 0 172.5 18.5t135.5 57.5v401h-297v166 h477v-641q-105 -83 -232 -125.5t-271 -42.5q-315 0 -492.5 204.5t-177.5 569.5z" />
<glyph unicode="&#x11d;" horiz-adv-x="1170" d="M268 1262l220 376h133l221 -376h-125l-162 245l-162 -245h-125zM102 573q0 260 113 417t299 157q112 0 192 -49t131 -148v170h166v-981q0 -286 -114.5 -425.5t-350.5 -139.5q-87 0 -164.5 14.5t-150.5 44.5v179q73 -44 144 -65t145 -21q163 0 244 94.5t81 285.5v91 q-51 -99 -131 -148t-192 -49q-186 0 -299 157t-113 416zM273 573q0 -199 74 -309t207 -110q134 0 208.5 110t74.5 309q0 200 -74.5 310t-208.5 110q-133 0 -207 -110t-74 -310z" />
<glyph unicode="&#x11e;" horiz-adv-x="1428" d="M104 745q0 366 177.5 570.5t492.5 204.5q131 0 249.5 -36t218.5 -106v-215q-101 95 -214.5 143t-238.5 48q-246 0 -370 -153t-124 -456q0 -302 124 -455t370 -153q97 0 172.5 18.5t135.5 57.5v401h-297v166h477v-641q-105 -83 -232 -125.5t-271 -42.5 q-315 0 -492.5 204.5t-177.5 569.5zM434 1901h106q11 -54 55.5 -82.5t119.5 -28.5q74 0 117.5 27.5t58.5 83.5h106q-9 -119 -81 -180.5t-201 -61.5t-201 61t-80 181z" />
<glyph unicode="&#x11f;" horiz-adv-x="1170" d="M102 573q0 260 113 417t299 157q112 0 192 -49t131 -148v170h166v-981q0 -286 -114.5 -425.5t-350.5 -139.5q-87 0 -164.5 14.5t-150.5 44.5v179q73 -44 144 -65t145 -21q163 0 244 94.5t81 285.5v91q-51 -99 -131 -148t-192 -49q-186 0 -299 157t-113 416zM273 573 q0 -199 74 -309t207 -110q134 0 208.5 110t74.5 309q0 200 -74.5 310t-208.5 110q-133 0 -207 -110t-74 -310zM304 1608h106q10 -75 53.5 -112.5t122.5 -37.5q77 0 120.5 37t54.5 113h106q-8 -143 -79.5 -215t-201.5 -72q-131 0 -202 72t-80 215z" />
<glyph unicode="&#x120;" horiz-adv-x="1428" d="M682 1667v205h184v-205h-184zM104 745q0 366 177.5 570.5t492.5 204.5q131 0 249.5 -36t218.5 -106v-215q-101 95 -214.5 143t-238.5 48q-246 0 -370 -153t-124 -456q0 -302 124 -455t370 -153q97 0 172.5 18.5t135.5 57.5v401h-297v166h477v-641q-105 -83 -232 -125.5 t-271 -42.5q-315 0 -492.5 204.5t-177.5 569.5z" />
<glyph unicode="&#x121;" horiz-adv-x="1170" d="M463 1348v204h184v-204h-184zM102 573q0 260 113 417t299 157q112 0 192 -49t131 -148v170h166v-981q0 -286 -114.5 -425.5t-350.5 -139.5q-87 0 -164.5 14.5t-150.5 44.5v179q73 -44 144 -65t145 -21q163 0 244 94.5t81 285.5v91q-51 -99 -131 -148t-192 -49 q-186 0 -299 157t-113 416zM273 573q0 -199 74 -309t207 -110q134 0 208.5 110t74.5 309q0 200 -74.5 310t-208.5 110q-133 0 -207 -110t-74 -310z" />
<glyph unicode="&#x122;" horiz-adv-x="1428" d="M640 -511l74 320h190l-148 -320h-116zM104 745q0 366 177.5 570.5t492.5 204.5q131 0 249.5 -36t218.5 -106v-215q-101 95 -214.5 143t-238.5 48q-246 0 -370 -153t-124 -456q0 -302 124 -455t370 -153q97 0 172.5 18.5t135.5 57.5v401h-297v166h477v-641 q-105 -83 -232 -125.5t-271 -42.5q-315 0 -492.5 204.5t-177.5 569.5z" />
<glyph unicode="&#x123;" horiz-adv-x="1170" d="M459 1269l148 319h116l-74 -319h-190zM102 573q0 260 113 417t299 157q112 0 192 -49t131 -148v170h166v-981q0 -286 -114.5 -425.5t-350.5 -139.5q-87 0 -164.5 14.5t-150.5 44.5v179q73 -44 144 -65t145 -21q163 0 244 94.5t81 285.5v91q-51 -99 -131 -148t-192 -49 q-186 0 -299 157t-113 416zM273 573q0 -199 74 -309t207 -110q134 0 208.5 110t74.5 309q0 200 -74.5 310t-208.5 110q-133 0 -207 -110t-74 -310z" />
<glyph unicode="&#x124;" horiz-adv-x="1386" d="M419 1635l190 266h169l190 -266h-125l-150 178l-149 -178h-125zM181 0v1493h182v-612h660v612h182v-1493h-182v711h-660v-711h-182z" />
<glyph unicode="&#x125;" horiz-adv-x="1168" d="M-24 1635l190 266h169l190 -266h-125l-150 178l-149 -178h-125zM167 0v1556h167v-610q59 101 139.5 151t186.5 50q173 0 262.5 -119.5t89.5 -351.5v-676h-166v670q0 159 -56 238t-167 79q-134 0 -211.5 -95t-77.5 -259v-633h-167z" />
<glyph unicode="&#x126;" horiz-adv-x="1688" d="M181 1105v164h151v224h182v-224h660v224h182v-224h152v-164h-152v-1105h-182v711h-660v-711h-182v1105h-151zM514 881h660v224h-660v-224z" />
<glyph unicode="&#x127;" horiz-adv-x="1280" d="M108 1270v164h112v122h167v-122h317v-164h-317v-324q59 101 140 151t186 50q173 0 262.5 -119.5t89.5 -351.5v-676h-166v670q0 159 -55.5 238t-167.5 79q-134 0 -211.5 -95t-77.5 -259v-633h-167v1270h-112z" />
<glyph unicode="&#x128;" horiz-adv-x="543" d="M-25 1667q0 101 46.5 160t123.5 59q33 0 60.5 -8t70.5 -35l51 -30q21 -13 36 -19t29 -6q29 0 47 25.5t18 66.5v6h112q-2 -100 -48 -159.5t-122 -59.5q-30 0 -57 8t-73 35l-52 33q-22 14 -36 19.5t-25 5.5q-32 0 -50 -25t-18 -70v-6h-113zM181 0v1493h182v-1493h-182z" />
<glyph unicode="&#x129;" horiz-adv-x="512" d="M-40 1309q2 135 47.5 208.5t127.5 73.5q35 0 63.5 -14t61.5 -47l52 -55q20 -20 34.5 -29.5t26.5 -9.5q34 0 50.5 36.5t17.5 118.5h113q-2 -135 -48 -208.5t-128 -73.5q-34 0 -63 14t-62 47l-51 55q-20 20 -35 29.5t-26 9.5q-35 0 -51 -36.5t-18 -118.5h-112zM174 0v1120 h165v-1120h-165zM256 1147z" />
<glyph unicode="&#x12a;" horiz-adv-x="543" d="M3 1693v148h538v-148h-538zM181 0v1493h182v-1493h-182z" />
<glyph unicode="&#x12b;" horiz-adv-x="512" d="M-12 1377v148h538v-148h-538zM174 0v1120h165v-1120h-165zM256 1147z" />
<glyph unicode="&#x12c;" horiz-adv-x="543" d="M-9 1901h106q11 -54 55.5 -82.5t119.5 -28.5q74 0 117.5 27.5t58.5 83.5h106q-9 -119 -81 -180.5t-201 -61.5t-201 61t-80 181zM181 0v1493h182v-1493h-182z" />
<glyph unicode="&#x12d;" horiz-adv-x="512" d="M-25 1608h106q10 -75 53.5 -112.5t122.5 -37.5q77 0 120.5 37t54.5 113h106q-8 -143 -79.5 -215t-201.5 -72q-131 0 -202 72t-80 215zM174 0v1120h165v-1120h-165zM256 1147z" />
<glyph unicode="&#x12e;" horiz-adv-x="543" d="M159 -215q0 48 23.5 100.5t73.5 114.5h107q-40 -61 -59.5 -105t-19.5 -75q0 -46 24.5 -69t73.5 -23q29 0 57 7.5t55 22.5v-133q-34 -10 -64.5 -15t-57.5 -5q-110 0 -161.5 43.5t-51.5 136.5zM181 0v1493h182v-1493h-182z" />
<glyph unicode="&#x12f;" horiz-adv-x="512" d="M135 -215q0 48 23.5 100.5t73.5 114.5h107q-40 -61 -59.5 -105t-19.5 -75q0 -46 24.5 -69t73.5 -23q29 0 57 7.5t55 22.5v-133q-34 -10 -64.5 -15t-57.5 -5q-110 0 -161.5 43.5t-51.5 136.5zM174 0v1120h165v-1120h-165zM174 1323v233h165v-233h-165z" />
<glyph unicode="&#x130;" horiz-adv-x="543" d="M181 0v1493h182v-1493h-182zM181 1667v205h184v-205h-184z" />
<glyph unicode="&#x131;" horiz-adv-x="512" d="M174 0v1120h165v-1120h-165zM256 1147z" />
<glyph unicode="&#x132;" horiz-adv-x="1087" d="M449 -240h56q121 0 170.5 75t49.5 269v1389h182v-1389q0 -270 -92.5 -392t-296.5 -122h-69v170zM181 0v1493h182v-1493h-182z" />
<glyph unicode="&#x133;" horiz-adv-x="1024" d="M478 -270h44q94 0 128.5 48.5t34.5 201.5v1140h165v-1140q0 -214 -73 -310t-236 -96h-63v156zM685 1323v233h165v-233h-165zM174 0v1120h165v-1120h-165zM174 1323v233h165v-233h-165z" />
<glyph unicode="&#x134;" horiz-adv-x="543" d="M-2 1635l190 266h169l190 -266h-125l-150 178l-149 -178h-125zM-95 -240h56q121 0 170.5 75t49.5 269v1389h182v-1389q0 -270 -92.5 -392t-296.5 -122h-69v170z" />
<glyph unicode="&#x135;" horiz-adv-x="512" d="M-30 1262l220 376h133l221 -376h-125l-162 245l-162 -245h-125zM-33 -270h44q94 0 128.5 48.5t34.5 201.5v1140h165v-1140q0 -214 -73 -310t-236 -96h-63v156z" />
<glyph unicode="&#x136;" horiz-adv-x="1208" d="M580 -482l74 320h190l-148 -320h-116zM181 0v1493h182v-631l603 631h234l-667 -696l714 -797h-239l-645 719v-719h-182z" />
<glyph unicode="&#x137;" horiz-adv-x="1067" d="M481 -482l74 320h190l-148 -320h-116zM167 0v1556h167v-919l494 483h212l-535 -524l557 -596h-216l-512 547v-547h-167z" />
<glyph unicode="&#x138;" horiz-adv-x="1067" d="M167 0v1120h167v-485l494 485h212l-535 -526l557 -594h-216l-512 545v-545h-167z" />
<glyph unicode="&#x139;" horiz-adv-x="1026" d="M202 1636l177 264h166l-205 -264h-138zM181 0v1493h182v-1323h654v-170h-836z" />
<glyph unicode="&#x13a;" horiz-adv-x="512" d="M184 1636l177 264h166l-205 -264h-138zM174 0v1556h165v-1556h-165z" />
<glyph unicode="&#x13b;" horiz-adv-x="1026" d="M465 -482l74 320h190l-148 -320h-116zM181 0v1493h182v-1323h654v-170h-836z" />
<glyph unicode="&#x13c;" horiz-adv-x="512" d="M122 -482l74 320h190l-148 -320h-116zM174 0v1556h165v-1556h-165z" />
<glyph unicode="&#x13d;" horiz-adv-x="1026" d="M540 1117l64 376h179l-105 -376h-138zM181 0v1493h182v-1323h654v-170h-836z" />
<glyph unicode="&#x13e;" horiz-adv-x="691" d="M448 1180l64 376h179l-105 -376h-138zM174 0v1556h165v-1556h-165z" />
<glyph unicode="&#x13f;" horiz-adv-x="1026" d="M702 703v254h190v-254h-190zM181 0v1493h182v-1323h654v-170h-836z" />
<glyph unicode="&#x140;" horiz-adv-x="630" d="M390 699v254h190v-254h-190zM174 0v1556h165v-1556h-165z" />
<glyph unicode="&#x141;" horiz-adv-x="1035" d="M-13 575l203 158v760h183v-616l281 219l72 -111l-353 -274v-541h654v-170h-837v571l-133 -106z" />
<glyph unicode="&#x142;" horiz-adv-x="523" d="M2 684l177 141v731h166v-602l112 90l69 -106l-181 -141v-797h-166v666l-111 -88z" />
<glyph unicode="&#x143;" horiz-adv-x="1378" d="M511 1636l177 264h166l-205 -264h-138zM181 0v1493h245l596 -1249v1249h176v-1493h-245l-596 1249v-1249h-176z" />
<glyph unicode="&#x144;" horiz-adv-x="1168" d="M394 1269l252 376h179l-293 -376h-138zM167 0v1120h167v-174q59 101 139.5 151t186.5 50q173 0 262.5 -119.5t89.5 -351.5v-676h-166v670q0 159 -56 238t-167 79q-134 0 -211.5 -95t-77.5 -259v-633h-167z" />
<glyph unicode="&#x145;" horiz-adv-x="1378" d="M556 -482l74 320h190l-148 -320h-116zM181 0v1493h245l596 -1249v1249h176v-1493h-245l-596 1249v-1249h-176z" />
<glyph unicode="&#x146;" horiz-adv-x="1168" d="M456 -482l74 320h190l-148 -320h-116zM167 0v1120h167v-174q59 101 139.5 151t186.5 50q173 0 262.5 -119.5t89.5 -351.5v-676h-166v670q0 159 -56 238t-167 79q-134 0 -211.5 -95t-77.5 -259v-633h-167z" />
<glyph unicode="&#x147;" horiz-adv-x="1378" d="M181 0v1493h245l596 -1249v1249h176v-1493h-245l-596 1249v-1249h-176zM407 1887h125l149 -178l150 178h125l-190 -266h-169z" />
<glyph unicode="&#x148;" horiz-adv-x="1168" d="M167 0v1120h167v-174q59 101 139.5 151t186.5 50q173 0 262.5 -119.5t89.5 -351.5v-676h-166v670q0 159 -56 238t-167 79q-134 0 -211.5 -95t-77.5 -259v-633h-167zM301 1638h125l162 -245l162 245h125l-221 -376h-133z" />
<glyph unicode="&#x149;" horiz-adv-x="1499" d="M474 0v1120h167v-174q59 101 139.5 151t186.5 50q173 0 262.5 -119.5t89.5 -351.5v-676h-166v670q0 159 -56 238t-167 79q-134 0 -211.5 -95t-77.5 -259v-633h-167zM184 1022l74 319v152h190v-152l-148 -319h-116z" />
<glyph unicode="&#x14a;" horiz-adv-x="1378" d="M181 0v1493h182v-241q70 134 164 201q96 67 233 67q205 0 309.5 -159.5t104.5 -467.5v-913q0 -213 -73 -310q-73 -96 -236 -96h-78v156h44q92 0 127.5 45t35.5 205v915q0 428 -277 428q-161 0 -257.5 -127.5t-96.5 -349.5v-846h-182z" />
<glyph unicode="&#x14b;" horiz-adv-x="1168" d="M167 0v1120h167v-174q59 101 139 151q81 50 187 50q173 0 262 -119q90 -120 90 -352v-696q0 -214 -74 -310q-73 -96 -236 -96h-229v156h210q95 0 129 48q34 49 34 202v690q0 159 -56 238t-167 79q-134 0 -211.5 -95t-77.5 -259v-633h-167z" />
<glyph unicode="&#x14c;" horiz-adv-x="1450" d="M458 1693v148h538v-148h-538zM104 745q0 354 169.5 564.5t452.5 210.5t452 -210.5t169 -564.5q0 -353 -169 -563.5t-452 -210.5t-452.5 210t-169.5 564zM295 745q0 -282 116.5 -446t314.5 -164t314 164t116 446q0 283 -116 447t-314 164t-314.5 -164t-116.5 -447z" />
<glyph unicode="&#x14d;" horiz-adv-x="1127" d="M296 1377v148h538v-148h-538zM102 559q0 276 122.5 432t339.5 156q216 0 339.5 -156t123.5 -432q0 -275 -123.5 -431.5t-339.5 -156.5q-217 0 -339.5 156.5t-122.5 431.5zM276 559q0 -201 77 -316.5t211 -115.5q133 0 210 116t77 316q0 199 -77 315.5t-210 116.5 t-210.5 -115.5t-77.5 -316.5z" />
<glyph unicode="&#x14e;" horiz-adv-x="1450" d="M445 1901h106q11 -54 55.5 -82.5t119.5 -28.5q74 0 117.5 27.5t58.5 83.5h106q-9 -119 -81 -180.5t-201 -61.5t-201 61t-80 181zM104 745q0 354 169.5 564.5t452.5 210.5t452 -210.5t169 -564.5q0 -353 -169 -563.5t-452 -210.5t-452.5 210t-169.5 564zM295 745 q0 -282 116.5 -446t314.5 -164t314 164t116 446q0 283 -116 447t-314 164t-314.5 -164t-116.5 -447z" />
<glyph unicode="&#x14f;" horiz-adv-x="1127" d="M283 1608h106q10 -75 53.5 -112.5t122.5 -37.5q77 0 120.5 37t54.5 113h106q-8 -143 -79.5 -215t-201.5 -72q-131 0 -202 72t-80 215zM102 559q0 276 122.5 432t339.5 156q216 0 339.5 -156t123.5 -432q0 -275 -123.5 -431.5t-339.5 -156.5q-217 0 -339.5 156.5 t-122.5 431.5zM276 559q0 -201 77 -316.5t211 -115.5q133 0 210 116t77 316q0 199 -77 315.5t-210 116.5t-210.5 -115.5t-77.5 -316.5z" />
<glyph unicode="&#x150;" horiz-adv-x="1450" d="M472 1635l177 264h166l-205 -264h-138zM774 1635l176 264h167l-205 -264h-138zM104 745q0 354 169.5 564.5t452.5 210.5t452 -210.5t169 -564.5q0 -353 -169 -563.5t-452 -210.5t-452.5 210t-169.5 564zM295 745q0 -282 116.5 -446t314.5 -164t314 164t116 446 q0 283 -116 447t-314 164t-314.5 -164t-116.5 -447z" />
<glyph unicode="&#x151;" horiz-adv-x="1127" d="M360 1262l171 376h153l-201 -376h-123zM647 1262l185 376h160l-223 -376h-122zM102 559q0 276 122.5 432t339.5 156q216 0 339.5 -156t123.5 -432q0 -275 -123.5 -431.5t-339.5 -156.5q-217 0 -339.5 156.5t-122.5 431.5zM276 559q0 -201 77 -316.5t211 -115.5 q133 0 210 116t77 316q0 199 -77 315.5t-210 116.5t-210.5 -115.5t-77.5 -316.5z" />
<glyph unicode="&#x152;" horiz-adv-x="1971" d="M104 748q0 365 201 555t591 190h942v-170h-668v-442h640v-170h-640v-541h684v-170h-958q-390 0 -591 190t-201 558zM295 748q0 -289 144 -433.5t433 -144.5h116v1153h-116q-289 0 -433 -143.5t-144 -431.5z" />
<glyph unicode="&#x153;" horiz-adv-x="1885" d="M102 559q0 276 122.5 432t339.5 156q126 0 221 -55.5t155 -163.5q70 107 174.5 163t232.5 56q204 0 322.5 -145.5t118.5 -395.5v-90h-761q11 -190 102.5 -289.5t256.5 -99.5q95 0 185 26t179 78v-174q-90 -42 -184 -64t-189 -22q-144 0 -253 55t-182 164 q-64 -110 -158 -164.5t-220 -54.5q-217 0 -339.5 156.5t-122.5 431.5zM276 559q0 -201 77 -316.5t211 -115.5q133 0 210 116t77 316q0 199 -77 315.5t-210 116.5t-210.5 -115.5t-77.5 -316.5zM1032 659l590 1q-2 152 -76 241.5t-197 89.5q-138 0 -221 -87t-96 -245z" />
<glyph unicode="&#x154;" horiz-adv-x="1280" d="M468 1636l177 264h166l-205 -264h-138zM181 0v1493h410q231 0 344 -107t113 -323q0 -141 -58.5 -234t-171.5 -129q59 -22 114 -94t111 -198l185 -408h-196l-172 383q-66 150 -128.5 199t-170.5 49h-198v-631h-182zM363 797h228q132 0 199 67.5t67 198.5t-67 197.5 t-199 66.5h-228v-530z" />
<glyph unicode="&#x155;" horiz-adv-x="757" d="M393 1269l252 376h179l-293 -376h-138zM167 0v1120h167v-174q52 102 136 151.5t203 49.5q17 0 38 -2.5t46 -7.5l1 -189q-28 18 -61 26.5t-72 8.5q-141 0 -216 -101.5t-75 -291.5v-590h-167z" />
<glyph unicode="&#x156;" horiz-adv-x="1280" d="M570 -482l74 320h190l-148 -320h-116zM181 0v1493h410q231 0 344 -107t113 -323q0 -141 -58.5 -234t-171.5 -129q59 -22 114 -94t111 -198l185 -408h-196l-172 383q-66 150 -128.5 199t-170.5 49h-198v-631h-182zM363 797h228q132 0 199 67.5t67 198.5t-67 197.5 t-199 66.5h-228v-530z" />
<glyph unicode="&#x157;" horiz-adv-x="757" d="M117 -482l74 320h190l-148 -320h-116zM167 0v1120h167v-174q52 102 136 151.5t203 49.5q17 0 38 -2.5t46 -7.5l1 -189q-28 18 -61 26.5t-72 8.5q-141 0 -216 -101.5t-75 -291.5v-590h-167z" />
<glyph unicode="&#x158;" horiz-adv-x="1280" d="M181 0v1493h410q231 0 344 -107t113 -323q0 -141 -58.5 -234t-171.5 -129q59 -22 114 -94t111 -198l185 -408h-196l-172 383q-66 150 -128.5 199t-170.5 49h-198v-631h-182zM363 797h228q132 0 199 67.5t67 198.5t-67 197.5t-199 66.5h-228v-530zM299 1887h125l149 -178 l150 178h125l-190 -266h-169z" />
<glyph unicode="&#x159;" horiz-adv-x="757" d="M167 0v1120h167v-174q52 102 136 151.5t203 49.5q17 0 38 -2.5t46 -7.5l1 -189q-28 18 -61 26.5t-72 8.5q-141 0 -216 -101.5t-75 -291.5v-590h-167zM198 1638h125l162 -245l162 245h125l-221 -376h-133z" />
<glyph unicode="&#x15a;" horiz-adv-x="1170" d="M468 1636l177 264h166l-205 -264h-138zM122 1094q0 198 125.5 312t345.5 114q95 0 193 -19t200 -57v-197q-103 55 -195 82t-177 27q-149 0 -229.5 -64t-80.5 -182q0 -99 53.5 -149.5t203.5 -81.5l109 -25q204 -43 300.5 -151.5t96.5 -290.5q0 -217 -130.5 -329 t-383.5 -112q-96 0 -203.5 24t-222.5 71v208q111 -69 217 -104t209 -35q155 0 240 68t85 194q0 110 -61 172t-200 93l-110 24q-204 45 -294.5 141t-90.5 267z" />
<glyph unicode="&#x15b;" horiz-adv-x="960" d="M394 1269l252 376h179l-293 -376h-138zM100 41v190q92 -53 181 -79.5t176 -26.5q117 0 180 44.5t63 125.5q0 75 -45.5 115t-199.5 77l-57 15q-154 36 -222.5 110.5t-68.5 204.5q0 158 101 244t286 86q92 0 173 -15t149 -45v-174q-70 40 -145.5 60t-156.5 20 q-123 0 -185 -42t-62 -126q0 -64 44.5 -100.5t177.5 -69.5l56 -14q177 -42 251 -118.5t74 -213.5q0 -156 -111 -247t-305 -91q-81 0 -169 17.5t-185 52.5z" />
<glyph unicode="&#x15c;" horiz-adv-x="1170" d="M319 1635l190 266h169l190 -266h-125l-150 178l-149 -178h-125zM122 1094q0 198 125.5 312t345.5 114q95 0 193 -19t200 -57v-197q-103 55 -195 82t-177 27q-149 0 -229.5 -64t-80.5 -182q0 -99 53.5 -149.5t203.5 -81.5l109 -25q204 -43 300.5 -151.5t96.5 -290.5 q0 -217 -130.5 -329t-383.5 -112q-96 0 -203.5 24t-222.5 71v208q111 -69 217 -104t209 -35q155 0 240 68t85 194q0 110 -61 172t-200 93l-110 24q-204 45 -294.5 141t-90.5 267z" />
<glyph unicode="&#x15d;" horiz-adv-x="960" d="M207 1262l220 376h133l221 -376h-125l-162 245l-162 -245h-125zM100 41v190q92 -53 181 -79.5t176 -26.5q117 0 180 44.5t63 125.5q0 75 -45.5 115t-199.5 77l-57 15q-154 36 -222.5 110.5t-68.5 204.5q0 158 101 244t286 86q92 0 173 -15t149 -45v-174q-70 40 -145.5 60 t-156.5 20q-123 0 -185 -42t-62 -126q0 -64 44.5 -100.5t177.5 -69.5l56 -14q177 -42 251 -118.5t74 -213.5q0 -156 -111 -247t-305 -91q-81 0 -169 17.5t-185 52.5z" />
<glyph unicode="&#x15e;" horiz-adv-x="1170" d="M122 1094q0 198 125.5 312t345.5 114q95 0 193 -19t200 -57v-197q-103 55 -195 82t-177 27q-149 0 -229.5 -64t-80.5 -182q0 -99 53.5 -149.5t203.5 -81.5l109 -25q204 -43 300.5 -151.5t96.5 -290.5q0 -217 -130.5 -329t-383.5 -112q-96 0 -203.5 24t-222.5 71v208 q111 -69 217 -104t209 -35q155 0 240 68t85 194q0 110 -61 172t-200 93l-110 24q-204 45 -294.5 141t-90.5 267zM387 -240q30 -17 63.5 -24.5t75.5 -7.5q53 0 80 24t27 70q0 30 -19 73.5t-60 104.5h107q50 -62 74 -114.5t24 -100.5q0 -89 -54 -134.5t-160 -45.5q-41 0 -80 6 t-78 18v131z" />
<glyph unicode="&#x15f;" horiz-adv-x="960" d="M100 41v190q92 -53 181 -79.5t176 -26.5q117 0 180 44.5t63 125.5q0 75 -45.5 115t-199.5 77l-57 15q-154 36 -222.5 110.5t-68.5 204.5q0 158 101 244t286 86q92 0 173 -15t149 -45v-174q-70 40 -145.5 60t-156.5 20q-123 0 -185 -42t-62 -126q0 -64 44.5 -100.5 t177.5 -69.5l56 -14q177 -42 251 -118.5t74 -213.5q0 -156 -111 -247t-305 -91q-81 0 -169 17.5t-185 52.5zM283 -240q30 -17 63.5 -24.5t75.5 -7.5q53 0 80 24t27 70q0 30 -19 73.5t-60 104.5h107q50 -62 74 -114.5t24 -100.5q0 -89 -54 -134.5t-160 -45.5q-41 0 -80 6 t-78 18v131z" />
<glyph unicode="&#x160;" horiz-adv-x="1170" d="M122 1094q0 198 125.5 312t345.5 114q95 0 193 -19t200 -57v-197q-103 55 -195 82t-177 27q-149 0 -229.5 -64t-80.5 -182q0 -99 53.5 -149.5t203.5 -81.5l109 -25q204 -43 300.5 -151.5t96.5 -290.5q0 -217 -130.5 -329t-383.5 -112q-96 0 -203.5 24t-222.5 71v208 q111 -69 217 -104t209 -35q155 0 240 68t85 194q0 110 -61 172t-200 93l-110 24q-204 45 -294.5 141t-90.5 267zM312 1901h125l149 -178l150 178h125l-190 -266h-169z" />
<glyph unicode="&#x161;" horiz-adv-x="960" d="M100 41v190q92 -53 181 -79.5t176 -26.5q117 0 180 44.5t63 125.5q0 75 -45.5 115t-199.5 77l-57 15q-154 36 -222.5 110.5t-68.5 204.5q0 158 101 244t286 86q92 0 173 -15t149 -45v-174q-70 40 -145.5 60t-156.5 20q-123 0 -185 -42t-62 -126q0 -64 44.5 -100.5 t177.5 -69.5l56 -14q177 -42 251 -118.5t74 -213.5q0 -156 -111 -247t-305 -91q-81 0 -169 17.5t-185 52.5zM195 1638h125l162 -245l162 245h125l-221 -376h-133z" />
<glyph unicode="&#x162;" horiz-adv-x="1125" d="M334 -240q30 -17 63.5 -24.5t75.5 -7.5q53 0 80 24t27 70q0 30 -19 73.5t-60 104.5h107q50 -62 74 -114.5t24 -100.5q0 -89 -54 -134.5t-160 -45.5q-41 0 -80 6t-78 18v131zM-5 1323v170h1136v-170h-477v-1323h-182v1323h-477z" />
<glyph unicode="&#x163;" horiz-adv-x="722" d="M234 -240q30 -17 63.5 -24.5t75.5 -7.5q53 0 80 24t27 70q0 30 -19 73.5t-60 104.5h107q50 -62 74 -114.5t24 -100.5q0 -89 -54 -134.5t-160 -45.5q-41 0 -80 6t-78 18v131zM50 977v143h121v318h167v-318h341v-143h-341v-608q0 -137 33.5 -176t136.5 -39h171v-154h-171 q-191 0 -264 79.5t-73 289.5v608h-121z" />
<glyph unicode="&#x164;" horiz-adv-x="1125" d="M-5 1323v170h1136v-170h-477v-1323h-182v1323h-477zM290 1887h125l149 -178l150 178h125l-190 -266h-169z" />
<glyph unicode="&#x165;" horiz-adv-x="722" d="M50 977v143h121v318h167v-318h341v-143h-341v-608q0 -137 33.5 -176t136.5 -39h171v-154h-171q-191 0 -264 79.5t-73 289.5v608h-121zM446 1290l64 376h179l-105 -376h-138z" />
<glyph unicode="&#x166;" horiz-adv-x="1125" d="M-5 1323v170h1136v-170h-477v-576h239v-170h-239v-577h-182v577h-239v170h239v576h-477z" />
<glyph unicode="&#x167;" horiz-adv-x="722" d="M50 602v142h121v233h-121v143h121v318h167v-318h341v-143h-341v-233h170v-142h-170v-233q0 -137 33 -176q34 -39 137 -39h171v-154h-171q-191 0 -264 80q-73 79 -73 289v233h-121z" />
<glyph unicode="&#x168;" horiz-adv-x="1349" d="M378 1667q0 101 46.5 160t123.5 59q33 0 60.5 -8t70.5 -35l51 -30q21 -13 36 -19t29 -6q29 0 47 25.5t18 66.5v6h112q-2 -100 -48 -159.5t-122 -59.5q-30 0 -57 8t-73 35l-52 33q-22 14 -36 19.5t-25 5.5q-32 0 -50 -25t-18 -70v-6h-113zM160 561v932h183v-907 q0 -240 78.5 -345.5t253.5 -105.5t253 105.5t78 345.5v907h183v-932q0 -292 -130 -441t-384 -149q-255 0 -385 149t-130 441z" />
<glyph unicode="&#x169;" horiz-adv-x="1168" d="M282 1309q2 135 47.5 208.5t127.5 73.5q35 0 63.5 -14t61.5 -47l52 -55q20 -20 34.5 -29.5t26.5 -9.5q34 0 50.5 36.5t17.5 118.5h113q-2 -135 -48 -208.5t-128 -73.5q-34 0 -63 14t-62 47l-51 55q-20 20 -35 29.5t-26 9.5q-35 0 -51 -36.5t-18 -118.5h-112zM157 442v678 h165v-671q0 -159 56 -238.5t167 -79.5q135 0 212.5 95t77.5 259v635h166v-1120h-166v172q-60 -102 -139.5 -151.5t-185.5 -49.5q-173 0 -263 120t-90 351zM573 1147z" />
<glyph unicode="&#x16a;" horiz-adv-x="1349" d="M406 1693v148h538v-148h-538zM160 561v932h183v-907q0 -240 78.5 -345.5t253.5 -105.5t253 105.5t78 345.5v907h183v-932q0 -292 -130 -441t-384 -149q-255 0 -385 149t-130 441z" />
<glyph unicode="&#x16b;" horiz-adv-x="1168" d="M310 1377v148h538v-148h-538zM157 442v678h165v-671q0 -159 56 -238.5t167 -79.5q135 0 212.5 95t77.5 259v635h166v-1120h-166v172q-60 -102 -139.5 -151.5t-185.5 -49.5q-173 0 -263 120t-90 351zM573 1147z" />
<glyph unicode="&#x16c;" horiz-adv-x="1349" d="M394 1901h106q11 -54 55.5 -82.5t119.5 -28.5q74 0 117.5 27.5t58.5 83.5h106q-9 -119 -81 -180.5t-201 -61.5t-201 61t-80 181zM160 561v932h183v-907q0 -240 78.5 -345.5t253.5 -105.5t253 105.5t78 345.5v907h183v-932q0 -292 -130 -441t-384 -149q-255 0 -385 149 t-130 441z" />
<glyph unicode="&#x16d;" horiz-adv-x="1168" d="M297 1608h106q10 -75 53.5 -112.5t122.5 -37.5q77 0 120.5 37t54.5 113h106q-8 -143 -79.5 -215t-201.5 -72q-131 0 -202 72t-80 215zM157 442v678h165v-671q0 -159 56 -238.5t167 -79.5q135 0 212.5 95t77.5 259v635h166v-1120h-166v172q-60 -102 -139.5 -151.5 t-185.5 -49.5q-173 0 -263 120t-90 351zM573 1147z" />
<glyph unicode="&#x16e;" horiz-adv-x="1349" d="M160 561v932h183v-907q0 -240 78.5 -345.5t253.5 -105.5t253 105.5t78 345.5v907h183v-932q0 -292 -130 -441t-384 -149q-255 0 -385 149t-130 441zM430 1629q0 115 71.5 194.5t175.5 79.5q103 0 174.5 -79.5t71.5 -194.5t-71.5 -195t-174.5 -80q-104 0 -175.5 80 t-71.5 195zM540 1629q0 -65 39 -108.5t98 -43.5q57 0 97 44t40 108q0 63 -40 107t-97 44q-59 0 -98 -43.5t-39 -107.5z" />
<glyph unicode="&#x16f;" horiz-adv-x="1168" d="M157 442v678h165v-671q0 -159 56 -238.5t167 -79.5q135 0 212.5 95t77.5 259v635h166v-1120h-166v172q-60 -102 -139.5 -151.5t-185.5 -49.5q-173 0 -263 120t-90 351zM573 1147zM326 1464q0 115 71.5 194.5t175.5 79.5q103 0 174.5 -79.5t71.5 -194.5t-71.5 -195 t-174.5 -80q-104 0 -175.5 80t-71.5 195zM436 1464q0 -65 39 -108.5t98 -43.5q57 0 97 44t40 108q0 63 -40 107t-97 44q-59 0 -98 -43.5t-39 -107.5z" />
<glyph unicode="&#x170;" horiz-adv-x="1349" d="M421 1635l177 264h166l-205 -264h-138zM723 1635l176 264h167l-205 -264h-138zM160 561v932h183v-907q0 -240 78.5 -345.5t253.5 -105.5t253 105.5t78 345.5v907h183v-932q0 -292 -130 -441t-384 -149q-255 0 -385 149t-130 441z" />
<glyph unicode="&#x171;" horiz-adv-x="1168" d="M374 1262l171 376h153l-201 -376h-123zM661 1262l185 376h160l-223 -376h-122zM157 442v678h165v-671q0 -159 56 -238.5t167 -79.5q135 0 212.5 95t77.5 259v635h166v-1120h-166v172q-60 -102 -139.5 -151.5t-185.5 -49.5q-173 0 -263 120t-90 351zM573 1147z" />
<glyph unicode="&#x172;" horiz-adv-x="1349" d="M160 561v932h183v-907q0 -240 78.5 -345.5t253.5 -105.5t253 105.5t78 345.5v907h183v-932q0 -292 -130 -441t-384 -149q-255 0 -385 149t-130 441zM524 -231q0 48 23.5 100.5t73.5 114.5h107q-40 -61 -59.5 -105t-19.5 -75q0 -46 24.5 -69t73.5 -23q29 0 57 7.5t55 22.5 v-133q-34 -10 -64.5 -15t-57.5 -5q-110 0 -161.5 43.5t-51.5 136.5z" />
<glyph unicode="&#x173;" horiz-adv-x="1168" d="M157 442v678h165v-671q0 -159 56 -238.5t167 -79.5q135 0 212.5 95t77.5 259v635h166v-1120h-166v172q-60 -102 -139.5 -151.5t-185.5 -49.5q-173 0 -263 120t-90 351zM573 1147zM795 -215q0 48 23.5 100.5t73.5 114.5h107q-40 -61 -59.5 -105t-19.5 -75q0 -46 24.5 -69 t73.5 -23q29 0 57 7.5t55 22.5v-133q-34 -10 -64.5 -15t-57.5 -5q-110 0 -161.5 43.5t-51.5 136.5z" />
<glyph unicode="&#x174;" horiz-adv-x="1822" d="M637 1642l190 266h169l190 -266h-125l-150 178l-149 -178h-125zM61 1493h184l282 -1262l282 1262h204l283 -1262l282 1262h184l-337 -1493h-229l-283 1296l-287 -1296h-228z" />
<glyph unicode="&#x175;" horiz-adv-x="1507" d="M466 1269l220 376h133l221 -376h-125l-162 245l-162 -245h-125zM77 1120h166l207 -874l206 874h195l207 -874l206 874h166l-264 -1120h-195l-217 918l-218 -918h-195z" />
<glyph unicode="&#x176;" horiz-adv-x="1125" d="M289 1642l190 266h169l190 -266h-125l-150 178l-149 -178h-125zM-4 1493h196l372 -614l370 614h196l-476 -782v-711h-182v711z" />
<glyph unicode="&#x177;" horiz-adv-x="1090" d="M259 1269l220 376h133l221 -376h-125l-162 245l-162 -245h-125zM55 1120h175l315 -876l315 876h176l-443 -1224q-70 -200 -136.5 -261t-178.5 -61h-132v154h97q68 0 106 36t84 170l30 84z" />
<glyph unicode="&#x178;" horiz-adv-x="1125" d="M-4 1493h196l372 -614l370 614h196l-476 -782v-711h-182v711zM297 1667v203h183v-203h-183zM649 1667v203h182v-203h-182z" />
<glyph unicode="&#x179;" horiz-adv-x="1262" d="M468 1636l177 264h166l-205 -264h-138zM83 0v154l849 1169h-828v170h1055v-154l-849 -1169h870v-170h-1097z" />
<glyph unicode="&#x17a;" horiz-adv-x="967" d="M394 1269l252 376h179l-293 -376h-138zM79 0v168l623 805h-600v147h786v-168l-622 -805h622v-147h-809z" />
<glyph unicode="&#x17b;" horiz-adv-x="1262" d="M520 1665v205h184v-205h-184zM83 0v154l849 1169h-828v170h1055v-154l-849 -1169h870v-170h-1097z" />
<glyph unicode="&#x17c;" horiz-adv-x="967" d="M79 0v168l623 805h-600v147h786v-168l-622 -805h622v-147h-809zM369 1348v204h184v-204h-184z" />
<glyph unicode="&#x17d;" horiz-adv-x="1262" d="M83 0v154l849 1169h-828v170h1055v-154l-849 -1169h870v-170h-1097zM358 1901h125l149 -178l150 178h125l-190 -266h-169z" />
<glyph unicode="&#x17e;" horiz-adv-x="967" d="M79 0v168l623 805h-600v147h786v-168l-622 -805h622v-147h-809zM198 1638h125l162 -245l162 245h125l-221 -376h-133z" />
<glyph unicode="&#x17f;" horiz-adv-x="648" d="M42 977v143h159v78q0 187 78 272.5t248 85.5h157v-153h-158q-90 0 -124 -40q-35 -41 -35 -144v-1219h-166v977h-159z" />
<glyph unicode="&#x180;" horiz-adv-x="1170" d="M29 1284v125h138v147h167v-147h292v-125h-292v-334q52 100 132 148q79 49 190 49q184 0 298 -162q115 -162 115 -426t-115 -426q-114 -162 -298 -162q-111 0 -190 49q-80 48 -132 148v-168h-167v1284h-138zM334 559q0 -203 75 -319q75 -115 207 -115q131 0 206 115 q75 116 75 319t-75 319q-75 115 -206 115q-132 0 -207 -115q-75 -116 -75 -319z" />
<glyph unicode="&#x181;" horiz-adv-x="1354" d="M-94 1079v70q0 181 86 262.5t279 81.5h464q208 0 320.5 -96t112.5 -273q0 -137 -57.5 -218t-169.5 -101q135 -32 209 -133.5t74 -253.5q0 -200 -122.5 -309t-348.5 -109h-482v1328q-119 0 -172 -47.5t-53 -152.5v-49h-140zM453 166h291q147 0 217.5 67.5t70.5 206.5 q0 140 -70.5 206.5t-217.5 66.5h-291v-547zM453 877h269q133 0 198.5 55.5t65.5 169.5q0 113 -65.5 169t-198.5 56h-269v-450z" />
<glyph unicode="&#x182;" horiz-adv-x="1264" d="M181 0v1493h859v-166h-677v-448h300q226 0 348.5 -109t122.5 -331q0 -221 -118.5 -330t-352.5 -109h-482zM363 166h291q147 0 217.5 67.5t70.5 205.5q0 139 -70.5 206.5t-217.5 67.5h-291v-547z" />
<glyph unicode="&#x183;" horiz-adv-x="1170" d="M167 0v1556h762v-166l-595 1v-441q52 100 132 148q79 49 190 49q184 0 298 -162q115 -162 115 -426t-115 -426q-114 -162 -298 -162q-111 0 -190 49q-80 48 -132 148v-168h-167zM334 559q0 -203 75 -319q75 -115 207 -115q131 0 206 115q75 116 75 319t-75 319 q-75 115 -206 115q-132 0 -207 -115q-75 -116 -75 -319z" />
<glyph unicode="&#x184;" horiz-adv-x="1264" d="M0 1092l281 401h82v-614h300q226 0 348.5 -109t122.5 -331q0 -221 -122.5 -330t-348.5 -109h-482v1092h-181zM363 166h291q147 0 217 68q71 67 71 205q0 139 -71 207q-70 67 -217 67h-291v-547z" />
<glyph unicode="&#x185;" horiz-adv-x="1170" d="M0 1092l261 465h73v-607q52 100 131.5 148.5t190.5 48.5q184 0 298.5 -162t114.5 -426t-114.5 -426t-298.5 -162q-111 0 -190.5 48.5t-131.5 148.5v-168h-167v1092h-167zM334 559q0 -203 75 -318.5t207 -115.5q131 0 206 115.5t75 318.5t-75 318.5t-206 115.5 q-132 0 -207 -115.5t-75 -318.5z" />
<glyph unicode="&#x186;" horiz-adv-x="1296" d="M104 115v211q91 -95 195 -142t221 -47q231 0 353 156.5t122 451.5q0 296 -122 452.5t-353 156.5q-117 0 -221 -47t-195 -142v213q93 71 199.5 106.5t227.5 35.5q305 0 480.5 -207.5t175.5 -567.5q0 -359 -175.5 -566.5t-480.5 -207.5q-119 0 -225.5 36t-201.5 108z" />
<glyph unicode="&#x187;" horiz-adv-x="1287" d="M104 745q0 360 175 567.5t481 207.5q86 0 226 -36q12 -3 23 -7q14 195 89 293q92 122 296 122h69v-170h-56q-121 0 -170.5 -75t-49.5 -269v-213q-92 95 -196 142t-221 47q-230 0 -352.5 -156.5t-122.5 -452.5q0 -295 122.5 -451.5t352.5 -156.5q117 0 221 47t196 142 v-211q-95 -72 -202 -108t-225 -36q-306 0 -481 207.5t-175 566.5z" />
<glyph unicode="&#x188;" horiz-adv-x="1013" d="M102 559q0 274 135.5 431t370.5 157q64 0 127 -12v15q0 214 72.5 310t235.5 96h62v-156h-43q-94 0 -128.5 -48.5t-34.5 -201.5v-245q-70 43 -140.5 64.5t-142.5 21.5q-162 0 -251 -113.5t-89 -318.5t89 -318.5t251 -113.5q72 0 142.5 21.5t140.5 64.5v-170 q-69 -36 -143.5 -54t-157.5 -18q-228 0 -362 159t-134 429z" />
<glyph unicode="&#x189;" horiz-adv-x="1428" d="M9 700v144h181v649h374q390 0 572.5 -180.5t182.5 -564.5q0 -386 -183 -567t-572 -181h-374v700h-181zM373 166h218q278 0 407.5 140t129.5 442q0 300 -129.5 439.5t-407.5 139.5h-218v-483h302v-144h-302v-534z" />
<glyph unicode="&#x18a;" horiz-adv-x="1509" d="M-94 1079v70q0 181 86 262.5t279 81.5h373q391 0 573.5 -180.5t182.5 -564.5q0 -386 -183.5 -567t-572.5 -181h-373v1328q-119 0 -172 -47.5t-53 -152.5v-49h-140zM453 166h219q278 0 407.5 140t129.5 442q0 300 -129.5 439.5t-407.5 139.5h-219v-1161z" />
<glyph unicode="&#x18b;" horiz-adv-x="1264" d="M181 440q0 221 122.5 330t348.5 109h300v448h-579v166h761v-1493h-482q-226 0 -348.5 109t-122.5 331zM373 439q0 -273 288 -273h291v547h-291q-147 0 -217.5 -67.5t-70.5 -206.5z" />
<glyph unicode="&#x18c;" horiz-adv-x="1170" d="M102 559q0 264 114.5 426t297.5 162q112 0 191.5 -48.5t131.5 -148.5v441l-595 -1v166h761v-1556h-166v168q-52 -100 -131.5 -148.5t-191.5 -48.5q-183 0 -297.5 162t-114.5 426zM273 559q0 -203 75 -318.5t206 -115.5q132 0 207.5 115.5t75.5 318.5t-75.5 318.5 t-207.5 115.5q-131 0 -206 -115.5t-75 -318.5z" />
<glyph unicode="&#x18d;" horiz-adv-x="1127" d="M102 539q0 271 123 427.5t339 156.5q215 0 339 -156.5t123 -431.5q0 -156 -70 -286t-168 -183q141 -79 141 -220q0 -272 -397 -272q-199 0 -307 70v153q92 -70 313 -70q222 0 222 117q0 92 -238 140q-187 37 -292 149q-128 135 -128 406zM277 540q0 -194 84.5 -293.5 t198.5 -110.5q57 -6 103 -20q89 42 138.5 152t49.5 267q1 203 -76 317.5t-210 114.5t-210.5 -116t-77.5 -311z" />
<glyph unicode="&#x18e;" horiz-adv-x="1164" d="M118 0v170h684v541h-640v170h640v442h-668v170h850v-1493h-866z" />
<glyph unicode="&#x18f;" horiz-adv-x="1450" d="M105 780h1051q0 268 -124 421t-370 153q-126 0 -239 -48t-214 -143v215q100 70 218 106t250 36q315 0 492.5 -204.5t177.5 -570.5q0 -353 -169 -563.5t-452 -210.5q-296 0 -458.5 219.5t-162.5 589.5zM303 614q12 -195 126.5 -337t296.5 -142t297 142t126 337h-846z" />
<glyph unicode="&#x190;" horiz-adv-x="1132" d="M148 434q0 144 73 242t204 129q-118 33 -182 118.5t-64 209.5q0 178 120.5 282.5t327.5 104.5q80 0 170.5 -16t194.5 -48v-180q-103 38 -188.5 56t-159.5 18q-137 0 -210.5 -61.5t-73.5 -176.5q0 -112 71 -171.5t205 -59.5h164v-166h-156q-149 0 -232.5 -74.5 t-83.5 -206.5q0 -143 90 -218t261 -75q98 0 188 25t165 74v-195q-95 -37 -184.5 -55.5t-174.5 -18.5q-252 0 -388.5 121t-136.5 342z" />
<glyph unicode="&#x191;" horiz-adv-x="1060" d="M-95 -240h56q121 0 170.5 75t49.5 269v1389h772v-170h-590v-440h533v-170h-533v-609q0 -270 -92.5 -392t-296.5 -122h-69v170z" />
<glyph unicode="&#x192;" horiz-adv-x="648" d="M-116 -273h158q89 0 124 40t35 144v1066h-159v143h159v78q0 187 78 272.5t248 85.5h157v-153h-158q-90 0 -124.5 -40t-34.5 -144v-99h273v-143h-273v-1045q0 -187 -78 -272.5t-249 -85.5h-156v153z" />
<glyph unicode="&#x193;" horiz-adv-x="1428" d="M104 745q0 366 177.5 570.5t492.5 204.5q81 0 154.5 -12.5t135.5 -37.5q0 188 90.5 305t294.5 117h69v-170h-56q-121 0 -170.5 -75t-49.5 -269v-215q-101 95 -214.5 143t-238.5 48q-246 0 -370 -153t-124 -456q0 -302 124 -455t370 -153q97 0 172.5 18.5t135.5 57.5v401 h-297v166h477v-641q-105 -83 -232 -125.5t-271 -42.5q-315 0 -492.5 204.5t-177.5 569.5z" />
<glyph unicode="&#x194;" horiz-adv-x="1265" d="M7 1493h200l426 -862l425 862h200l-523 -1073q93 -200 153 -374q42 -119 42 -185q0 -139 -68 -204q-90 -87 -229 -87t-230 87q-67 65 -67 204q0 66 41 185q61 174 154 374zM519 -141q0 -66 25 -86q40 -32 89 -32t88 32q25 20 25 86q0 57 -28 130q-46 121 -85 213 q-40 -92 -86 -213q-28 -73 -28 -130z" />
<glyph unicode="&#x195;" horiz-adv-x="1813" d="M167 0v1556h167v-610q59 101 139.5 151t186.5 50q173 0 262.5 -119.5t89.5 -351.5v-270q0 -147 34 -198.5t128 -51.5h46q134 0 210 98q78 101 78 256q0 222 -66 334q-56 95 -165 128v148q202 -29 300 -172q100 -145 100 -421q0 -245 -129.5 -386t-328.5 -141h-63 q-169 0 -239.5 100t-70.5 306v264q0 159 -56 238t-167 79q-134 0 -211.5 -95t-77.5 -259v-633h-167z" />
<glyph unicode="&#x196;" horiz-adv-x="651" d="M181 514v979h182v-979q0 -194 49.5 -269t169.5 -75h57v-170h-69q-205 0 -297 122t-92 392z" />
<glyph unicode="&#x197;" horiz-adv-x="543" d="M9 577v170h172v746h182v-746h172v-170h-172v-577h-182v577h-172z" />
<glyph unicode="&#x198;" horiz-adv-x="1374" d="M181 0v1493h182v-631l558 579q76 79 178 79q122 0 199 -92q76 -91 76 -201v-131h-153v121q0 54 -32.5 94t-67.5 40q-63 0 -96 -35l-492 -519l714 -797h-239l-645 719v-719h-182z" />
<glyph unicode="&#x199;" horiz-adv-x="1067" d="M166 1150q0 214 73.5 310t236.5 96h172v-156h-151q-95 0 -129 -48.5t-34 -201.5v-513l494 483h212l-535 -524l557 -596h-216l-512 547v-547h-167z" />
<glyph unicode="&#x19a;" horiz-adv-x="512" d="M9 700v144h165v712h165v-712h160v-144h-160v-700h-165v700h-165z" />
<glyph unicode="&#x19b;" horiz-adv-x="1090" d="M55 0l442 1074l-64 188l-270 -101l-30 99l267 99l-67 197h180l47 -138l282 104l30 -97l-280 -104l444 -1321h-176l-282 828l-348 -828h-175z" />
<glyph unicode="&#x19c;" horiz-adv-x="1795" d="M160 442v1051h183v-1041q0 -186 35 -239q51 -78 157 -78q128 0 203 95t75 259v1004h182v-1041q0 -162 52 -240q51 -77 158 -77q111 0 185 95q75 96 75 259v1004h183v-1495h-183v174q-57 -103 -136 -152t-188 -49q-110 0 -187 62q-76 62 -113 180q-63 -124 -149 -183 t-203 -59q-158 0 -243 123q-86 122 -86 348z" />
<glyph unicode="&#x19d;" horiz-adv-x="1378" d="M-95 -240h56q121 0 170.5 75t49.5 269v1389h245l596 -1249v1249h176v-1493h-245l-596 1249v-1145q0 -270 -92 -392t-296 -122h-64v170z" />
<glyph unicode="&#x19e;" horiz-adv-x="1168" d="M167 0v1120h167v-174q59 101 140 151q80 50 186 50q173 0 262 -119q90 -120 90 -352v-1102h-166v1096q0 159 -56 238t-167 79q-134 0 -211.5 -95t-77.5 -259v-633h-167z" />
<glyph unicode="&#x19f;" horiz-adv-x="1450" d="M104 745q0 354 169.5 564.5t452.5 210.5t452 -210.5t169 -563.5q0 -354 -169 -564.5t-452 -210.5t-452.5 210t-169.5 564zM295 710q7 -257 120 -416t311 -159t310 158.5t119 416.5h-860zM304 877h846q-12 195 -126.5 337t-296.5 142t-297 -142t-126 -337z" />
<glyph unicode="&#x1a0;" horiz-adv-x="1683" d="M93 745q0 354 169.5 564.5t452.5 210.5t452 -210.5t169 -564.5q0 -353 -169 -563.5t-452 -210.5t-452.5 210t-169.5 564zM284 745q0 -282 116.5 -446t314.5 -164t314 164t116 446q0 283 -116 447t-314 164t-314.5 -164t-116.5 -447zM1052 1291v119q55 -45 94.5 -66.5 t67.5 -21.5q42 0 62.5 27.5t20.5 81.5q0 32 -7 63t-20 62h120q9 -38 13.5 -72t4.5 -64q0 -122 -39.5 -179.5t-122.5 -57.5q-43 0 -90.5 26.5t-103.5 81.5z" />
<glyph unicode="&#x1a1;" horiz-adv-x="1127" d="M756 994v119q55 -45 94.5 -66.5t67.5 -21.5q42 0 62.5 27.5t20.5 81.5q0 32 -7 63t-20 62h120q9 -38 13.5 -72t4.5 -64q0 -122 -39.5 -179.5t-122.5 -57.5q-43 0 -90.5 26.5t-103.5 81.5zM106 559q0 276 122.5 432t339.5 156q216 0 339.5 -156t123.5 -432 q0 -275 -123.5 -431.5t-339.5 -156.5q-217 0 -339.5 156.5t-122.5 431.5zM280 559q0 -201 77 -316.5t211 -115.5q133 0 210 116t77 316q0 199 -77 315.5t-210 116.5t-210.5 -115.5t-77.5 -316.5z" />
<glyph unicode="&#x1a2;" horiz-adv-x="1748" d="M104 745q0 354 169.5 564.5t452.5 210.5q101 0 188 -27h266q204 0 296.5 -122t92.5 -392v-979h-182v979q0 194 -49.5 269t-159.5 75v-1141q-169 -211 -453 -211q-282 0 -451.5 210t-169.5 564zM295 746q0 -283 116.5 -447t314.5 -164q158 0 273 103v1048q-124 70 -273 70 q-198 0 -314.5 -164t-116.5 -446z" />
<glyph unicode="&#x1a3;" horiz-adv-x="1399" d="M102 559q0 276 122.5 432t339.5 156q90 0 164 -27h194q163 0 237 -96q73 -96 73 -310v-1140h-166v1140q0 153 -34 202q-34 48 -128 48v-836q-124 -157 -340 -157q-217 0 -339.5 156.5t-122.5 431.5zM276 559q0 -201 77 -316.5t211 -115.5q116 0 174 58v752 q-76 54 -174 54q-133 0 -210.5 -115.5t-77.5 -316.5z" />
<glyph unicode="&#x1a4;" horiz-adv-x="1201" d="M-94 1079v70q0 181 86 262.5t279 81.5h410q226 0 341.5 -113.5t115.5 -332.5q0 -221 -115.5 -334t-341.5 -113h-228v-600h-182v1328q-119 0 -172 -47.5t-53 -152.5v-49h-140zM453 766h228q127 0 196.5 73t69.5 208q0 134 -69.5 207t-196.5 73h-228v-561z" />
<glyph unicode="&#x1a5;" horiz-adv-x="1170" d="M166 -426v1576q0 214 73.5 310t236.5 96h229v-156h-208q-95 0 -129 -48.5t-34 -201.5v-200q52 100 131.5 148.5t190.5 48.5q184 0 298.5 -162t114.5 -426t-114.5 -426t-298.5 -162q-111 0 -190.5 48.5t-131.5 148.5v-594h-168zM334 559q0 -203 75 -318.5t207 -115.5 q131 0 206 115.5t75 318.5t-75 318.5t-206 115.5q-132 0 -207 -115.5t-75 -318.5z" />
<glyph unicode="&#x1a6;" horiz-adv-x="1280" d="M181 0v1493h182v-264h228q231 0 344 -107t113 -323q0 -141 -58.5 -234t-171.5 -129q59 -22 114 -94t111 -198l185 -408h-196l-172 383q-66 150 -128.5 199t-170.5 49h-198v-367h-182zM363 504h228q127 0 196.5 73t69.5 207t-69 206.5t-197 72.5h-228v-559z" />
<glyph unicode="&#x1a7;" horiz-adv-x="1170" d="M103 412q0 182 96.5 290.5t300.5 151.5l109 25q150 31 204 81q53 51 53 159.5t-80 172.5q-81 64 -239 64t-363 -109v197q205 76 409 76t329.5 -114t125.5 -298.5t-90.5 -280.5t-294.5 -141l-110 -24q-139 -31 -200 -93t-61 -180t85 -186t240 -68q203 0 426 139v-208 q-233 -95 -426 -95q-253 0 -384 112q-130 112 -130 329z" />
<glyph unicode="&#x1a8;" horiz-adv-x="960" d="M90 309q0 137 74 213.5t251 118.5l57 14q133 33 177 69.5t44 100.5q0 84 -61.5 126t-185.5 42q-81 0 -156.5 -20t-145.5 -60v174q68 30 149 45t173 15q186 0 286.5 -86t100.5 -244q0 -130 -68.5 -204.5t-222.5 -110.5l-57 -15q-154 -37 -199.5 -77t-45.5 -115 q0 -81 63 -125.5t180 -44.5q87 0 176.5 26.5t180.5 79.5v-190q-97 -35 -184.5 -52.5t-168.5 -17.5q-195 0 -306 91t-111 247z" />
<glyph unicode="&#x1a9;" horiz-adv-x="1164" d="M181 0v170l431 624l-431 529v170h849v-170h-640l431 -525l-431 -628h657v-170h-866z" />
<glyph unicode="&#x1aa;" horiz-adv-x="619" d="M-243 1340q0 216 273 216q163 0 236 -96q48 -64 64 -175h172v-155h-164v-1219q0 -104 34.5 -144t123.5 -40h158v-153h-156q-170 0 -248.5 85.5t-78.5 272.5v1198h-171q-243 0 -243 210zM-104 1335q-2 -51 105 -51h161q-8 44 -22 68q-30 48 -129 48q-112 0 -115 -65z" />
<glyph unicode="&#x1ab;" horiz-adv-x="722" d="M50 977v143h121v318h167v-318h341v-143h-341v-608q0 -137 33.5 -176t136.5 -39h171v-174q0 -214 -74 -310t-236 -96h-63v156h43q96 0 130 48q34 49 34 202v20q-192 0 -267 79.5t-75 289.5v608h-121z" />
<glyph unicode="&#x1ac;" horiz-adv-x="1125" d="M22 1079v70q0 181 86 262.5t279 81.5h744v-170h-477v-1323h-182v1323h-85q-119 0 -172 -45t-53 -150v-49h-140z" />
<glyph unicode="&#x1ad;" horiz-adv-x="722" d="M50 977v143h121v78q0 187 78.5 272.5t248.5 85.5h156v-153h-158q-89 0 -123.5 -40.5t-34.5 -143.5v-99h341v-143h-341v-608q0 -137 33.5 -176t136.5 -39h171v-154h-171q-191 0 -264 79.5t-73 289.5v608h-121z" />
<glyph unicode="&#x1ae;" horiz-adv-x="1125" d="M-5 1323v170h1136v-170h-477v-1219q0 -194 49.5 -269t170.5 -75h57v-170h-71q-204 0 -296 122t-92 392v1219h-477z" />
<glyph unicode="&#x1af;" horiz-adv-x="1581" d="M156 581v932h183v-907q0 -240 78.5 -345.5t253.5 -105.5t253 105.5t78 345.5v907h183v-932q0 -292 -130 -441t-384 -149q-255 0 -385 149t-130 441zM1112 1291v119q55 -45 94.5 -66.5t67.5 -21.5q42 0 62.5 27.5t20.5 81.5q0 32 -7 63t-20 62h120q9 -38 13.5 -72t4.5 -64 q0 -122 -39.5 -179.5t-122.5 -57.5q-43 0 -90.5 26.5t-103.5 81.5z" />
<glyph unicode="&#x1b0;" horiz-adv-x="1168" d="M891 994v119q55 -45 94.5 -66.5t67.5 -21.5q42 0 62.5 27.5t20.5 81.5q0 32 -7 63t-20 62h120q9 -38 13.5 -72t4.5 -64q0 -122 -39.5 -179.5t-122.5 -57.5q-43 0 -90.5 26.5t-103.5 81.5zM159 442v678h165v-671q0 -159 56 -238.5t167 -79.5q135 0 212.5 95t77.5 259v635 h166v-1120h-166v172q-60 -102 -139.5 -151.5t-185.5 -49.5q-173 0 -263 120t-90 351zM575 1147z" />
<glyph unicode="&#x1b1;" horiz-adv-x="1408" d="M70 1304v178h540v-178q-160 -97 -249.5 -263t-89.5 -368q0 -239 119 -384.5t314 -145.5q194 0 313 145t119 385q0 202 -89 368t-249 263v178h540v-178h-288q145 -141 209 -289t64 -342q0 -309 -173 -505.5t-446 -196.5q-275 0 -447 197t-172 515q0 184 65 333t207 288 h-287z" />
<glyph unicode="&#x1b2;" horiz-adv-x="1328" d="M181 485v1008h182v-1008q0 -194 49.5 -269t169.5 -75h57q194 0 313 145t119 385q0 202 -89 368q-59 109 -158 196v68l162 -1q144 -141 208 -289t64 -342q0 -309 -173 -506q-172 -196 -446 -196l-69 2q-209 6 -296 122q-93 122 -93 392z" />
<glyph unicode="&#x1b3;" horiz-adv-x="1370" d="M-4 1493h196l372 -614l301 505q81 136 228 136q122 0 199 -92q76 -91 76 -201v-131h-153v121q0 54 -33 94t-67 40q-51 0 -70 -14q-34 -24 -49 -49l-342 -577v-711h-182v711z" />
<glyph unicode="&#x1b4;" horiz-adv-x="1346" d="M55 1120h175l315 -876l254 704q19 52 62 103q79 96 201 96q118 0 201 -95.5t83 -229.5v-114h-160v114q0 58 -36.5 100t-87.5 42t-88 -42q-18 -20 -27 -45l-354 -981q-70 -200 -136.5 -261t-178.5 -61h-132v154h97q68 0 106 36t84 170l30 84z" />
<glyph unicode="&#x1b5;" horiz-adv-x="1262" d="M83 0v154l397 546h-269v144h373l348 479h-828v170h1055v-154l-360 -495h253v-144h-357l-385 -530h870v-170h-1097z" />
<glyph unicode="&#x1b6;" horiz-adv-x="967" d="M79 0v168l269 348h-190v144h302l242 313h-600v147h786v-168l-226 -292h175v-144h-286l-285 -369h622v-147h-809z" />
<glyph unicode="&#x1b7;" horiz-adv-x="1227" d="M144 1323v170h922v-154l-370 -490q95 0 210 -56q88 -42 166 -151q73 -104 73 -242q0 -220 -137 -342q-137 -121 -389 -121q-107 0 -219 19q-114 18 -234 55v195q95 -49 209 -74t237 -25q173 0 262 75q90 75 90 218q0 134 -83 207q-84 74 -232 74h-157v152l347 490h-695z " />
<glyph unicode="&#x1b8;" horiz-adv-x="1227" d="M83 400q0 138 73 242q77 109 165 151q115 56 211 56l-370 490v154h922v-170h-695l346 -490v-152h-156q-149 0 -233 -74q-82 -73 -82 -207q0 -143 90 -218q89 -75 262 -75q123 0 236 25q115 25 210 74v-195q-121 -37 -234 -55q-112 -19 -220 -19q-252 0 -388 121 q-137 122 -137 342z" />
<glyph unicode="&#x1b9;" horiz-adv-x="1064" d="M94 27q0 138 72 242q78 109 166 151q115 56 211 56l-370 476v168h786v-147h-600l387 -499v-166h-156q-149 0 -233 -74q-83 -75 -83 -207q0 -143 90 -218t261 -75q98 0 188 25t165 74v-195q-95 -37 -185 -56q-89 -18 -174 -18q-252 0 -388.5 121t-136.5 342z" />
<glyph unicode="&#x1ba;" horiz-adv-x="967" d="M102 973v147h786v-168l-318 -412q330 0 330 -229q0 -276 -418 -325q-203 -24 -203 -121q0 -139 296 -139q76 0 145 21q71 21 144 65v-179q-78 -32 -150 -45q-78 -14 -165 -14q-432 0 -432 281q0 238 365 291q256 37 256 135q0 124 -212 124h-260l436 568h-600z" />
<glyph unicode="&#x1bb;" horiz-adv-x="1172" d="M135 0v170l283 320l103 117h-310v144h433q86 109 119 181q35 76 35 149q0 119 -74 194q-76 75 -197 75q-85 0 -180 -33t-203 -100v204q110 49 205.5 74t174.5 25q209 0 333 -116t124 -310q0 -92 -31 -174q-28 -73 -94 -169h94v-144h-213l-43 -49l-340 -388h634v-170h-853 z" />
<glyph unicode="&#x1bc;" horiz-adv-x="1227" d="M84 400h181q0 -293 350 -293t350 293q0 134 -83.5 207.5t-231.5 73.5h-469v812h836v-170h-654v-475l334 1q230 1 376 -207q73 -104 73 -248t-53 -230l-26 -41q-17 -29 -58 -65q-137 -121 -394.5 -121t-394 121t-136.5 342z" />
<glyph unicode="&#x1bd;" horiz-adv-x="1064" d="M94 -167q152 -99 338 -99q365 0 365 293q0 134 -83 207.5t-232 73.5h-317v812h713v-170h-548v-474h199q95 0 197.5 -49.5t177 -155.5t74.5 -250t-53 -230l-25 -41q-18 -29 -58 -65q-137 -121 -389 -121q-169 0 -359 74v195z" />
<glyph unicode="&#x1be;" horiz-adv-x="940" d="M79 41v172q66 -40 141 -64q71 -22 143 -22q161 0 250 114q51 65 52 198q0 98 -52 174q-77 114 -250 114h-56l2 271h-206v164h206v276h181v-276h208v-164h-208l-1 -125q153 -30 253 -149q98 -115 98 -285q0 -186 -99 -311q-124 -157 -371 -157q-77 0 -150 18 q-72 17 -141 52z" />
<glyph unicode="&#x1bf;" horiz-adv-x="1170" d="M167 -426v1546h167v-170q47 66 168 148q73 49 262 49q166 0 235 -112q70 -113 70 -266q0 -425 -735 -891v-304h-167zM334 60q563 400 563 649q0 133 -51 199q-50 65 -158 65q-198 0 -354 -239v-674z" />
<glyph unicode="&#x1c0;" horiz-adv-x="543" d="M181 -426v1919h182v-1919h-182z" />
<glyph unicode="&#x1c1;" horiz-adv-x="907" d="M545 -426v1919h182v-1919h-182zM181 -426v1919h182v-1919h-182z" />
<glyph unicode="&#x1c2;" horiz-adv-x="846" d="M18 298v170h316v240h-316v168h316v617h182v-617h316v-168h-316v-240h316v-170h-316v-724h-182v724h-316z" />
<glyph unicode="&#x1c3;" horiz-adv-x="544" d="M181 0v254h183v-254h-183zM181 838v655h183v-655l-18 -357h-146z" />
<glyph unicode="&#x1c4;" horiz-adv-x="2620" d="M1394 0v154l849 1169h-828v170h1055v-154l-849 -1169h870v-170h-1097zM1669 1901h125l149 -178l150 178h125l-190 -266h-169zM181 0v1493h373q391 0 573.5 -180.5t182.5 -564.5q0 -386 -183.5 -567t-572.5 -181h-373zM363 166h219q278 0 407.5 140t129.5 442 q0 300 -129.5 439.5t-407.5 139.5h-219v-1161z" />
<glyph unicode="&#x1c5;" horiz-adv-x="2394" d="M1423 0v168l623 805h-600v147h786v-168l-622 -805h622v-147h-809zM1542 1638h125l162 -245l162 245h125l-221 -376h-133zM181 0v1493h373q391 0 573.5 -180.5t182.5 -564.5q0 -386 -183.5 -567t-572.5 -181h-373zM363 166h219q278 0 407.5 140t129.5 442 q0 300 -129.5 439.5t-407.5 139.5h-219v-1161z" />
<glyph unicode="&#x1c6;" horiz-adv-x="2127" d="M1164 0v168l623 805h-600v147h786v-168l-622 -805h622v-147h-809zM1283 1638h125l162 -245l162 245h125l-221 -376h-133zM102 559q0 264 114.5 426t297.5 162q112 0 191.5 -48.5t131.5 -148.5v606h166v-1556h-166v168q-52 -100 -131.5 -148.5t-191.5 -48.5 q-183 0 -297.5 162t-114.5 426zM273 559q0 -203 75 -318.5t206 -115.5q132 0 207.5 115.5t75.5 318.5t-75.5 318.5t-207.5 115.5q-131 0 -206 -115.5t-75 -318.5z" />
<glyph unicode="&#x1c7;" horiz-adv-x="1539" d="M957 -240h56q121 0 170.5 75t49.5 269v1389h182v-1389q0 -270 -92.5 -392t-296.5 -122h-69v170zM181 0v1493h182v-1323h654v-170h-836z" />
</font>
</defs>
</svg>
